<svg class="main-svg" xmlns="http://www.w3.org/2000/svg" xmlns:xlink="http://www.w3.org/1999/xlink" width="1200" height="600" style="" viewBox="0 0 1200 600"><rect x="0" y="0" width="1200" height="600" style="fill: rgb(255, 255, 255); fill-opacity: 1;"/><defs id="defs-1c2c81"><g class="clips"><clipPath id="clip1c2c81xyplot" class="plotclip"><rect width="994" height="420"/></clipPath><clipPath class="axesclip" id="clip1c2c81x"><rect x="80" y="0" width="994" height="600"/></clipPath><clipPath class="axesclip" id="clip1c2c81y"><rect x="0" y="100" width="1200" height="420"/></clipPath><clipPath class="axesclip" id="clip1c2c81xy"><rect x="80" y="100" width="994" height="420"/></clipPath></g><g class="gradients"/></defs><g class="bglayer"/><g class="layer-below"><g class="imagelayer"/><g class="shapelayer"/></g><g class="cartesianlayer"><g class="subplot xy"><g class="layer-subplot"><g class="shapelayer"/><g class="imagelayer"/></g><g class="gridlayer"><g class="x"><path class="xgrid crisp" transform="translate(256.97,0)" d="M0,100v420" style="stroke: rgb(235, 240, 248); stroke-opacity: 1; stroke-width: 1px;"/><path class="xgrid crisp" transform="translate(444.12,0)" d="M0,100v420" style="stroke: rgb(235, 240, 248); stroke-opacity: 1; stroke-width: 1px;"/><path class="xgrid crisp" transform="translate(631.27,0)" d="M0,100v420" style="stroke: rgb(235, 240, 248); stroke-opacity: 1; stroke-width: 1px;"/><path class="xgrid crisp" transform="translate(818.43,0)" d="M0,100v420" style="stroke: rgb(235, 240, 248); stroke-opacity: 1; stroke-width: 1px;"/><path class="xgrid crisp" transform="translate(1005.58,0)" d="M0,100v420" style="stroke: rgb(235, 240, 248); stroke-opacity: 1; stroke-width: 1px;"/></g><g class="y"><path class="ygrid crisp" transform="translate(0,498.17)" d="M80,0h994" style="stroke: rgb(235, 240, 248); stroke-opacity: 1; stroke-width: 1px;"/><path class="ygrid crisp" transform="translate(0,449.42)" d="M80,0h994" style="stroke: rgb(235, 240, 248); stroke-opacity: 1; stroke-width: 1px;"/><path class="ygrid crisp" transform="translate(0,400.67)" d="M80,0h994" style="stroke: rgb(235, 240, 248); stroke-opacity: 1; stroke-width: 1px;"/><path class="ygrid crisp" transform="translate(0,351.91999999999996)" d="M80,0h994" style="stroke: rgb(235, 240, 248); stroke-opacity: 1; stroke-width: 1px;"/><path class="ygrid crisp" transform="translate(0,303.16999999999996)" d="M80,0h994" style="stroke: rgb(235, 240, 248); stroke-opacity: 1; stroke-width: 1px;"/><path class="ygrid crisp" transform="translate(0,254.42)" d="M80,0h994" style="stroke: rgb(235, 240, 248); stroke-opacity: 1; stroke-width: 1px;"/><path class="ygrid crisp" transform="translate(0,205.68)" d="M80,0h994" style="stroke: rgb(235, 240, 248); stroke-opacity: 1; stroke-width: 1px;"/><path class="ygrid crisp" transform="translate(0,156.93)" d="M80,0h994" style="stroke: rgb(235, 240, 248); stroke-opacity: 1; stroke-width: 1px;"/><path class="ygrid crisp" transform="translate(0,108.18)" d="M80,0h994" style="stroke: rgb(235, 240, 248); stroke-opacity: 1; stroke-width: 1px;"/></g></g><g class="zerolinelayer"/><path class="xlines-below"/><path class="ylines-below"/><g class="overlines-below"/><g class="xaxislayer-below"/><g class="yaxislayer-below"/><g class="overaxes-below"/><g class="plot" transform="translate(80,100)" clip-path="url('#clip1c2c81xyplot')"><g class="scatterlayer mlayer"><g class="trace scatter trace4ee542" style="stroke-miterlimit: 2; opacity: 1;"><g class="fills"/><g class="errorbars"/><g class="lines"/><g class="points"><path class="point" transform="translate(562.5,83.25)" d="M3,0A3,3 0 1,1 0,-3A3,3 0 0,1 3,0Z" style="opacity: 1; stroke-width: 0px; fill: rgb(2, 21, 51); fill-opacity: 0.9;"/><path class="point" transform="translate(506.36,183.68)" d="M3,0A3,3 0 1,1 0,-3A3,3 0 0,1 3,0Z" style="opacity: 1; stroke-width: 0px; fill: rgb(2, 21, 51); fill-opacity: 0.9;"/><path class="point" transform="translate(596.19,187.58)" d="M3,0A3,3 0 1,1 0,-3A3,3 0 0,1 3,0Z" style="opacity: 1; stroke-width: 0px; fill: rgb(2, 21, 51); fill-opacity: 0.9;"/><path class="point" transform="translate(642.98,69.6)" d="M3,0A3,3 0 1,1 0,-3A3,3 0 0,1 3,0Z" style="opacity: 1; stroke-width: 0px; fill: rgb(2, 21, 51); fill-opacity: 0.9;"/><path class="point" transform="translate(493.26,179.78)" d="M3,0A3,3 0 1,1 0,-3A3,3 0 0,1 3,0Z" style="opacity: 1; stroke-width: 0px; fill: rgb(2, 21, 51); fill-opacity: 0.9;"/><path class="point" transform="translate(624.26,86.18)" d="M3,0A3,3 0 1,1 0,-3A3,3 0 0,1 3,0Z" style="opacity: 1; stroke-width: 0px; fill: rgb(2, 21, 51); fill-opacity: 0.9;"/><path class="point" transform="translate(461.44,67.65)" d="M3,0A3,3 0 1,1 0,-3A3,3 0 0,1 3,0Z" style="opacity: 1; stroke-width: 0px; fill: rgb(2, 21, 51); fill-opacity: 0.9;"/><path class="point" transform="translate(459.57,99.83)" d="M3,0A3,3 0 1,1 0,-3A3,3 0 0,1 3,0Z" style="opacity: 1; stroke-width: 0px; fill: rgb(2, 21, 51); fill-opacity: 0.9;"/><path class="point" transform="translate(547.53,24.75)" d="M3,0A3,3 0 1,1 0,-3A3,3 0 0,1 3,0Z" style="opacity: 1; stroke-width: 0px; fill: rgb(2, 21, 51); fill-opacity: 0.9;"/><path class="point" transform="translate(579.35,119.33)" d="M3,0A3,3 0 1,1 0,-3A3,3 0 0,1 3,0Z" style="opacity: 1; stroke-width: 0px; fill: rgb(2, 21, 51); fill-opacity: 0.9;"/><path class="point" transform="translate(611.16,95.93)" d="M3,0A3,3 0 1,1 0,-3A3,3 0 0,1 3,0Z" style="opacity: 1; stroke-width: 0px; fill: rgb(2, 21, 51); fill-opacity: 0.9;"/><path class="point" transform="translate(444.6,93.98)" d="M3,0A3,3 0 1,1 0,-3A3,3 0 0,1 3,0Z" style="opacity: 1; stroke-width: 0px; fill: rgb(2, 21, 51); fill-opacity: 0.9;"/><path class="point" transform="translate(506.36,130.05)" d="M3,0A3,3 0 1,1 0,-3A3,3 0 0,1 3,0Z" style="opacity: 1; stroke-width: 0px; fill: rgb(2, 21, 51); fill-opacity: 0.9;"/><path class="point" transform="translate(680.41,32.55)" d="M3,0A3,3 0 1,1 0,-3A3,3 0 0,1 3,0Z" style="opacity: 1; stroke-width: 0px; fill: rgb(2, 21, 51); fill-opacity: 0.9;"/><path class="point" transform="translate(671.05,68.63)" d="M3,0A3,3 0 1,1 0,-3A3,3 0 0,1 3,0Z" style="opacity: 1; stroke-width: 0px; fill: rgb(2, 21, 51); fill-opacity: 0.9;"/><path class="point" transform="translate(534.43,141.75)" d="M3,0A3,3 0 1,1 0,-3A3,3 0 0,1 3,0Z" style="opacity: 1; stroke-width: 0px; fill: rgb(2, 21, 51); fill-opacity: 0.9;"/><path class="point" transform="translate(577.48,76.42)" d="M3,0A3,3 0 1,1 0,-3A3,3 0 0,1 3,0Z" style="opacity: 1; stroke-width: 0px; fill: rgb(2, 21, 51); fill-opacity: 0.9;"/><path class="point" transform="translate(626.13,122.25)" d="M3,0A3,3 0 1,1 0,-3A3,3 0 0,1 3,0Z" style="opacity: 1; stroke-width: 0px; fill: rgb(2, 21, 51); fill-opacity: 0.9;"/><path class="point" transform="translate(725.33,87.15)" d="M3,0A3,3 0 1,1 0,-3A3,3 0 0,1 3,0Z" style="opacity: 1; stroke-width: 0px; fill: rgb(2, 21, 51); fill-opacity: 0.9;"/><path class="point" transform="translate(556.89,140.78)" d="M3,0A3,3 0 1,1 0,-3A3,3 0 0,1 3,0Z" style="opacity: 1; stroke-width: 0px; fill: rgb(2, 21, 51); fill-opacity: 0.9;"/><path class="point" transform="translate(583.09,99.83)" d="M3,0A3,3 0 1,1 0,-3A3,3 0 0,1 3,0Z" style="opacity: 1; stroke-width: 0px; fill: rgb(2, 21, 51); fill-opacity: 0.9;"/><path class="point" transform="translate(440.85,210)" d="M3,0A3,3 0 1,1 0,-3A3,3 0 0,1 3,0Z" style="opacity: 1; stroke-width: 0px; fill: rgb(2, 21, 51); fill-opacity: 0.9;"/><path class="point" transform="translate(528.82,133.95)" d="M3,0A3,3 0 1,1 0,-3A3,3 0 0,1 3,0Z" style="opacity: 1; stroke-width: 0px; fill: rgb(2, 21, 51); fill-opacity: 0.9;"/><path class="point" transform="translate(433.37,217.8)" d="M3,0A3,3 0 1,1 0,-3A3,3 0 0,1 3,0Z" style="opacity: 1; stroke-width: 0px; fill: rgb(2, 21, 51); fill-opacity: 0.9;"/><path class="point" transform="translate(478.28,154.42)" d="M3,0A3,3 0 1,1 0,-3A3,3 0 0,1 3,0Z" style="opacity: 1; stroke-width: 0px; fill: rgb(2, 21, 51); fill-opacity: 0.9;"/><path class="point" transform="translate(491.39,198.3)" d="M3,0A3,3 0 1,1 0,-3A3,3 0 0,1 3,0Z" style="opacity: 1; stroke-width: 0px; fill: rgb(2, 21, 51); fill-opacity: 0.9;"/><path class="point" transform="translate(540.04,165.15)" d="M3,0A3,3 0 1,1 0,-3A3,3 0 0,1 3,0Z" style="opacity: 1; stroke-width: 0px; fill: rgb(2, 21, 51); fill-opacity: 0.9;"/><path class="point" transform="translate(399.68,173.92)" d="M3,0A3,3 0 1,1 0,-3A3,3 0 0,1 3,0Z" style="opacity: 1; stroke-width: 0px; fill: rgb(2, 21, 51); fill-opacity: 0.9;"/><path class="point" transform="translate(545.66,118.35)" d="M3,0A3,3 0 1,1 0,-3A3,3 0 0,1 3,0Z" style="opacity: 1; stroke-width: 0px; fill: rgb(2, 21, 51); fill-opacity: 0.9;"/><path class="point" transform="translate(425.88,103.73)" d="M3,0A3,3 0 1,1 0,-3A3,3 0 0,1 3,0Z" style="opacity: 1; stroke-width: 0px; fill: rgb(2, 21, 51); fill-opacity: 0.9;"/><path class="point" transform="translate(598.06,132)" d="M3,0A3,3 0 1,1 0,-3A3,3 0 0,1 3,0Z" style="opacity: 1; stroke-width: 0px; fill: rgb(2, 21, 51); fill-opacity: 0.9;"/><path class="point" transform="translate(586.83,146.63)" d="M3,0A3,3 0 1,1 0,-3A3,3 0 0,1 3,0Z" style="opacity: 1; stroke-width: 0px; fill: rgb(2, 21, 51); fill-opacity: 0.9;"/><path class="point" transform="translate(493.26,136.88)" d="M3,0A3,3 0 1,1 0,-3A3,3 0 0,1 3,0Z" style="opacity: 1; stroke-width: 0px; fill: rgb(2, 21, 51); fill-opacity: 0.9;"/><path class="point" transform="translate(502.61,129.08)" d="M3,0A3,3 0 1,1 0,-3A3,3 0 0,1 3,0Z" style="opacity: 1; stroke-width: 0px; fill: rgb(2, 21, 51); fill-opacity: 0.9;"/><path class="point" transform="translate(463.31,153.45)" d="M3,0A3,3 0 1,1 0,-3A3,3 0 0,1 3,0Z" style="opacity: 1; stroke-width: 0px; fill: rgb(2, 21, 51); fill-opacity: 0.9;"/><path class="point" transform="translate(547.53,156.38)" d="M3,0A3,3 0 1,1 0,-3A3,3 0 0,1 3,0Z" style="opacity: 1; stroke-width: 0px; fill: rgb(2, 21, 51); fill-opacity: 0.9;"/><path class="point" transform="translate(491.39,175.88)" d="M3,0A3,3 0 1,1 0,-3A3,3 0 0,1 3,0Z" style="opacity: 1; stroke-width: 0px; fill: rgb(2, 21, 51); fill-opacity: 0.9;"/><path class="point" transform="translate(444.6,198.3)" d="M3,0A3,3 0 1,1 0,-3A3,3 0 0,1 3,0Z" style="opacity: 1; stroke-width: 0px; fill: rgb(2, 21, 51); fill-opacity: 0.9;"/><path class="point" transform="translate(483.9,196.35)" d="M3,0A3,3 0 1,1 0,-3A3,3 0 0,1 3,0Z" style="opacity: 1; stroke-width: 0px; fill: rgb(2, 21, 51); fill-opacity: 0.9;"/><path class="point" transform="translate(558.76,84.22)" d="M3,0A3,3 0 1,1 0,-3A3,3 0 0,1 3,0Z" style="opacity: 1; stroke-width: 0px; fill: rgb(2, 21, 51); fill-opacity: 0.9;"/><path class="point" transform="translate(605.55,148.58)" d="M3,0A3,3 0 1,1 0,-3A3,3 0 0,1 3,0Z" style="opacity: 1; stroke-width: 0px; fill: rgb(2, 21, 51); fill-opacity: 0.9;"/><path class="point" transform="translate(491.39,163.2)" d="M3,0A3,3 0 1,1 0,-3A3,3 0 0,1 3,0Z" style="opacity: 1; stroke-width: 0px; fill: rgb(2, 21, 51); fill-opacity: 0.9;"/><path class="point" transform="translate(656.08,117.38)" d="M3,0A3,3 0 1,1 0,-3A3,3 0 0,1 3,0Z" style="opacity: 1; stroke-width: 0px; fill: rgb(2, 21, 51); fill-opacity: 0.9;"/><path class="point" transform="translate(482.03,179.78)" d="M3,0A3,3 0 1,1 0,-3A3,3 0 0,1 3,0Z" style="opacity: 1; stroke-width: 0px; fill: rgb(2, 21, 51); fill-opacity: 0.9;"/><path class="point" transform="translate(551.27,198.3)" d="M3,0A3,3 0 1,1 0,-3A3,3 0 0,1 3,0Z" style="opacity: 1; stroke-width: 0px; fill: rgb(2, 21, 51); fill-opacity: 0.9;"/><path class="point" transform="translate(485.77,85.2)" d="M3,0A3,3 0 1,1 0,-3A3,3 0 0,1 3,0Z" style="opacity: 1; stroke-width: 0px; fill: rgb(2, 21, 51); fill-opacity: 0.9;"/><path class="point" transform="translate(583.09,68.63)" d="M3,0A3,3 0 1,1 0,-3A3,3 0 0,1 3,0Z" style="opacity: 1; stroke-width: 0px; fill: rgb(2, 21, 51); fill-opacity: 0.9;"/><path class="point" transform="translate(624.26,115.42)" d="M3,0A3,3 0 1,1 0,-3A3,3 0 0,1 3,0Z" style="opacity: 1; stroke-width: 0px; fill: rgb(2, 21, 51); fill-opacity: 0.9;"/><path class="point" transform="translate(536.3,95.93)" d="M3,0A3,3 0 1,1 0,-3A3,3 0 0,1 3,0Z" style="opacity: 1; stroke-width: 0px; fill: rgb(2, 21, 51); fill-opacity: 0.9;"/><path class="point" transform="translate(652.34,111.53)" d="M3,0A3,3 0 1,1 0,-3A3,3 0 0,1 3,0Z" style="opacity: 1; stroke-width: 0px; fill: rgb(2, 21, 51); fill-opacity: 0.9;"/><path class="point" transform="translate(601.81,198.3)" d="M3,0A3,3 0 1,1 0,-3A3,3 0 0,1 3,0Z" style="opacity: 1; stroke-width: 0px; fill: rgb(2, 21, 51); fill-opacity: 0.9;"/><path class="point" transform="translate(549.4,122.25)" d="M3,0A3,3 0 1,1 0,-3A3,3 0 0,1 3,0Z" style="opacity: 1; stroke-width: 0px; fill: rgb(2, 21, 51); fill-opacity: 0.9;"/><path class="point" transform="translate(689.77,123.23)" d="M3,0A3,3 0 1,1 0,-3A3,3 0 0,1 3,0Z" style="opacity: 1; stroke-width: 0px; fill: rgb(2, 21, 51); fill-opacity: 0.9;"/><path class="point" transform="translate(511.97,128.1)" d="M3,0A3,3 0 1,1 0,-3A3,3 0 0,1 3,0Z" style="opacity: 1; stroke-width: 0px; fill: rgb(2, 21, 51); fill-opacity: 0.9;"/><path class="point" transform="translate(532.56,131.03)" d="M3,0A3,3 0 1,1 0,-3A3,3 0 0,1 3,0Z" style="opacity: 1; stroke-width: 0px; fill: rgb(2, 21, 51); fill-opacity: 0.9;"/><path class="point" transform="translate(510.1,148.58)" d="M3,0A3,3 0 1,1 0,-3A3,3 0 0,1 3,0Z" style="opacity: 1; stroke-width: 0px; fill: rgb(2, 21, 51); fill-opacity: 0.9;"/><path class="point" transform="translate(551.27,84.22)" d="M3,0A3,3 0 1,1 0,-3A3,3 0 0,1 3,0Z" style="opacity: 1; stroke-width: 0px; fill: rgb(2, 21, 51); fill-opacity: 0.9;"/><path class="point" transform="translate(594.32,174.9)" d="M3,0A3,3 0 1,1 0,-3A3,3 0 0,1 3,0Z" style="opacity: 1; stroke-width: 0px; fill: rgb(2, 21, 51); fill-opacity: 0.9;"/><path class="point" transform="translate(676.67,132.97)" d="M3,0A3,3 0 1,1 0,-3A3,3 0 0,1 3,0Z" style="opacity: 1; stroke-width: 0px; fill: rgb(2, 21, 51); fill-opacity: 0.9;"/></g><g class="text"/></g><g class="trace scatter trace0e3311" style="stroke-miterlimit: 2; opacity: 1;"><g class="fills"/><g class="errorbars"/><g class="lines"/><g class="points"><path class="point" transform="translate(96.49,264.6)" d="M3,0A3,3 0 1,1 0,-3A3,3 0 0,1 3,0Z" style="opacity: 1; stroke-width: 0px; fill: rgb(253, 188, 34); fill-opacity: 0.9;"/><path class="point" transform="translate(193.81,268.5)" d="M3,0A3,3 0 1,1 0,-3A3,3 0 0,1 3,0Z" style="opacity: 1; stroke-width: 0px; fill: rgb(253, 188, 34); fill-opacity: 0.9;"/><path class="point" transform="translate(253.7,238.27)" d="M3,0A3,3 0 1,1 0,-3A3,3 0 0,1 3,0Z" style="opacity: 1; stroke-width: 0px; fill: rgb(253, 188, 34); fill-opacity: 0.9;"/><path class="point" transform="translate(324.82,137.85)" d="M3,0A3,3 0 1,1 0,-3A3,3 0 0,1 3,0Z" style="opacity: 1; stroke-width: 0px; fill: rgb(253, 188, 34); fill-opacity: 0.9;"/><path class="point" transform="translate(569.99,264.6)" d="M3,0A3,3 0 1,1 0,-3A3,3 0 0,1 3,0Z" style="opacity: 1; stroke-width: 0px; fill: rgb(253, 188, 34); fill-opacity: 0.9;"/><path class="point" transform="translate(317.33,284.1)" d="M3,0A3,3 0 1,1 0,-3A3,3 0 0,1 3,0Z" style="opacity: 1; stroke-width: 0px; fill: rgb(253, 188, 34); fill-opacity: 0.9;"/><path class="point" transform="translate(485.77,264.6)" d="M3,0A3,3 0 1,1 0,-3A3,3 0 0,1 3,0Z" style="opacity: 1; stroke-width: 0px; fill: rgb(253, 188, 34); fill-opacity: 0.9;"/><path class="point" transform="translate(584.96,192.45)" d="M3,0A3,3 0 1,1 0,-3A3,3 0 0,1 3,0Z" style="opacity: 1; stroke-width: 0px; fill: rgb(253, 188, 34); fill-opacity: 0.9;"/><path class="point" transform="translate(364.12,264.6)" d="M3,0A3,3 0 1,1 0,-3A3,3 0 0,1 3,0Z" style="opacity: 1; stroke-width: 0px; fill: rgb(253, 188, 34); fill-opacity: 0.9;"/><path class="point" transform="translate(233.12,170.03)" d="M3,0A3,3 0 1,1 0,-3A3,3 0 0,1 3,0Z" style="opacity: 1; stroke-width: 0px; fill: rgb(253, 188, 34); fill-opacity: 0.9;"/><path class="point" transform="translate(229.37,280.2)" d="M3,0A3,3 0 1,1 0,-3A3,3 0 0,1 3,0Z" style="opacity: 1; stroke-width: 0px; fill: rgb(253, 188, 34); fill-opacity: 0.9;"/><path class="point" transform="translate(180.71,272.4)" d="M3,0A3,3 0 1,1 0,-3A3,3 0 0,1 3,0Z" style="opacity: 1; stroke-width: 0px; fill: rgb(253, 188, 34); fill-opacity: 0.9;"/><path class="point" transform="translate(525.07,119.33)" d="M3,0A3,3 0 1,1 0,-3A3,3 0 0,1 3,0Z" style="opacity: 1; stroke-width: 0px; fill: rgb(253, 188, 34); fill-opacity: 0.9;"/><path class="point" transform="translate(334.18,155.4)" d="M3,0A3,3 0 1,1 0,-3A3,3 0 0,1 3,0Z" style="opacity: 1; stroke-width: 0px; fill: rgb(253, 188, 34); fill-opacity: 0.9;"/><path class="point" transform="translate(530.69,204.15)" d="M3,0A3,3 0 1,1 0,-3A3,3 0 0,1 3,0Z" style="opacity: 1; stroke-width: 0px; fill: rgb(253, 188, 34); fill-opacity: 0.9;"/><path class="point" transform="translate(390.32,304.57)" d="M3,0A3,3 0 1,1 0,-3A3,3 0 0,1 3,0Z" style="opacity: 1; stroke-width: 0px; fill: rgb(253, 188, 34); fill-opacity: 0.9;"/><path class="point" transform="translate(283.65,333.82)" d="M3,0A3,3 0 1,1 0,-3A3,3 0 0,1 3,0Z" style="opacity: 1; stroke-width: 0px; fill: rgb(253, 188, 34); fill-opacity: 0.9;"/><path class="point" transform="translate(369.74,200.25)" d="M3,0A3,3 0 1,1 0,-3A3,3 0 0,1 3,0Z" style="opacity: 1; stroke-width: 0px; fill: rgb(253, 188, 34); fill-opacity: 0.9;"/><path class="point" transform="translate(236.86,316.27)" d="M3,0A3,3 0 1,1 0,-3A3,3 0 0,1 3,0Z" style="opacity: 1; stroke-width: 0px; fill: rgb(253, 188, 34); fill-opacity: 0.9;"/><path class="point" transform="translate(336.05,268.5)" d="M3,0A3,3 0 1,1 0,-3A3,3 0 0,1 3,0Z" style="opacity: 1; stroke-width: 0px; fill: rgb(253, 188, 34); fill-opacity: 0.9;"/><path class="point" transform="translate(467.06,232.42)" d="M3,0A3,3 0 1,1 0,-3A3,3 0 0,1 3,0Z" style="opacity: 1; stroke-width: 0px; fill: rgb(253, 188, 34); fill-opacity: 0.9;"/><path class="point" transform="translate(412.78,300.67)" d="M3,0A3,3 0 1,1 0,-3A3,3 0 0,1 3,0Z" style="opacity: 1; stroke-width: 0px; fill: rgb(253, 188, 34); fill-opacity: 0.9;"/><path class="point" transform="translate(463.31,230.47)" d="M3,0A3,3 0 1,1 0,-3A3,3 0 0,1 3,0Z" style="opacity: 1; stroke-width: 0px; fill: rgb(253, 188, 34); fill-opacity: 0.9;"/><path class="point" transform="translate(285.52,292.88)" d="M3,0A3,3 0 1,1 0,-3A3,3 0 0,1 3,0Z" style="opacity: 1; stroke-width: 0px; fill: rgb(253, 188, 34); fill-opacity: 0.9;"/><path class="point" transform="translate(287.39,198.3)" d="M3,0A3,3 0 1,1 0,-3A3,3 0 0,1 3,0Z" style="opacity: 1; stroke-width: 0px; fill: rgb(253, 188, 34); fill-opacity: 0.9;"/><path class="point" transform="translate(403.42,316.27)" d="M3,0A3,3 0 1,1 0,-3A3,3 0 0,1 3,0Z" style="opacity: 1; stroke-width: 0px; fill: rgb(253, 188, 34); fill-opacity: 0.9;"/><path class="point" transform="translate(352.89,235.35)" d="M3,0A3,3 0 1,1 0,-3A3,3 0 0,1 3,0Z" style="opacity: 1; stroke-width: 0px; fill: rgb(253, 188, 34); fill-opacity: 0.9;"/><path class="point" transform="translate(306.11,285.08)" d="M3,0A3,3 0 1,1 0,-3A3,3 0 0,1 3,0Z" style="opacity: 1; stroke-width: 0px; fill: rgb(253, 188, 34); fill-opacity: 0.9;"/><path class="point" transform="translate(291.13,334.8)" d="M3,0A3,3 0 1,1 0,-3A3,3 0 0,1 3,0Z" style="opacity: 1; stroke-width: 0px; fill: rgb(253, 188, 34); fill-opacity: 0.9;"/><path class="point" transform="translate(306.11,335.77)" d="M3,0A3,3 0 1,1 0,-3A3,3 0 0,1 3,0Z" style="opacity: 1; stroke-width: 0px; fill: rgb(253, 188, 34); fill-opacity: 0.9;"/><path class="point" transform="translate(287.39,292.88)" d="M3,0A3,3 0 1,1 0,-3A3,3 0 0,1 3,0Z" style="opacity: 1; stroke-width: 0px; fill: rgb(253, 188, 34); fill-opacity: 0.9;"/><path class="point" transform="translate(270.55,292.88)" d="M3,0A3,3 0 1,1 0,-3A3,3 0 0,1 3,0Z" style="opacity: 1; stroke-width: 0px; fill: rgb(253, 188, 34); fill-opacity: 0.9;"/><path class="point" transform="translate(223.76,300.67)" d="M3,0A3,3 0 1,1 0,-3A3,3 0 0,1 3,0Z" style="opacity: 1; stroke-width: 0px; fill: rgb(253, 188, 34); fill-opacity: 0.9;"/><path class="point" transform="translate(263.06,233.4)" d="M3,0A3,3 0 1,1 0,-3A3,3 0 0,1 3,0Z" style="opacity: 1; stroke-width: 0px; fill: rgb(253, 188, 34); fill-opacity: 0.9;"/><path class="point" transform="translate(410.91,272.4)" d="M3,0A3,3 0 1,1 0,-3A3,3 0 0,1 3,0Z" style="opacity: 1; stroke-width: 0px; fill: rgb(253, 188, 34); fill-opacity: 0.9;"/><path class="point" transform="translate(412.78,337.72)" d="M3,0A3,3 0 1,1 0,-3A3,3 0 0,1 3,0Z" style="opacity: 1; stroke-width: 0px; fill: rgb(253, 188, 34); fill-opacity: 0.9;"/><path class="point" transform="translate(414.65,254.85)" d="M3,0A3,3 0 1,1 0,-3A3,3 0 0,1 3,0Z" style="opacity: 1; stroke-width: 0px; fill: rgb(253, 188, 34); fill-opacity: 0.9;"/><path class="point" transform="translate(175.1,319.2)" d="M3,0A3,3 0 1,1 0,-3A3,3 0 0,1 3,0Z" style="opacity: 1; stroke-width: 0px; fill: rgb(253, 188, 34); fill-opacity: 0.9;"/><path class="point" transform="translate(457.7,272.4)" d="M3,0A3,3 0 1,1 0,-3A3,3 0 0,1 3,0Z" style="opacity: 1; stroke-width: 0px; fill: rgb(253, 188, 34); fill-opacity: 0.9;"/><path class="point" transform="translate(691.64,264.6)" d="M3,0A3,3 0 1,1 0,-3A3,3 0 0,1 3,0Z" style="opacity: 1; stroke-width: 0px; fill: rgb(253, 188, 34); fill-opacity: 0.9;"/><path class="point" transform="translate(549.4,272.4)" d="M3,0A3,3 0 1,1 0,-3A3,3 0 0,1 3,0Z" style="opacity: 1; stroke-width: 0px; fill: rgb(253, 188, 34); fill-opacity: 0.9;"/><path class="point" transform="translate(395.94,292.88)" d="M3,0A3,3 0 1,1 0,-3A3,3 0 0,1 3,0Z" style="opacity: 1; stroke-width: 0px; fill: rgb(253, 188, 34); fill-opacity: 0.9;"/><path class="point" transform="translate(244.34,242.17)" d="M3,0A3,3 0 1,1 0,-3A3,3 0 0,1 3,0Z" style="opacity: 1; stroke-width: 0px; fill: rgb(253, 188, 34); fill-opacity: 0.9;"/><path class="point" transform="translate(384.71,267.53)" d="M3,0A3,3 0 1,1 0,-3A3,3 0 0,1 3,0Z" style="opacity: 1; stroke-width: 0px; fill: rgb(253, 188, 34); fill-opacity: 0.9;"/><path class="point" transform="translate(296.75,318.22)" d="M3,0A3,3 0 1,1 0,-3A3,3 0 0,1 3,0Z" style="opacity: 1; stroke-width: 0px; fill: rgb(253, 188, 34); fill-opacity: 0.9;"/><path class="point" transform="translate(349.15,250.95)" d="M3,0A3,3 0 1,1 0,-3A3,3 0 0,1 3,0Z" style="opacity: 1; stroke-width: 0px; fill: rgb(253, 188, 34); fill-opacity: 0.9;"/><path class="point" transform="translate(334.18,259.72)" d="M3,0A3,3 0 1,1 0,-3A3,3 0 0,1 3,0Z" style="opacity: 1; stroke-width: 0px; fill: rgb(253, 188, 34); fill-opacity: 0.9;"/><path class="point" transform="translate(369.74,276.3)" d="M3,0A3,3 0 1,1 0,-3A3,3 0 0,1 3,0Z" style="opacity: 1; stroke-width: 0px; fill: rgb(253, 188, 34); fill-opacity: 0.9;"/><path class="point" transform="translate(319.21,230.47)" d="M3,0A3,3 0 1,1 0,-3A3,3 0 0,1 3,0Z" style="opacity: 1; stroke-width: 0px; fill: rgb(253, 188, 34); fill-opacity: 0.9;"/><path class="point" transform="translate(371.61,279.22)" d="M3,0A3,3 0 1,1 0,-3A3,3 0 0,1 3,0Z" style="opacity: 1; stroke-width: 0px; fill: rgb(253, 188, 34); fill-opacity: 0.9;"/><path class="point" transform="translate(536.3,338.7)" d="M3,0A3,3 0 1,1 0,-3A3,3 0 0,1 3,0Z" style="opacity: 1; stroke-width: 0px; fill: rgb(253, 188, 34); fill-opacity: 0.9;"/><path class="point" transform="translate(472.67,353.32)" d="M3,0A3,3 0 1,1 0,-3A3,3 0 0,1 3,0Z" style="opacity: 1; stroke-width: 0px; fill: rgb(253, 188, 34); fill-opacity: 0.9;"/><path class="point" transform="translate(414.65,249.98)" d="M3,0A3,3 0 1,1 0,-3A3,3 0 0,1 3,0Z" style="opacity: 1; stroke-width: 0px; fill: rgb(253, 188, 34); fill-opacity: 0.9;"/><path class="point" transform="translate(369.74,324.08)" d="M3,0A3,3 0 1,1 0,-3A3,3 0 0,1 3,0Z" style="opacity: 1; stroke-width: 0px; fill: rgb(253, 188, 34); fill-opacity: 0.9;"/><path class="point" transform="translate(365.99,358.2)" d="M3,0A3,3 0 1,1 0,-3A3,3 0 0,1 3,0Z" style="opacity: 1; stroke-width: 0px; fill: rgb(253, 188, 34); fill-opacity: 0.9;"/><path class="point" transform="translate(418.4,292.88)" d="M3,0A3,3 0 1,1 0,-3A3,3 0 0,1 3,0Z" style="opacity: 1; stroke-width: 0px; fill: rgb(253, 188, 34); fill-opacity: 0.9;"/><path class="point" transform="translate(395.94,395.25)" d="M3,0A3,3 0 1,1 0,-3A3,3 0 0,1 3,0Z" style="opacity: 1; stroke-width: 0px; fill: rgb(253, 188, 34); fill-opacity: 0.9;"/><path class="point" transform="translate(289.26,318.22)" d="M3,0A3,3 0 1,1 0,-3A3,3 0 0,1 3,0Z" style="opacity: 1; stroke-width: 0px; fill: rgb(253, 188, 34); fill-opacity: 0.9;"/><path class="point" transform="translate(380.97,259.72)" d="M3,0A3,3 0 1,1 0,-3A3,3 0 0,1 3,0Z" style="opacity: 1; stroke-width: 0px; fill: rgb(253, 188, 34); fill-opacity: 0.9;"/><path class="point" transform="translate(223.76,225.6)" d="M3,0A3,3 0 1,1 0,-3A3,3 0 0,1 3,0Z" style="opacity: 1; stroke-width: 0px; fill: rgb(253, 188, 34); fill-opacity: 0.9;"/><path class="point" transform="translate(296.75,300.67)" d="M3,0A3,3 0 1,1 0,-3A3,3 0 0,1 3,0Z" style="opacity: 1; stroke-width: 0px; fill: rgb(253, 188, 34); fill-opacity: 0.9;"/><path class="point" transform="translate(511.97,354.3)" d="M3,0A3,3 0 1,1 0,-3A3,3 0 0,1 3,0Z" style="opacity: 1; stroke-width: 0px; fill: rgb(253, 188, 34); fill-opacity: 0.9;"/><path class="point" transform="translate(940.55,343.57)" d="M3,0A3,3 0 1,1 0,-3A3,3 0 0,1 3,0Z" style="opacity: 1; stroke-width: 0px; fill: rgb(253, 188, 34); fill-opacity: 0.9;"/><path class="point" transform="translate(388.45,259.72)" d="M3,0A3,3 0 1,1 0,-3A3,3 0 0,1 3,0Z" style="opacity: 1; stroke-width: 0px; fill: rgb(253, 188, 34); fill-opacity: 0.9;"/><path class="point" transform="translate(485.77,198.3)" d="M3,0A3,3 0 1,1 0,-3A3,3 0 0,1 3,0Z" style="opacity: 1; stroke-width: 0px; fill: rgb(253, 188, 34); fill-opacity: 0.9;"/><path class="point" transform="translate(556.89,313.35)" d="M3,0A3,3 0 1,1 0,-3A3,3 0 0,1 3,0Z" style="opacity: 1; stroke-width: 0px; fill: rgb(253, 188, 34); fill-opacity: 0.9;"/><path class="point" transform="translate(485.77,293.85)" d="M3,0A3,3 0 1,1 0,-3A3,3 0 0,1 3,0Z" style="opacity: 1; stroke-width: 0px; fill: rgb(253, 188, 34); fill-opacity: 0.9;"/><path class="point" transform="translate(579.35,258.75)" d="M3,0A3,3 0 1,1 0,-3A3,3 0 0,1 3,0Z" style="opacity: 1; stroke-width: 0px; fill: rgb(253, 188, 34); fill-opacity: 0.9;"/><path class="point" transform="translate(409.04,321.15)" d="M3,0A3,3 0 1,1 0,-3A3,3 0 0,1 3,0Z" style="opacity: 1; stroke-width: 0px; fill: rgb(253, 188, 34); fill-opacity: 0.9;"/><path class="point" transform="translate(448.34,264.6)" d="M3,0A3,3 0 1,1 0,-3A3,3 0 0,1 3,0Z" style="opacity: 1; stroke-width: 0px; fill: rgb(253, 188, 34); fill-opacity: 0.9;"/><path class="point" transform="translate(317.33,296.78)" d="M3,0A3,3 0 1,1 0,-3A3,3 0 0,1 3,0Z" style="opacity: 1; stroke-width: 0px; fill: rgb(253, 188, 34); fill-opacity: 0.9;"/><path class="point" transform="translate(223.76,216.83)" d="M3,0A3,3 0 1,1 0,-3A3,3 0 0,1 3,0Z" style="opacity: 1; stroke-width: 0px; fill: rgb(253, 188, 34); fill-opacity: 0.9;"/><path class="point" transform="translate(218.14,214.88)" d="M3,0A3,3 0 1,1 0,-3A3,3 0 0,1 3,0Z" style="opacity: 1; stroke-width: 0px; fill: rgb(253, 188, 34); fill-opacity: 0.9;"/><path class="point" transform="translate(193.81,221.7)" d="M3,0A3,3 0 1,1 0,-3A3,3 0 0,1 3,0Z" style="opacity: 1; stroke-width: 0px; fill: rgb(253, 188, 34); fill-opacity: 0.9;"/><path class="point" transform="translate(214.4,232.42)" d="M3,0A3,3 0 1,1 0,-3A3,3 0 0,1 3,0Z" style="opacity: 1; stroke-width: 0px; fill: rgb(253, 188, 34); fill-opacity: 0.9;"/><path class="point" transform="translate(98.37,250.95)" d="M3,0A3,3 0 1,1 0,-3A3,3 0 0,1 3,0Z" style="opacity: 1; stroke-width: 0px; fill: rgb(253, 188, 34); fill-opacity: 0.9;"/><path class="point" transform="translate(113.34,242.17)" d="M3,0A3,3 0 1,1 0,-3A3,3 0 0,1 3,0Z" style="opacity: 1; stroke-width: 0px; fill: rgb(253, 188, 34); fill-opacity: 0.9;"/><path class="point" transform="translate(77.78,276.3)" d="M3,0A3,3 0 1,1 0,-3A3,3 0 0,1 3,0Z" style="opacity: 1; stroke-width: 0px; fill: rgb(253, 188, 34); fill-opacity: 0.9;"/><path class="point" transform="translate(102.11,249)" d="M3,0A3,3 0 1,1 0,-3A3,3 0 0,1 3,0Z" style="opacity: 1; stroke-width: 0px; fill: rgb(253, 188, 34); fill-opacity: 0.9;"/><path class="point" transform="translate(79.65,155.4)" d="M3,0A3,3 0 1,1 0,-3A3,3 0 0,1 3,0Z" style="opacity: 1; stroke-width: 0px; fill: rgb(253, 188, 34); fill-opacity: 0.9;"/><path class="point" transform="translate(102.11,218.78)" d="M3,0A3,3 0 1,1 0,-3A3,3 0 0,1 3,0Z" style="opacity: 1; stroke-width: 0px; fill: rgb(253, 188, 34); fill-opacity: 0.9;"/><path class="point" transform="translate(83.39,210)" d="M3,0A3,3 0 1,1 0,-3A3,3 0 0,1 3,0Z" style="opacity: 1; stroke-width: 0px; fill: rgb(253, 188, 34); fill-opacity: 0.9;"/><path class="point" transform="translate(83.39,168.08)" d="M3,0A3,3 0 1,1 0,-3A3,3 0 0,1 3,0Z" style="opacity: 1; stroke-width: 0px; fill: rgb(253, 188, 34); fill-opacity: 0.9;"/><path class="point" transform="translate(87.14,152.48)" d="M3,0A3,3 0 1,1 0,-3A3,3 0 0,1 3,0Z" style="opacity: 1; stroke-width: 0px; fill: rgb(253, 188, 34); fill-opacity: 0.9;"/><path class="point" transform="translate(139.54,142.73)" d="M3,0A3,3 0 1,1 0,-3A3,3 0 0,1 3,0Z" style="opacity: 1; stroke-width: 0px; fill: rgb(253, 188, 34); fill-opacity: 0.9;"/><path class="point" transform="translate(135.8,276.3)" d="M3,0A3,3 0 1,1 0,-3A3,3 0 0,1 3,0Z" style="opacity: 1; stroke-width: 0px; fill: rgb(253, 188, 34); fill-opacity: 0.9;"/><path class="point" transform="translate(92.75,187.58)" d="M3,0A3,3 0 1,1 0,-3A3,3 0 0,1 3,0Z" style="opacity: 1; stroke-width: 0px; fill: rgb(253, 188, 34); fill-opacity: 0.9;"/><path class="point" transform="translate(53.45,117.38)" d="M3,0A3,3 0 1,1 0,-3A3,3 0 0,1 3,0Z" style="opacity: 1; stroke-width: 0px; fill: rgb(253, 188, 34); fill-opacity: 0.9;"/><path class="point" transform="translate(111.47,215.85)" d="M3,0A3,3 0 1,1 0,-3A3,3 0 0,1 3,0Z" style="opacity: 1; stroke-width: 0px; fill: rgb(253, 188, 34); fill-opacity: 0.9;"/><path class="point" transform="translate(132.05,171.97)" d="M3,0A3,3 0 1,1 0,-3A3,3 0 0,1 3,0Z" style="opacity: 1; stroke-width: 0px; fill: rgb(253, 188, 34); fill-opacity: 0.9;"/><path class="point" transform="translate(249.96,195.38)" d="M3,0A3,3 0 1,1 0,-3A3,3 0 0,1 3,0Z" style="opacity: 1; stroke-width: 0px; fill: rgb(253, 188, 34); fill-opacity: 0.9;"/><path class="point" transform="translate(283.65,154.42)" d="M3,0A3,3 0 1,1 0,-3A3,3 0 0,1 3,0Z" style="opacity: 1; stroke-width: 0px; fill: rgb(253, 188, 34); fill-opacity: 0.9;"/><path class="point" transform="translate(244.34,223.65)" d="M3,0A3,3 0 1,1 0,-3A3,3 0 0,1 3,0Z" style="opacity: 1; stroke-width: 0px; fill: rgb(253, 188, 34); fill-opacity: 0.9;"/><path class="point" transform="translate(229.37,192.45)" d="M3,0A3,3 0 1,1 0,-3A3,3 0 0,1 3,0Z" style="opacity: 1; stroke-width: 0px; fill: rgb(253, 188, 34); fill-opacity: 0.9;"/><path class="point" transform="translate(145.15,180.75)" d="M3,0A3,3 0 1,1 0,-3A3,3 0 0,1 3,0Z" style="opacity: 1; stroke-width: 0px; fill: rgb(253, 188, 34); fill-opacity: 0.9;"/><path class="point" transform="translate(98.37,244.13)" d="M3,0A3,3 0 1,1 0,-3A3,3 0 0,1 3,0Z" style="opacity: 1; stroke-width: 0px; fill: rgb(253, 188, 34); fill-opacity: 0.9;"/><path class="point" transform="translate(107.72,186.6)" d="M3,0A3,3 0 1,1 0,-3A3,3 0 0,1 3,0Z" style="opacity: 1; stroke-width: 0px; fill: rgb(253, 188, 34); fill-opacity: 0.9;"/><path class="point" transform="translate(145.15,121.28)" d="M3,0A3,3 0 1,1 0,-3A3,3 0 0,1 3,0Z" style="opacity: 1; stroke-width: 0px; fill: rgb(253, 188, 34); fill-opacity: 0.9;"/><path class="point" transform="translate(98.37,256.8)" d="M3,0A3,3 0 1,1 0,-3A3,3 0 0,1 3,0Z" style="opacity: 1; stroke-width: 0px; fill: rgb(253, 188, 34); fill-opacity: 0.9;"/><path class="point" transform="translate(234.99,72.53)" d="M3,0A3,3 0 1,1 0,-3A3,3 0 0,1 3,0Z" style="opacity: 1; stroke-width: 0px; fill: rgb(253, 188, 34); fill-opacity: 0.9;"/><path class="point" transform="translate(195.69,156.38)" d="M3,0A3,3 0 1,1 0,-3A3,3 0 0,1 3,0Z" style="opacity: 1; stroke-width: 0px; fill: rgb(253, 188, 34); fill-opacity: 0.9;"/><path class="point" transform="translate(162,265.58)" d="M3,0A3,3 0 1,1 0,-3A3,3 0 0,1 3,0Z" style="opacity: 1; stroke-width: 0px; fill: rgb(253, 188, 34); fill-opacity: 0.9;"/><path class="point" transform="translate(94.62,135.9)" d="M3,0A3,3 0 1,1 0,-3A3,3 0 0,1 3,0Z" style="opacity: 1; stroke-width: 0px; fill: rgb(253, 188, 34); fill-opacity: 0.9;"/><path class="point" transform="translate(102.11,217.8)" d="M3,0A3,3 0 1,1 0,-3A3,3 0 0,1 3,0Z" style="opacity: 1; stroke-width: 0px; fill: rgb(253, 188, 34); fill-opacity: 0.9;"/><path class="point" transform="translate(120.82,207.07)" d="M3,0A3,3 0 1,1 0,-3A3,3 0 0,1 3,0Z" style="opacity: 1; stroke-width: 0px; fill: rgb(253, 188, 34); fill-opacity: 0.9;"/><path class="point" transform="translate(117.08,127.13)" d="M3,0A3,3 0 1,1 0,-3A3,3 0 0,1 3,0Z" style="opacity: 1; stroke-width: 0px; fill: rgb(253, 188, 34); fill-opacity: 0.9;"/><path class="point" transform="translate(77.78,132)" d="M3,0A3,3 0 1,1 0,-3A3,3 0 0,1 3,0Z" style="opacity: 1; stroke-width: 0px; fill: rgb(253, 188, 34); fill-opacity: 0.9;"/><path class="point" transform="translate(162,159.3)" d="M3,0A3,3 0 1,1 0,-3A3,3 0 0,1 3,0Z" style="opacity: 1; stroke-width: 0px; fill: rgb(253, 188, 34); fill-opacity: 0.9;"/><path class="point" transform="translate(113.34,220.72)" d="M3,0A3,3 0 1,1 0,-3A3,3 0 0,1 3,0Z" style="opacity: 1; stroke-width: 0px; fill: rgb(253, 188, 34); fill-opacity: 0.9;"/><path class="point" transform="translate(147.03,146.63)" d="M3,0A3,3 0 1,1 0,-3A3,3 0 0,1 3,0Z" style="opacity: 1; stroke-width: 0px; fill: rgb(253, 188, 34); fill-opacity: 0.9;"/><path class="point" transform="translate(169.48,164.17)" d="M3,0A3,3 0 1,1 0,-3A3,3 0 0,1 3,0Z" style="opacity: 1; stroke-width: 0px; fill: rgb(253, 188, 34); fill-opacity: 0.9;"/><path class="point" transform="translate(81.52,281.17)" d="M3,0A3,3 0 1,1 0,-3A3,3 0 0,1 3,0Z" style="opacity: 1; stroke-width: 0px; fill: rgb(253, 188, 34); fill-opacity: 0.9;"/><path class="point" transform="translate(85.27,225.6)" d="M3,0A3,3 0 1,1 0,-3A3,3 0 0,1 3,0Z" style="opacity: 1; stroke-width: 0px; fill: rgb(253, 188, 34); fill-opacity: 0.9;"/><path class="point" transform="translate(120.82,90.08)" d="M3,0A3,3 0 1,1 0,-3A3,3 0 0,1 3,0Z" style="opacity: 1; stroke-width: 0px; fill: rgb(253, 188, 34); fill-opacity: 0.9;"/><path class="point" transform="translate(103.98,133.95)" d="M3,0A3,3 0 1,1 0,-3A3,3 0 0,1 3,0Z" style="opacity: 1; stroke-width: 0px; fill: rgb(253, 188, 34); fill-opacity: 0.9;"/><path class="point" transform="translate(130.18,164.17)" d="M3,0A3,3 0 1,1 0,-3A3,3 0 0,1 3,0Z" style="opacity: 1; stroke-width: 0px; fill: rgb(253, 188, 34); fill-opacity: 0.9;"/><path class="point" transform="translate(118.95,176.85)" d="M3,0A3,3 0 1,1 0,-3A3,3 0 0,1 3,0Z" style="opacity: 1; stroke-width: 0px; fill: rgb(253, 188, 34); fill-opacity: 0.9;"/><path class="point" transform="translate(117.08,186.6)" d="M3,0A3,3 0 1,1 0,-3A3,3 0 0,1 3,0Z" style="opacity: 1; stroke-width: 0px; fill: rgb(253, 188, 34); fill-opacity: 0.9;"/><path class="point" transform="translate(132.05,93)" d="M3,0A3,3 0 1,1 0,-3A3,3 0 0,1 3,0Z" style="opacity: 1; stroke-width: 0px; fill: rgb(253, 188, 34); fill-opacity: 0.9;"/></g><g class="text"/></g></g></g><g class="overplot"/><path class="xlines-above crisp" d="M0,0" style="fill: none;"/><path class="ylines-above crisp" d="M0,0" style="fill: none;"/><g class="overlines-above"/><g class="xaxislayer-above"><g class="xtick"><text text-anchor="middle" x="0" y="533" transform="translate(256.97,0)" style="font-family: 'Open Sans', verdana, arial, sans-serif; font-size: 12px; fill: rgb(42, 63, 95); fill-opacity: 1; white-space: pre;">1</text></g><g class="xtick"><text text-anchor="middle" x="0" y="533" transform="translate(444.12,0)" style="font-family: 'Open Sans', verdana, arial, sans-serif; font-size: 12px; fill: rgb(42, 63, 95); fill-opacity: 1; white-space: pre;">2</text></g><g class="xtick"><text text-anchor="middle" x="0" y="533" transform="translate(631.27,0)" style="font-family: 'Open Sans', verdana, arial, sans-serif; font-size: 12px; fill: rgb(42, 63, 95); fill-opacity: 1; white-space: pre;">3</text></g><g class="xtick"><text text-anchor="middle" x="0" y="533" transform="translate(818.43,0)" style="font-family: 'Open Sans', verdana, arial, sans-serif; font-size: 12px; fill: rgb(42, 63, 95); fill-opacity: 1; white-space: pre;">4</text></g><g class="xtick"><text text-anchor="middle" x="0" y="533" transform="translate(1005.58,0)" style="font-family: 'Open Sans', verdana, arial, sans-serif; font-size: 12px; fill: rgb(42, 63, 95); fill-opacity: 1; white-space: pre;">5</text></g></g><g class="yaxislayer-above"><g class="ytick"><text text-anchor="end" x="79" y="4.199999999999999" transform="translate(0,498.17)" style="font-family: 'Open Sans', verdana, arial, sans-serif; font-size: 12px; fill: rgb(42, 63, 95); fill-opacity: 1; white-space: pre;">11</text></g><g class="ytick"><text text-anchor="end" x="79" y="4.199999999999999" transform="translate(0,449.42)" style="font-family: 'Open Sans', verdana, arial, sans-serif; font-size: 12px; fill: rgb(42, 63, 95); fill-opacity: 1; white-space: pre;">11.5</text></g><g class="ytick"><text text-anchor="end" x="79" y="4.199999999999999" transform="translate(0,400.67)" style="font-family: 'Open Sans', verdana, arial, sans-serif; font-size: 12px; fill: rgb(42, 63, 95); fill-opacity: 1; white-space: pre;">12</text></g><g class="ytick"><text text-anchor="end" x="79" y="4.199999999999999" transform="translate(0,351.91999999999996)" style="font-family: 'Open Sans', verdana, arial, sans-serif; font-size: 12px; fill: rgb(42, 63, 95); fill-opacity: 1; white-space: pre;">12.5</text></g><g class="ytick"><text text-anchor="end" x="79" y="4.199999999999999" transform="translate(0,303.16999999999996)" style="font-family: 'Open Sans', verdana, arial, sans-serif; font-size: 12px; fill: rgb(42, 63, 95); fill-opacity: 1; white-space: pre;">13</text></g><g class="ytick"><text text-anchor="end" x="79" y="4.199999999999999" transform="translate(0,254.42)" style="font-family: 'Open Sans', verdana, arial, sans-serif; font-size: 12px; fill: rgb(42, 63, 95); fill-opacity: 1; white-space: pre;">13.5</text></g><g class="ytick"><text text-anchor="end" x="79" y="4.199999999999999" transform="translate(0,205.68)" style="font-family: 'Open Sans', verdana, arial, sans-serif; font-size: 12px; fill: rgb(42, 63, 95); fill-opacity: 1; white-space: pre;">14</text></g><g class="ytick"><text text-anchor="end" x="79" y="4.199999999999999" transform="translate(0,156.93)" style="font-family: 'Open Sans', verdana, arial, sans-serif; font-size: 12px; fill: rgb(42, 63, 95); fill-opacity: 1; white-space: pre;">14.5</text></g><g class="ytick"><text text-anchor="end" x="79" y="4.199999999999999" transform="translate(0,108.18)" style="font-family: 'Open Sans', verdana, arial, sans-serif; font-size: 12px; fill: rgb(42, 63, 95); fill-opacity: 1; white-space: pre;">15</text></g></g><g class="overaxes-above"/></g></g><g class="polarlayer"/><g class="ternarylayer"/><g class="geolayer"/><g class="funnelarealayer"/><g class="pielayer"/><g class="treemaplayer"/><g class="sunburstlayer"/><g class="glimages"/><defs id="topdefs-1c2c81"><g class="clips"/><clipPath id="legend1c2c81"><rect width="94" height="48" x="0" y="0"/></clipPath></defs><g class="layer-above"><g class="imagelayer"/><g class="shapelayer"/></g><g class="infolayer"><g class="legend" pointer-events="all" transform="translate(1093.88,100)"><rect class="bg" shape-rendering="crispEdges" width="94" height="48" x="0" y="0" style="stroke: rgb(68, 68, 68); stroke-opacity: 1; fill: rgb(255, 255, 255); fill-opacity: 1; stroke-width: 0px;"/><g class="scrollbox" transform="" clip-path="url('#legend1c2c81')"><g class="groups"><g class="traces" transform="translate(0,14.5)" style="opacity: 1;"><text class="legendtext" text-anchor="start" x="40" y="4.680000000000001" style="font-family: 'Open Sans', verdana, arial, sans-serif; font-size: 12px; fill: rgb(42, 63, 95); fill-opacity: 1; white-space: pre;">Class: 1</text><g class="layers" style="opacity: 1;"><g class="legendfill"/><g class="legendlines"/><g class="legendsymbols"><g class="legendpoints"><path class="scatterpts" transform="translate(20,0)" d="M3,0A3,3 0 1,1 0,-3A3,3 0 0,1 3,0Z" style="opacity: 1; stroke-width: 0px; fill: rgb(2, 21, 51); fill-opacity: 0.9;"/></g></g></g><rect class="legendtoggle" x="0" y="-9.5" width="88.6875" height="19" style="fill: rgb(0, 0, 0); fill-opacity: 0;"/></g><g class="traces" transform="translate(0,33.5)" style="opacity: 1;"><text class="legendtext" text-anchor="start" x="40" y="4.680000000000001" style="font-family: 'Open Sans', verdana, arial, sans-serif; font-size: 12px; fill: rgb(42, 63, 95); fill-opacity: 1; white-space: pre;">Class: 0</text><g class="layers" style="opacity: 1;"><g class="legendfill"/><g class="legendlines"/><g class="legendsymbols"><g class="legendpoints"><path class="scatterpts" transform="translate(20,0)" d="M3,0A3,3 0 1,1 0,-3A3,3 0 0,1 3,0Z" style="opacity: 1; stroke-width: 0px; fill: rgb(253, 188, 34); fill-opacity: 0.9;"/></g></g></g><rect class="legendtoggle" x="0" y="-9.5" width="88.6875" height="19" style="fill: rgb(0, 0, 0); fill-opacity: 0;"/></g></g></g><rect class="scrollbar" rx="20" ry="3" width="0" height="0" x="0" y="0" style="fill: rgb(128, 139, 164); fill-opacity: 1;"/></g><g class="g-gtitle"><text class="gtitle" x="60" y="50" text-anchor="start" dy="0em" style="font-family: 'Open Sans', verdana, arial, sans-serif; font-size: 17px; fill: rgb(42, 63, 95); opacity: 1; font-weight: normal; white-space: pre;">Scatter of Wine</text></g><g class="g-xtitle"><text class="xtitle" x="577" y="560.3" text-anchor="middle" style="font-family: 'Open Sans', verdana, arial, sans-serif; font-size: 14px; fill: rgb(42, 63, 95); opacity: 1; font-weight: normal; white-space: pre;">Flavanoids</text></g><g class="g-ytitle"><text class="ytitle" transform="rotate(-90,26.934375000000003,310)" x="26.934375000000003" y="310" text-anchor="middle" style="font-family: 'Open Sans', verdana, arial, sans-serif; font-size: 14px; fill: rgb(42, 63, 95); opacity: 1; font-weight: normal; white-space: pre;">Alcohol</text></g></g></svg>