<svg class="main-svg" xmlns="http://www.w3.org/2000/svg" xmlns:xlink="http://www.w3.org/1999/xlink" width="1200" height="600" style="" viewBox="0 0 1200 600"><rect x="0" y="0" width="1200" height="600" style="fill: rgb(255, 255, 255); fill-opacity: 1;"/><defs id="defs-d6da39"><g class="clips"><clipPath id="clipd6da39xyplot" class="plotclip"><rect width="994" height="420"/></clipPath><clipPath class="axesclip" id="clipd6da39x"><rect x="80" y="0" width="994" height="600"/></clipPath><clipPath class="axesclip" id="clipd6da39y"><rect x="0" y="100" width="1200" height="420"/></clipPath><clipPath class="axesclip" id="clipd6da39xy"><rect x="80" y="100" width="994" height="420"/></clipPath></g><g class="gradients"/></defs><g class="bglayer"/><g class="layer-below"><g class="imagelayer"/><g class="shapelayer"/></g><g class="cartesianlayer"><g class="subplot xy"><g class="layer-subplot"><g class="shapelayer"/><g class="imagelayer"/></g><g class="gridlayer"><g class="x"><path class="xgrid crisp" transform="translate(106.01,0)" d="M0,100v420" style="stroke: rgb(235, 240, 248); stroke-opacity: 1; stroke-width: 1px;"/><path class="xgrid crisp" transform="translate(334.65,0)" d="M0,100v420" style="stroke: rgb(235, 240, 248); stroke-opacity: 1; stroke-width: 1px;"/><path class="xgrid crisp" transform="translate(563.28,0)" d="M0,100v420" style="stroke: rgb(235, 240, 248); stroke-opacity: 1; stroke-width: 1px;"/><path class="xgrid crisp" transform="translate(791.92,0)" d="M0,100v420" style="stroke: rgb(235, 240, 248); stroke-opacity: 1; stroke-width: 1px;"/><path class="xgrid crisp" transform="translate(1020.55,0)" d="M0,100v420" style="stroke: rgb(235, 240, 248); stroke-opacity: 1; stroke-width: 1px;"/></g><g class="y"><path class="ygrid crisp" transform="translate(0,467.51)" d="M80,0h994" style="stroke: rgb(235, 240, 248); stroke-opacity: 1; stroke-width: 1px;"/><path class="ygrid crisp" transform="translate(0,368.45)" d="M80,0h994" style="stroke: rgb(235, 240, 248); stroke-opacity: 1; stroke-width: 1px;"/><path class="ygrid crisp" transform="translate(0,269.38)" d="M80,0h994" style="stroke: rgb(235, 240, 248); stroke-opacity: 1; stroke-width: 1px;"/><path class="ygrid crisp" transform="translate(0,170.32)" d="M80,0h994" style="stroke: rgb(235, 240, 248); stroke-opacity: 1; stroke-width: 1px;"/></g></g><g class="zerolinelayer"/><path class="xlines-below"/><path class="ylines-below"/><g class="overlines-below"/><g class="xaxislayer-below"/><g class="yaxislayer-below"/><g class="overaxes-below"/><g class="plot" transform="translate(80,100)" clip-path="url('#clipd6da39xyplot')"><g class="scatterlayer mlayer"><g class="trace scatter traceca7ded" style="stroke-miterlimit: 2; opacity: 1;"><g class="fills"/><g class="errorbars"/><g class="lines"/><g class="points"><path class="point" transform="translate(282.08,183.25)" d="M3,0A3,3 0 1,1 0,-3A3,3 0 0,1 3,0Z" style="opacity: 1; stroke-width: 0px; fill: rgb(2, 21, 51); fill-opacity: 0.9;"/><path class="point" transform="translate(80.89,240.71)" d="M3,0A3,3 0 1,1 0,-3A3,3 0 0,1 3,0Z" style="opacity: 1; stroke-width: 0px; fill: rgb(2, 21, 51); fill-opacity: 0.9;"/><path class="point" transform="translate(419.26,135.7)" d="M3,0A3,3 0 1,1 0,-3A3,3 0 0,1 3,0Z" style="opacity: 1; stroke-width: 0px; fill: rgb(2, 21, 51); fill-opacity: 0.9;"/><path class="point" transform="translate(336.96,169.38)" d="M3,0A3,3 0 1,1 0,-3A3,3 0 0,1 3,0Z" style="opacity: 1; stroke-width: 0px; fill: rgb(2, 21, 51); fill-opacity: 0.9;"/><path class="point" transform="translate(529.01,96.08)" d="M3,0A3,3 0 1,1 0,-3A3,3 0 0,1 3,0Z" style="opacity: 1; stroke-width: 0px; fill: rgb(2, 21, 51); fill-opacity: 0.9;"/><path class="point" transform="translate(263.79,179.29)" d="M3,0A3,3 0 1,1 0,-3A3,3 0 0,1 3,0Z" style="opacity: 1; stroke-width: 0px; fill: rgb(2, 21, 51); fill-opacity: 0.9;"/><path class="point" transform="translate(236.36,179.29)" d="M3,0A3,3 0 1,1 0,-3A3,3 0 0,1 3,0Z" style="opacity: 1; stroke-width: 0px; fill: rgb(2, 21, 51); fill-opacity: 0.9;"/><path class="point" transform="translate(373.54,147.59)" d="M3,0A3,3 0 1,1 0,-3A3,3 0 0,1 3,0Z" style="opacity: 1; stroke-width: 0px; fill: rgb(2, 21, 51); fill-opacity: 0.9;"/><path class="point" transform="translate(208.92,234.77)" d="M3,0A3,3 0 1,1 0,-3A3,3 0 0,1 3,0Z" style="opacity: 1; stroke-width: 0px; fill: rgb(2, 21, 51); fill-opacity: 0.9;"/><path class="point" transform="translate(300.37,214.95)" d="M3,0A3,3 0 1,1 0,-3A3,3 0 0,1 3,0Z" style="opacity: 1; stroke-width: 0px; fill: rgb(2, 21, 51); fill-opacity: 0.9;"/><path class="point" transform="translate(391.83,209.01)" d="M3,0A3,3 0 1,1 0,-3A3,3 0 0,1 3,0Z" style="opacity: 1; stroke-width: 0px; fill: rgb(2, 21, 51); fill-opacity: 0.9;"/><path class="point" transform="translate(336.96,205.05)" d="M3,0A3,3 0 1,1 0,-3A3,3 0 0,1 3,0Z" style="opacity: 1; stroke-width: 0px; fill: rgb(2, 21, 51); fill-opacity: 0.9;"/><path class="point" transform="translate(300.37,187.22)" d="M3,0A3,3 0 1,1 0,-3A3,3 0 0,1 3,0Z" style="opacity: 1; stroke-width: 0px; fill: rgb(2, 21, 51); fill-opacity: 0.9;"/><path class="point" transform="translate(90.03,191.18)" d="M3,0A3,3 0 1,1 0,-3A3,3 0 0,1 3,0Z" style="opacity: 1; stroke-width: 0px; fill: rgb(2, 21, 51); fill-opacity: 0.9;"/><path class="point" transform="translate(117.47,193.16)" d="M3,0A3,3 0 1,1 0,-3A3,3 0 0,1 3,0Z" style="opacity: 1; stroke-width: 0px; fill: rgb(2, 21, 51); fill-opacity: 0.9;"/><path class="point" transform="translate(355.25,129.76)" d="M3,0A3,3 0 1,1 0,-3A3,3 0 0,1 3,0Z" style="opacity: 1; stroke-width: 0px; fill: rgb(2, 21, 51); fill-opacity: 0.9;"/><path class="point" transform="translate(483.28,125.8)" d="M3,0A3,3 0 1,1 0,-3A3,3 0 0,1 3,0Z" style="opacity: 1; stroke-width: 0px; fill: rgb(2, 21, 51); fill-opacity: 0.9;"/><path class="point" transform="translate(483.28,145.61)" d="M3,0A3,3 0 1,1 0,-3A3,3 0 0,1 3,0Z" style="opacity: 1; stroke-width: 0px; fill: rgb(2, 21, 51); fill-opacity: 0.9;"/><path class="point" transform="translate(323.24,173.35)" d="M3,0A3,3 0 1,1 0,-3A3,3 0 0,1 3,0Z" style="opacity: 1; stroke-width: 0px; fill: rgb(2, 21, 51); fill-opacity: 0.9;"/><path class="point" transform="translate(263.79,157.5)" d="M3,0A3,3 0 1,1 0,-3A3,3 0 0,1 3,0Z" style="opacity: 1; stroke-width: 0px; fill: rgb(2, 21, 51); fill-opacity: 0.9;"/><path class="point" transform="translate(300.37,212.97)" d="M3,0A3,3 0 1,1 0,-3A3,3 0 0,1 3,0Z" style="opacity: 1; stroke-width: 0px; fill: rgb(2, 21, 51); fill-opacity: 0.9;"/><path class="point" transform="translate(419.26,139.66)" d="M3,0A3,3 0 1,1 0,-3A3,3 0 0,1 3,0Z" style="opacity: 1; stroke-width: 0px; fill: rgb(2, 21, 51); fill-opacity: 0.9;"/><path class="point" transform="translate(327.81,197.12)" d="M3,0A3,3 0 1,1 0,-3A3,3 0 0,1 3,0Z" style="opacity: 1; stroke-width: 0px; fill: rgb(2, 21, 51); fill-opacity: 0.9;"/><path class="point" transform="translate(382.68,165.42)" d="M3,0A3,3 0 1,1 0,-3A3,3 0 0,1 3,0Z" style="opacity: 1; stroke-width: 0px; fill: rgb(2, 21, 51); fill-opacity: 0.9;"/><path class="point" transform="translate(483.28,147.59)" d="M3,0A3,3 0 1,1 0,-3A3,3 0 0,1 3,0Z" style="opacity: 1; stroke-width: 0px; fill: rgb(2, 21, 51); fill-opacity: 0.9;"/><path class="point" transform="translate(711.92,26.73)" d="M3,0A3,3 0 1,1 0,-3A3,3 0 0,1 3,0Z" style="opacity: 1; stroke-width: 0px; fill: rgb(2, 21, 51); fill-opacity: 0.9;"/><path class="point" transform="translate(304.95,145.61)" d="M3,0A3,3 0 1,1 0,-3A3,3 0 0,1 3,0Z" style="opacity: 1; stroke-width: 0px; fill: rgb(2, 21, 51); fill-opacity: 0.9;"/><path class="point" transform="translate(346.1,240.71)" d="M3,0A3,3 0 1,1 0,-3A3,3 0 0,1 3,0Z" style="opacity: 1; stroke-width: 0px; fill: rgb(2, 21, 51); fill-opacity: 0.9;"/><path class="point" transform="translate(455.85,109.95)" d="M3,0A3,3 0 1,1 0,-3A3,3 0 0,1 3,0Z" style="opacity: 1; stroke-width: 0px; fill: rgb(2, 21, 51); fill-opacity: 0.9;"/><path class="point" transform="translate(300.37,226.84)" d="M3,0A3,3 0 1,1 0,-3A3,3 0 0,1 3,0Z" style="opacity: 1; stroke-width: 0px; fill: rgb(2, 21, 51); fill-opacity: 0.9;"/><path class="point" transform="translate(597.6,129.76)" d="M3,0A3,3 0 1,1 0,-3A3,3 0 0,1 3,0Z" style="opacity: 1; stroke-width: 0px; fill: rgb(2, 21, 51); fill-opacity: 0.9;"/><path class="point" transform="translate(442.13,197.12)" d="M3,0A3,3 0 1,1 0,-3A3,3 0 0,1 3,0Z" style="opacity: 1; stroke-width: 0px; fill: rgb(2, 21, 51); fill-opacity: 0.9;"/><path class="point" transform="translate(355.25,197.12)" d="M3,0A3,3 0 1,1 0,-3A3,3 0 0,1 3,0Z" style="opacity: 1; stroke-width: 0px; fill: rgb(2, 21, 51); fill-opacity: 0.9;"/><path class="point" transform="translate(460.42,129.76)" d="M3,0A3,3 0 1,1 0,-3A3,3 0 0,1 3,0Z" style="opacity: 1; stroke-width: 0px; fill: rgb(2, 21, 51); fill-opacity: 0.9;"/><path class="point" transform="translate(437.56,139.66)" d="M3,0A3,3 0 1,1 0,-3A3,3 0 0,1 3,0Z" style="opacity: 1; stroke-width: 0px; fill: rgb(2, 21, 51); fill-opacity: 0.9;"/><path class="point" transform="translate(506.15,187.22)" d="M3,0A3,3 0 1,1 0,-3A3,3 0 0,1 3,0Z" style="opacity: 1; stroke-width: 0px; fill: rgb(2, 21, 51); fill-opacity: 0.9;"/><path class="point" transform="translate(277.51,102.02)" d="M3,0A3,3 0 1,1 0,-3A3,3 0 0,1 3,0Z" style="opacity: 1; stroke-width: 0px; fill: rgb(2, 21, 51); fill-opacity: 0.9;"/><path class="point" transform="translate(391.83,159.48)" d="M3,0A3,3 0 1,1 0,-3A3,3 0 0,1 3,0Z" style="opacity: 1; stroke-width: 0px; fill: rgb(2, 21, 51); fill-opacity: 0.9;"/><path class="point" transform="translate(277.51,248.64)" d="M3,0A3,3 0 1,1 0,-3A3,3 0 0,1 3,0Z" style="opacity: 1; stroke-width: 0px; fill: rgb(2, 21, 51); fill-opacity: 0.9;"/><path class="point" transform="translate(172.34,167.4)" d="M3,0A3,3 0 1,1 0,-3A3,3 0 0,1 3,0Z" style="opacity: 1; stroke-width: 0px; fill: rgb(2, 21, 51); fill-opacity: 0.9;"/><path class="point" transform="translate(309.52,207.03)" d="M3,0A3,3 0 1,1 0,-3A3,3 0 0,1 3,0Z" style="opacity: 1; stroke-width: 0px; fill: rgb(2, 21, 51); fill-opacity: 0.9;"/><path class="point" transform="translate(428.41,244.67)" d="M3,0A3,3 0 1,1 0,-3A3,3 0 0,1 3,0Z" style="opacity: 1; stroke-width: 0px; fill: rgb(2, 21, 51); fill-opacity: 0.9;"/><path class="point" transform="translate(254.65,151.55)" d="M3,0A3,3 0 1,1 0,-3A3,3 0 0,1 3,0Z" style="opacity: 1; stroke-width: 0px; fill: rgb(2, 21, 51); fill-opacity: 0.9;"/><path class="point" transform="translate(368.96,210.99)" d="M3,0A3,3 0 1,1 0,-3A3,3 0 0,1 3,0Z" style="opacity: 1; stroke-width: 0px; fill: rgb(2, 21, 51); fill-opacity: 0.9;"/><path class="point" transform="translate(346.1,248.64)" d="M3,0A3,3 0 1,1 0,-3A3,3 0 0,1 3,0Z" style="opacity: 1; stroke-width: 0px; fill: rgb(2, 21, 51); fill-opacity: 0.9;"/><path class="point" transform="translate(432.98,181.27)" d="M3,0A3,3 0 1,1 0,-3A3,3 0 0,1 3,0Z" style="opacity: 1; stroke-width: 0px; fill: rgb(2, 21, 51); fill-opacity: 0.9;"/><path class="point" transform="translate(300.37,212.97)" d="M3,0A3,3 0 1,1 0,-3A3,3 0 0,1 3,0Z" style="opacity: 1; stroke-width: 0px; fill: rgb(2, 21, 51); fill-opacity: 0.9;"/><path class="point" transform="translate(300.37,244.67)" d="M3,0A3,3 0 1,1 0,-3A3,3 0 0,1 3,0Z" style="opacity: 1; stroke-width: 0px; fill: rgb(2, 21, 51); fill-opacity: 0.9;"/><path class="point" transform="translate(428.41,189.2)" d="M3,0A3,3 0 1,1 0,-3A3,3 0 0,1 3,0Z" style="opacity: 1; stroke-width: 0px; fill: rgb(2, 21, 51); fill-opacity: 0.9;"/><path class="point" transform="translate(364.39,214.95)" d="M3,0A3,3 0 1,1 0,-3A3,3 0 0,1 3,0Z" style="opacity: 1; stroke-width: 0px; fill: rgb(2, 21, 51); fill-opacity: 0.9;"/><path class="point" transform="translate(135.76,260.52)" d="M3,0A3,3 0 1,1 0,-3A3,3 0 0,1 3,0Z" style="opacity: 1; stroke-width: 0px; fill: rgb(2, 21, 51); fill-opacity: 0.9;"/><path class="point" transform="translate(355.25,149.57)" d="M3,0A3,3 0 1,1 0,-3A3,3 0 0,1 3,0Z" style="opacity: 1; stroke-width: 0px; fill: rgb(2, 21, 51); fill-opacity: 0.9;"/><path class="point" transform="translate(208.92,185.23)" d="M3,0A3,3 0 1,1 0,-3A3,3 0 0,1 3,0Z" style="opacity: 1; stroke-width: 0px; fill: rgb(2, 21, 51); fill-opacity: 0.9;"/><path class="point" transform="translate(350.67,133.72)" d="M3,0A3,3 0 1,1 0,-3A3,3 0 0,1 3,0Z" style="opacity: 1; stroke-width: 0px; fill: rgb(2, 21, 51); fill-opacity: 0.9;"/><path class="point" transform="translate(318.67,218.92)" d="M3,0A3,3 0 1,1 0,-3A3,3 0 0,1 3,0Z" style="opacity: 1; stroke-width: 0px; fill: rgb(2, 21, 51); fill-opacity: 0.9;"/><path class="point" transform="translate(506.15,177.31)" d="M3,0A3,3 0 1,1 0,-3A3,3 0 0,1 3,0Z" style="opacity: 1; stroke-width: 0px; fill: rgb(2, 21, 51); fill-opacity: 0.9;"/><path class="point" transform="translate(314.09,209.01)" d="M3,0A3,3 0 1,1 0,-3A3,3 0 0,1 3,0Z" style="opacity: 1; stroke-width: 0px; fill: rgb(2, 21, 51); fill-opacity: 0.9;"/><path class="point" transform="translate(336.96,133.72)" d="M3,0A3,3 0 1,1 0,-3A3,3 0 0,1 3,0Z" style="opacity: 1; stroke-width: 0px; fill: rgb(2, 21, 51); fill-opacity: 0.9;"/><path class="point" transform="translate(332.38,169.38)" d="M3,0A3,3 0 1,1 0,-3A3,3 0 0,1 3,0Z" style="opacity: 1; stroke-width: 0px; fill: rgb(2, 21, 51); fill-opacity: 0.9;"/></g><g class="text"/></g><g class="trace scatter tracee1f807" style="stroke-miterlimit: 2; opacity: 1;"><g class="fills"/><g class="errorbars"/><g class="lines"/><g class="points"><path class="point" transform="translate(53.45,395.25)" d="M3,0A3,3 0 1,1 0,-3A3,3 0 0,1 3,0Z" style="opacity: 1; stroke-width: 0px; fill: rgb(253, 188, 34); fill-opacity: 0.9;"/><path class="point" transform="translate(300.37,212.97)" d="M3,0A3,3 0 1,1 0,-3A3,3 0 0,1 3,0Z" style="opacity: 1; stroke-width: 0px; fill: rgb(253, 188, 34); fill-opacity: 0.9;"/><path class="point" transform="translate(336.96,264.49)" d="M3,0A3,3 0 1,1 0,-3A3,3 0 0,1 3,0Z" style="opacity: 1; stroke-width: 0px; fill: rgb(253, 188, 34); fill-opacity: 0.9;"/><path class="point" transform="translate(391.83,284.3)" d="M3,0A3,3 0 1,1 0,-3A3,3 0 0,1 3,0Z" style="opacity: 1; stroke-width: 0px; fill: rgb(253, 188, 34); fill-opacity: 0.9;"/><path class="point" transform="translate(437.56,236.75)" d="M3,0A3,3 0 1,1 0,-3A3,3 0 0,1 3,0Z" style="opacity: 1; stroke-width: 0px; fill: rgb(253, 188, 34); fill-opacity: 0.9;"/><path class="point" transform="translate(437.56,163.44)" d="M3,0A3,3 0 1,1 0,-3A3,3 0 0,1 3,0Z" style="opacity: 1; stroke-width: 0px; fill: rgb(253, 188, 34); fill-opacity: 0.9;"/><path class="point" transform="translate(396.4,157.5)" d="M3,0A3,3 0 1,1 0,-3A3,3 0 0,1 3,0Z" style="opacity: 1; stroke-width: 0px; fill: rgb(253, 188, 34); fill-opacity: 0.9;"/><path class="point" transform="translate(254.65,327.89)" d="M3,0A3,3 0 1,1 0,-3A3,3 0 0,1 3,0Z" style="opacity: 1; stroke-width: 0px; fill: rgb(253, 188, 34); fill-opacity: 0.9;"/><path class="point" transform="translate(464.99,284.3)" d="M3,0A3,3 0 1,1 0,-3A3,3 0 0,1 3,0Z" style="opacity: 1; stroke-width: 0px; fill: rgb(253, 188, 34); fill-opacity: 0.9;"/><path class="point" transform="translate(346.1,197.12)" d="M3,0A3,3 0 1,1 0,-3A3,3 0 0,1 3,0Z" style="opacity: 1; stroke-width: 0px; fill: rgb(253, 188, 34); fill-opacity: 0.9;"/><path class="point" transform="translate(336.96,317.98)" d="M3,0A3,3 0 1,1 0,-3A3,3 0 0,1 3,0Z" style="opacity: 1; stroke-width: 0px; fill: rgb(253, 188, 34); fill-opacity: 0.9;"/><path class="point" transform="translate(501.57,226.84)" d="M3,0A3,3 0 1,1 0,-3A3,3 0 0,1 3,0Z" style="opacity: 1; stroke-width: 0px; fill: rgb(253, 188, 34); fill-opacity: 0.9;"/><path class="point" transform="translate(711.92,135.7)" d="M3,0A3,3 0 1,1 0,-3A3,3 0 0,1 3,0Z" style="opacity: 1; stroke-width: 0px; fill: rgb(253, 188, 34); fill-opacity: 0.9;"/><path class="point" transform="translate(666.19,220.9)" d="M3,0A3,3 0 1,1 0,-3A3,3 0 0,1 3,0Z" style="opacity: 1; stroke-width: 0px; fill: rgb(253, 188, 34); fill-opacity: 0.9;"/><path class="point" transform="translate(940.55,149.57)" d="M3,0A3,3 0 1,1 0,-3A3,3 0 0,1 3,0Z" style="opacity: 1; stroke-width: 0px; fill: rgb(253, 188, 34); fill-opacity: 0.9;"/><path class="point" transform="translate(529.01,209.01)" d="M3,0A3,3 0 1,1 0,-3A3,3 0 0,1 3,0Z" style="opacity: 1; stroke-width: 0px; fill: rgb(253, 188, 34); fill-opacity: 0.9;"/><path class="point" transform="translate(300.37,284.3)" d="M3,0A3,3 0 1,1 0,-3A3,3 0 0,1 3,0Z" style="opacity: 1; stroke-width: 0px; fill: rgb(253, 188, 34); fill-opacity: 0.9;"/><path class="point" transform="translate(300.37,325.91)" d="M3,0A3,3 0 1,1 0,-3A3,3 0 0,1 3,0Z" style="opacity: 1; stroke-width: 0px; fill: rgb(253, 188, 34); fill-opacity: 0.9;"/><path class="point" transform="translate(391.83,222.88)" d="M3,0A3,3 0 1,1 0,-3A3,3 0 0,1 3,0Z" style="opacity: 1; stroke-width: 0px; fill: rgb(253, 188, 34); fill-opacity: 0.9;"/><path class="point" transform="translate(245.5,278.35)" d="M3,0A3,3 0 1,1 0,-3A3,3 0 0,1 3,0Z" style="opacity: 1; stroke-width: 0px; fill: rgb(253, 188, 34); fill-opacity: 0.9;"/><path class="point" transform="translate(620.46,189.2)" d="M3,0A3,3 0 1,1 0,-3A3,3 0 0,1 3,0Z" style="opacity: 1; stroke-width: 0px; fill: rgb(253, 188, 34); fill-opacity: 0.9;"/><path class="point" transform="translate(437.56,268.45)" d="M3,0A3,3 0 1,1 0,-3A3,3 0 0,1 3,0Z" style="opacity: 1; stroke-width: 0px; fill: rgb(253, 188, 34); fill-opacity: 0.9;"/><path class="point" transform="translate(428.41,228.82)" d="M3,0A3,3 0 1,1 0,-3A3,3 0 0,1 3,0Z" style="opacity: 1; stroke-width: 0px; fill: rgb(253, 188, 34); fill-opacity: 0.9;"/><path class="point" transform="translate(666.19,167.4)" d="M3,0A3,3 0 1,1 0,-3A3,3 0 0,1 3,0Z" style="opacity: 1; stroke-width: 0px; fill: rgb(253, 188, 34); fill-opacity: 0.9;"/><path class="point" transform="translate(597.6,205.05)" d="M3,0A3,3 0 1,1 0,-3A3,3 0 0,1 3,0Z" style="opacity: 1; stroke-width: 0px; fill: rgb(253, 188, 34); fill-opacity: 0.9;"/><path class="point" transform="translate(391.83,153.53)" d="M3,0A3,3 0 1,1 0,-3A3,3 0 0,1 3,0Z" style="opacity: 1; stroke-width: 0px; fill: rgb(253, 188, 34); fill-opacity: 0.9;"/><path class="point" transform="translate(391.83,220.9)" d="M3,0A3,3 0 1,1 0,-3A3,3 0 0,1 3,0Z" style="opacity: 1; stroke-width: 0px; fill: rgb(253, 188, 34); fill-opacity: 0.9;"/><path class="point" transform="translate(611.32,207.03)" d="M3,0A3,3 0 1,1 0,-3A3,3 0 0,1 3,0Z" style="opacity: 1; stroke-width: 0px; fill: rgb(253, 188, 34); fill-opacity: 0.9;"/><path class="point" transform="translate(757.64,145.61)" d="M3,0A3,3 0 1,1 0,-3A3,3 0 0,1 3,0Z" style="opacity: 1; stroke-width: 0px; fill: rgb(253, 188, 34); fill-opacity: 0.9;"/><path class="point" transform="translate(556.44,177.31)" d="M3,0A3,3 0 1,1 0,-3A3,3 0 0,1 3,0Z" style="opacity: 1; stroke-width: 0px; fill: rgb(253, 188, 34); fill-opacity: 0.9;"/><path class="point" transform="translate(647.9,209.01)" d="M3,0A3,3 0 1,1 0,-3A3,3 0 0,1 3,0Z" style="opacity: 1; stroke-width: 0px; fill: rgb(253, 188, 34); fill-opacity: 0.9;"/><path class="point" transform="translate(414.69,205.05)" d="M3,0A3,3 0 1,1 0,-3A3,3 0 0,1 3,0Z" style="opacity: 1; stroke-width: 0px; fill: rgb(253, 188, 34); fill-opacity: 0.9;"/><path class="point" transform="translate(574.74,185.23)" d="M3,0A3,3 0 1,1 0,-3A3,3 0 0,1 3,0Z" style="opacity: 1; stroke-width: 0px; fill: rgb(253, 188, 34); fill-opacity: 0.9;"/><path class="point" transform="translate(515.29,216.93)" d="M3,0A3,3 0 1,1 0,-3A3,3 0 0,1 3,0Z" style="opacity: 1; stroke-width: 0px; fill: rgb(253, 188, 34); fill-opacity: 0.9;"/><path class="point" transform="translate(391.83,224.86)" d="M3,0A3,3 0 1,1 0,-3A3,3 0 0,1 3,0Z" style="opacity: 1; stroke-width: 0px; fill: rgb(253, 188, 34); fill-opacity: 0.9;"/><path class="point" transform="translate(391.83,212.97)" d="M3,0A3,3 0 1,1 0,-3A3,3 0 0,1 3,0Z" style="opacity: 1; stroke-width: 0px; fill: rgb(253, 188, 34); fill-opacity: 0.9;"/><path class="point" transform="translate(437.56,228.82)" d="M3,0A3,3 0 1,1 0,-3A3,3 0 0,1 3,0Z" style="opacity: 1; stroke-width: 0px; fill: rgb(253, 188, 34); fill-opacity: 0.9;"/><path class="point" transform="translate(551.87,121.83)" d="M3,0A3,3 0 1,1 0,-3A3,3 0 0,1 3,0Z" style="opacity: 1; stroke-width: 0px; fill: rgb(253, 188, 34); fill-opacity: 0.9;"/><path class="point" transform="translate(300.37,272.41)" d="M3,0A3,3 0 1,1 0,-3A3,3 0 0,1 3,0Z" style="opacity: 1; stroke-width: 0px; fill: rgb(253, 188, 34); fill-opacity: 0.9;"/><path class="point" transform="translate(414.69,248.64)" d="M3,0A3,3 0 1,1 0,-3A3,3 0 0,1 3,0Z" style="opacity: 1; stroke-width: 0px; fill: rgb(253, 188, 34); fill-opacity: 0.9;"/><path class="point" transform="translate(391.83,226.84)" d="M3,0A3,3 0 1,1 0,-3A3,3 0 0,1 3,0Z" style="opacity: 1; stroke-width: 0px; fill: rgb(253, 188, 34); fill-opacity: 0.9;"/><path class="point" transform="translate(368.96,327.89)" d="M3,0A3,3 0 1,1 0,-3A3,3 0 0,1 3,0Z" style="opacity: 1; stroke-width: 0px; fill: rgb(253, 188, 34); fill-opacity: 0.9;"/><path class="point" transform="translate(414.69,288.26)" d="M3,0A3,3 0 1,1 0,-3A3,3 0 0,1 3,0Z" style="opacity: 1; stroke-width: 0px; fill: rgb(253, 188, 34); fill-opacity: 0.9;"/><path class="point" transform="translate(529.01,177.31)" d="M3,0A3,3 0 1,1 0,-3A3,3 0 0,1 3,0Z" style="opacity: 1; stroke-width: 0px; fill: rgb(253, 188, 34); fill-opacity: 0.9;"/><path class="point" transform="translate(460.42,292.22)" d="M3,0A3,3 0 1,1 0,-3A3,3 0 0,1 3,0Z" style="opacity: 1; stroke-width: 0px; fill: rgb(253, 188, 34); fill-opacity: 0.9;"/><path class="point" transform="translate(506.15,272.41)" d="M3,0A3,3 0 1,1 0,-3A3,3 0 0,1 3,0Z" style="opacity: 1; stroke-width: 0px; fill: rgb(253, 188, 34); fill-opacity: 0.9;"/><path class="point" transform="translate(574.74,214.95)" d="M3,0A3,3 0 1,1 0,-3A3,3 0 0,1 3,0Z" style="opacity: 1; stroke-width: 0px; fill: rgb(253, 188, 34); fill-opacity: 0.9;"/><path class="point" transform="translate(437.56,244.67)" d="M3,0A3,3 0 1,1 0,-3A3,3 0 0,1 3,0Z" style="opacity: 1; stroke-width: 0px; fill: rgb(253, 188, 34); fill-opacity: 0.9;"/><path class="point" transform="translate(597.6,212.97)" d="M3,0A3,3 0 1,1 0,-3A3,3 0 0,1 3,0Z" style="opacity: 1; stroke-width: 0px; fill: rgb(253, 188, 34); fill-opacity: 0.9;"/><path class="point" transform="translate(437.56,280.34)" d="M3,0A3,3 0 1,1 0,-3A3,3 0 0,1 3,0Z" style="opacity: 1; stroke-width: 0px; fill: rgb(253, 188, 34); fill-opacity: 0.9;"/><path class="point" transform="translate(483.28,129.76)" d="M3,0A3,3 0 1,1 0,-3A3,3 0 0,1 3,0Z" style="opacity: 1; stroke-width: 0px; fill: rgb(253, 188, 34); fill-opacity: 0.9;"/><path class="point" transform="translate(460.42,304.11)" d="M3,0A3,3 0 1,1 0,-3A3,3 0 0,1 3,0Z" style="opacity: 1; stroke-width: 0px; fill: rgb(253, 188, 34); fill-opacity: 0.9;"/><path class="point" transform="translate(529.01,234.77)" d="M3,0A3,3 0 1,1 0,-3A3,3 0 0,1 3,0Z" style="opacity: 1; stroke-width: 0px; fill: rgb(253, 188, 34); fill-opacity: 0.9;"/><path class="point" transform="translate(483.28,86.17)" d="M3,0A3,3 0 1,1 0,-3A3,3 0 0,1 3,0Z" style="opacity: 1; stroke-width: 0px; fill: rgb(253, 188, 34); fill-opacity: 0.9;"/><path class="point" transform="translate(529.01,169.38)" d="M3,0A3,3 0 1,1 0,-3A3,3 0 0,1 3,0Z" style="opacity: 1; stroke-width: 0px; fill: rgb(253, 188, 34); fill-opacity: 0.9;"/><path class="point" transform="translate(597.6,169.38)" d="M3,0A3,3 0 1,1 0,-3A3,3 0 0,1 3,0Z" style="opacity: 1; stroke-width: 0px; fill: rgb(253, 188, 34); fill-opacity: 0.9;"/><path class="point" transform="translate(551.87,228.82)" d="M3,0A3,3 0 1,1 0,-3A3,3 0 0,1 3,0Z" style="opacity: 1; stroke-width: 0px; fill: rgb(253, 188, 34); fill-opacity: 0.9;"/><path class="point" transform="translate(519.86,270.43)" d="M3,0A3,3 0 1,1 0,-3A3,3 0 0,1 3,0Z" style="opacity: 1; stroke-width: 0px; fill: rgb(253, 188, 34); fill-opacity: 0.9;"/><path class="point" transform="translate(597.6,230.8)" d="M3,0A3,3 0 1,1 0,-3A3,3 0 0,1 3,0Z" style="opacity: 1; stroke-width: 0px; fill: rgb(253, 188, 34); fill-opacity: 0.9;"/><path class="point" transform="translate(300.37,272.41)" d="M3,0A3,3 0 1,1 0,-3A3,3 0 0,1 3,0Z" style="opacity: 1; stroke-width: 0px; fill: rgb(253, 188, 34); fill-opacity: 0.9;"/><path class="point" transform="translate(437.56,268.45)" d="M3,0A3,3 0 1,1 0,-3A3,3 0 0,1 3,0Z" style="opacity: 1; stroke-width: 0px; fill: rgb(253, 188, 34); fill-opacity: 0.9;"/><path class="point" transform="translate(483.28,185.23)" d="M3,0A3,3 0 1,1 0,-3A3,3 0 0,1 3,0Z" style="opacity: 1; stroke-width: 0px; fill: rgb(253, 188, 34); fill-opacity: 0.9;"/><path class="point" transform="translate(871.96,24.75)" d="M3,0A3,3 0 1,1 0,-3A3,3 0 0,1 3,0Z" style="opacity: 1; stroke-width: 0px; fill: rgb(253, 188, 34); fill-opacity: 0.9;"/><path class="point" transform="translate(780.51,123.81)" d="M3,0A3,3 0 1,1 0,-3A3,3 0 0,1 3,0Z" style="opacity: 1; stroke-width: 0px; fill: rgb(253, 188, 34); fill-opacity: 0.9;"/><path class="point" transform="translate(551.87,242.69)" d="M3,0A3,3 0 1,1 0,-3A3,3 0 0,1 3,0Z" style="opacity: 1; stroke-width: 0px; fill: rgb(253, 188, 34); fill-opacity: 0.9;"/><path class="point" transform="translate(529.01,191.18)" d="M3,0A3,3 0 1,1 0,-3A3,3 0 0,1 3,0Z" style="opacity: 1; stroke-width: 0px; fill: rgb(253, 188, 34); fill-opacity: 0.9;"/><path class="point" transform="translate(529.01,234.77)" d="M3,0A3,3 0 1,1 0,-3A3,3 0 0,1 3,0Z" style="opacity: 1; stroke-width: 0px; fill: rgb(253, 188, 34); fill-opacity: 0.9;"/><path class="point" transform="translate(551.87,210.99)" d="M3,0A3,3 0 1,1 0,-3A3,3 0 0,1 3,0Z" style="opacity: 1; stroke-width: 0px; fill: rgb(253, 188, 34); fill-opacity: 0.9;"/><path class="point" transform="translate(871.96,113.91)" d="M3,0A3,3 0 1,1 0,-3A3,3 0 0,1 3,0Z" style="opacity: 1; stroke-width: 0px; fill: rgb(253, 188, 34); fill-opacity: 0.9;"/><path class="point" transform="translate(689.05,209.01)" d="M3,0A3,3 0 1,1 0,-3A3,3 0 0,1 3,0Z" style="opacity: 1; stroke-width: 0px; fill: rgb(253, 188, 34); fill-opacity: 0.9;"/><path class="point" transform="translate(574.74,193.16)" d="M3,0A3,3 0 1,1 0,-3A3,3 0 0,1 3,0Z" style="opacity: 1; stroke-width: 0px; fill: rgb(253, 188, 34); fill-opacity: 0.9;"/><path class="point" transform="translate(391.83,205.05)" d="M3,0A3,3 0 1,1 0,-3A3,3 0 0,1 3,0Z" style="opacity: 1; stroke-width: 0px; fill: rgb(253, 188, 34); fill-opacity: 0.9;"/><path class="point" transform="translate(483.28,189.2)" d="M3,0A3,3 0 1,1 0,-3A3,3 0 0,1 3,0Z" style="opacity: 1; stroke-width: 0px; fill: rgb(253, 188, 34); fill-opacity: 0.9;"/><path class="point" transform="translate(666.19,189.2)" d="M3,0A3,3 0 1,1 0,-3A3,3 0 0,1 3,0Z" style="opacity: 1; stroke-width: 0px; fill: rgb(253, 188, 34); fill-opacity: 0.9;"/><path class="point" transform="translate(551.87,197.12)" d="M3,0A3,3 0 1,1 0,-3A3,3 0 0,1 3,0Z" style="opacity: 1; stroke-width: 0px; fill: rgb(253, 188, 34); fill-opacity: 0.9;"/><path class="point" transform="translate(368.96,218.92)" d="M3,0A3,3 0 1,1 0,-3A3,3 0 0,1 3,0Z" style="opacity: 1; stroke-width: 0px; fill: rgb(253, 188, 34); fill-opacity: 0.9;"/><path class="point" transform="translate(414.69,228.82)" d="M3,0A3,3 0 1,1 0,-3A3,3 0 0,1 3,0Z" style="opacity: 1; stroke-width: 0px; fill: rgb(253, 188, 34); fill-opacity: 0.9;"/><path class="point" transform="translate(529.01,161.46)" d="M3,0A3,3 0 1,1 0,-3A3,3 0 0,1 3,0Z" style="opacity: 1; stroke-width: 0px; fill: rgb(253, 188, 34); fill-opacity: 0.9;"/><path class="point" transform="translate(711.92,141.65)" d="M3,0A3,3 0 1,1 0,-3A3,3 0 0,1 3,0Z" style="opacity: 1; stroke-width: 0px; fill: rgb(253, 188, 34); fill-opacity: 0.9;"/><path class="point" transform="translate(460.42,230.8)" d="M3,0A3,3 0 1,1 0,-3A3,3 0 0,1 3,0Z" style="opacity: 1; stroke-width: 0px; fill: rgb(253, 188, 34); fill-opacity: 0.9;"/><path class="point" transform="translate(666.19,147.59)" d="M3,0A3,3 0 1,1 0,-3A3,3 0 0,1 3,0Z" style="opacity: 1; stroke-width: 0px; fill: rgb(253, 188, 34); fill-opacity: 0.9;"/><path class="point" transform="translate(529.01,129.76)" d="M3,0A3,3 0 1,1 0,-3A3,3 0 0,1 3,0Z" style="opacity: 1; stroke-width: 0px; fill: rgb(253, 188, 34); fill-opacity: 0.9;"/><path class="point" transform="translate(483.28,199.1)" d="M3,0A3,3 0 1,1 0,-3A3,3 0 0,1 3,0Z" style="opacity: 1; stroke-width: 0px; fill: rgb(253, 188, 34); fill-opacity: 0.9;"/><path class="point" transform="translate(643.33,125.8)" d="M3,0A3,3 0 1,1 0,-3A3,3 0 0,1 3,0Z" style="opacity: 1; stroke-width: 0px; fill: rgb(253, 188, 34); fill-opacity: 0.9;"/><path class="point" transform="translate(483.28,199.1)" d="M3,0A3,3 0 1,1 0,-3A3,3 0 0,1 3,0Z" style="opacity: 1; stroke-width: 0px; fill: rgb(253, 188, 34); fill-opacity: 0.9;"/><path class="point" transform="translate(414.69,228.82)" d="M3,0A3,3 0 1,1 0,-3A3,3 0 0,1 3,0Z" style="opacity: 1; stroke-width: 0px; fill: rgb(253, 188, 34); fill-opacity: 0.9;"/><path class="point" transform="translate(529.01,238.73)" d="M3,0A3,3 0 1,1 0,-3A3,3 0 0,1 3,0Z" style="opacity: 1; stroke-width: 0px; fill: rgb(253, 188, 34); fill-opacity: 0.9;"/><path class="point" transform="translate(483.28,222.88)" d="M3,0A3,3 0 1,1 0,-3A3,3 0 0,1 3,0Z" style="opacity: 1; stroke-width: 0px; fill: rgb(253, 188, 34); fill-opacity: 0.9;"/><path class="point" transform="translate(551.87,173.35)" d="M3,0A3,3 0 1,1 0,-3A3,3 0 0,1 3,0Z" style="opacity: 1; stroke-width: 0px; fill: rgb(253, 188, 34); fill-opacity: 0.9;"/><path class="point" transform="translate(551.87,193.16)" d="M3,0A3,3 0 1,1 0,-3A3,3 0 0,1 3,0Z" style="opacity: 1; stroke-width: 0px; fill: rgb(253, 188, 34); fill-opacity: 0.9;"/><path class="point" transform="translate(551.87,197.12)" d="M3,0A3,3 0 1,1 0,-3A3,3 0 0,1 3,0Z" style="opacity: 1; stroke-width: 0px; fill: rgb(253, 188, 34); fill-opacity: 0.9;"/><path class="point" transform="translate(666.19,145.61)" d="M3,0A3,3 0 1,1 0,-3A3,3 0 0,1 3,0Z" style="opacity: 1; stroke-width: 0px; fill: rgb(253, 188, 34); fill-opacity: 0.9;"/><path class="point" transform="translate(574.74,173.35)" d="M3,0A3,3 0 1,1 0,-3A3,3 0 0,1 3,0Z" style="opacity: 1; stroke-width: 0px; fill: rgb(253, 188, 34); fill-opacity: 0.9;"/><path class="point" transform="translate(734.78,119.85)" d="M3,0A3,3 0 1,1 0,-3A3,3 0 0,1 3,0Z" style="opacity: 1; stroke-width: 0px; fill: rgb(253, 188, 34); fill-opacity: 0.9;"/><path class="point" transform="translate(414.69,212.97)" d="M3,0A3,3 0 1,1 0,-3A3,3 0 0,1 3,0Z" style="opacity: 1; stroke-width: 0px; fill: rgb(253, 188, 34); fill-opacity: 0.9;"/><path class="point" transform="translate(483.28,248.64)" d="M3,0A3,3 0 1,1 0,-3A3,3 0 0,1 3,0Z" style="opacity: 1; stroke-width: 0px; fill: rgb(253, 188, 34); fill-opacity: 0.9;"/><path class="point" transform="translate(574.74,205.05)" d="M3,0A3,3 0 1,1 0,-3A3,3 0 0,1 3,0Z" style="opacity: 1; stroke-width: 0px; fill: rgb(253, 188, 34); fill-opacity: 0.9;"/><path class="point" transform="translate(460.42,193.16)" d="M3,0A3,3 0 1,1 0,-3A3,3 0 0,1 3,0Z" style="opacity: 1; stroke-width: 0px; fill: rgb(253, 188, 34); fill-opacity: 0.9;"/><path class="point" transform="translate(803.37,141.65)" d="M3,0A3,3 0 1,1 0,-3A3,3 0 0,1 3,0Z" style="opacity: 1; stroke-width: 0px; fill: rgb(253, 188, 34); fill-opacity: 0.9;"/><path class="point" transform="translate(711.92,129.76)" d="M3,0A3,3 0 1,1 0,-3A3,3 0 0,1 3,0Z" style="opacity: 1; stroke-width: 0px; fill: rgb(253, 188, 34); fill-opacity: 0.9;"/><path class="point" transform="translate(597.6,141.65)" d="M3,0A3,3 0 1,1 0,-3A3,3 0 0,1 3,0Z" style="opacity: 1; stroke-width: 0px; fill: rgb(253, 188, 34); fill-opacity: 0.9;"/><path class="point" transform="translate(529.01,193.16)" d="M3,0A3,3 0 1,1 0,-3A3,3 0 0,1 3,0Z" style="opacity: 1; stroke-width: 0px; fill: rgb(253, 188, 34); fill-opacity: 0.9;"/><path class="point" transform="translate(483.28,161.46)" d="M3,0A3,3 0 1,1 0,-3A3,3 0 0,1 3,0Z" style="opacity: 1; stroke-width: 0px; fill: rgb(253, 188, 34); fill-opacity: 0.9;"/><path class="point" transform="translate(574.74,153.53)" d="M3,0A3,3 0 1,1 0,-3A3,3 0 0,1 3,0Z" style="opacity: 1; stroke-width: 0px; fill: rgb(253, 188, 34); fill-opacity: 0.9;"/><path class="point" transform="translate(414.69,199.1)" d="M3,0A3,3 0 1,1 0,-3A3,3 0 0,1 3,0Z" style="opacity: 1; stroke-width: 0px; fill: rgb(253, 188, 34); fill-opacity: 0.9;"/><path class="point" transform="translate(574.74,209.01)" d="M3,0A3,3 0 1,1 0,-3A3,3 0 0,1 3,0Z" style="opacity: 1; stroke-width: 0px; fill: rgb(253, 188, 34); fill-opacity: 0.9;"/><path class="point" transform="translate(597.6,216.93)" d="M3,0A3,3 0 1,1 0,-3A3,3 0 0,1 3,0Z" style="opacity: 1; stroke-width: 0px; fill: rgb(253, 188, 34); fill-opacity: 0.9;"/><path class="point" transform="translate(620.46,149.57)" d="M3,0A3,3 0 1,1 0,-3A3,3 0 0,1 3,0Z" style="opacity: 1; stroke-width: 0px; fill: rgb(253, 188, 34); fill-opacity: 0.9;"/><path class="point" transform="translate(460.42,209.01)" d="M3,0A3,3 0 1,1 0,-3A3,3 0 0,1 3,0Z" style="opacity: 1; stroke-width: 0px; fill: rgb(253, 188, 34); fill-opacity: 0.9;"/><path class="point" transform="translate(689.05,131.74)" d="M3,0A3,3 0 1,1 0,-3A3,3 0 0,1 3,0Z" style="opacity: 1; stroke-width: 0px; fill: rgb(253, 188, 34); fill-opacity: 0.9;"/><path class="point" transform="translate(711.92,98.06)" d="M3,0A3,3 0 1,1 0,-3A3,3 0 0,1 3,0Z" style="opacity: 1; stroke-width: 0px; fill: rgb(253, 188, 34); fill-opacity: 0.9;"/><path class="point" transform="translate(437.56,205.05)" d="M3,0A3,3 0 1,1 0,-3A3,3 0 0,1 3,0Z" style="opacity: 1; stroke-width: 0px; fill: rgb(253, 188, 34); fill-opacity: 0.9;"/><path class="point" transform="translate(460.42,212.97)" d="M3,0A3,3 0 1,1 0,-3A3,3 0 0,1 3,0Z" style="opacity: 1; stroke-width: 0px; fill: rgb(253, 188, 34); fill-opacity: 0.9;"/><path class="point" transform="translate(483.28,173.35)" d="M3,0A3,3 0 1,1 0,-3A3,3 0 0,1 3,0Z" style="opacity: 1; stroke-width: 0px; fill: rgb(253, 188, 34); fill-opacity: 0.9;"/><path class="point" transform="translate(506.15,179.29)" d="M3,0A3,3 0 1,1 0,-3A3,3 0 0,1 3,0Z" style="opacity: 1; stroke-width: 0px; fill: rgb(253, 188, 34); fill-opacity: 0.9;"/><path class="point" transform="translate(620.46,173.35)" d="M3,0A3,3 0 1,1 0,-3A3,3 0 0,1 3,0Z" style="opacity: 1; stroke-width: 0px; fill: rgb(253, 188, 34); fill-opacity: 0.9;"/><path class="point" transform="translate(483.28,216.93)" d="M3,0A3,3 0 1,1 0,-3A3,3 0 0,1 3,0Z" style="opacity: 1; stroke-width: 0px; fill: rgb(253, 188, 34); fill-opacity: 0.9;"/><path class="point" transform="translate(483.28,195.14)" d="M3,0A3,3 0 1,1 0,-3A3,3 0 0,1 3,0Z" style="opacity: 1; stroke-width: 0px; fill: rgb(253, 188, 34); fill-opacity: 0.9;"/><path class="point" transform="translate(689.05,121.83)" d="M3,0A3,3 0 1,1 0,-3A3,3 0 0,1 3,0Z" style="opacity: 1; stroke-width: 0px; fill: rgb(253, 188, 34); fill-opacity: 0.9;"/></g><g class="text"/></g></g></g><g class="overplot"/><path class="xlines-above crisp" d="M0,0" style="fill: none;"/><path class="ylines-above crisp" d="M0,0" style="fill: none;"/><g class="overlines-above"/><g class="xaxislayer-above"><g class="xtick"><text text-anchor="middle" x="0" y="533" transform="translate(106.01,0)" style="font-family: 'Open Sans', verdana, arial, sans-serif; font-size: 12px; fill: rgb(42, 63, 95); fill-opacity: 1; white-space: pre;">10</text></g><g class="xtick"><text text-anchor="middle" x="0" y="533" transform="translate(334.65,0)" style="font-family: 'Open Sans', verdana, arial, sans-serif; font-size: 12px; fill: rgb(42, 63, 95); fill-opacity: 1; white-space: pre;">15</text></g><g class="xtick"><text text-anchor="middle" x="0" y="533" transform="translate(563.28,0)" style="font-family: 'Open Sans', verdana, arial, sans-serif; font-size: 12px; fill: rgb(42, 63, 95); fill-opacity: 1; white-space: pre;">20</text></g><g class="xtick"><text text-anchor="middle" x="0" y="533" transform="translate(791.92,0)" style="font-family: 'Open Sans', verdana, arial, sans-serif; font-size: 12px; fill: rgb(42, 63, 95); fill-opacity: 1; white-space: pre;">25</text></g><g class="xtick"><text text-anchor="middle" x="0" y="533" transform="translate(1020.55,0)" style="font-family: 'Open Sans', verdana, arial, sans-serif; font-size: 12px; fill: rgb(42, 63, 95); fill-opacity: 1; white-space: pre;">30</text></g></g><g class="yaxislayer-above"><g class="ytick"><text text-anchor="end" x="79" y="4.199999999999999" transform="translate(0,467.51)" style="font-family: 'Open Sans', verdana, arial, sans-serif; font-size: 12px; fill: rgb(42, 63, 95); fill-opacity: 1; white-space: pre;">1.5</text></g><g class="ytick"><text text-anchor="end" x="79" y="4.199999999999999" transform="translate(0,368.45)" style="font-family: 'Open Sans', verdana, arial, sans-serif; font-size: 12px; fill: rgb(42, 63, 95); fill-opacity: 1; white-space: pre;">2</text></g><g class="ytick"><text text-anchor="end" x="79" y="4.199999999999999" transform="translate(0,269.38)" style="font-family: 'Open Sans', verdana, arial, sans-serif; font-size: 12px; fill: rgb(42, 63, 95); fill-opacity: 1; white-space: pre;">2.5</text></g><g class="ytick"><text text-anchor="end" x="79" y="4.199999999999999" transform="translate(0,170.32)" style="font-family: 'Open Sans', verdana, arial, sans-serif; font-size: 12px; fill: rgb(42, 63, 95); fill-opacity: 1; white-space: pre;">3</text></g></g><g class="overaxes-above"/></g></g><g class="polarlayer"/><g class="ternarylayer"/><g class="geolayer"/><g class="funnelarealayer"/><g class="pielayer"/><g class="treemaplayer"/><g class="sunburstlayer"/><g class="glimages"/><defs id="topdefs-d6da39"><g class="clips"/><clipPath id="legendd6da39"><rect width="94" height="48" x="0" y="0"/></clipPath></defs><g class="layer-above"><g class="imagelayer"/><g class="shapelayer"/></g><g class="infolayer"><g class="legend" pointer-events="all" transform="translate(1093.88,100)"><rect class="bg" shape-rendering="crispEdges" width="94" height="48" x="0" y="0" style="stroke: rgb(68, 68, 68); stroke-opacity: 1; fill: rgb(255, 255, 255); fill-opacity: 1; stroke-width: 0px;"/><g class="scrollbox" transform="" clip-path="url('#legendd6da39')"><g class="groups"><g class="traces" transform="translate(0,14.5)" style="opacity: 1;"><text class="legendtext" text-anchor="start" x="40" y="4.680000000000001" style="font-family: 'Open Sans', verdana, arial, sans-serif; font-size: 12px; fill: rgb(42, 63, 95); fill-opacity: 1; white-space: pre;">Class: 1</text><g class="layers" style="opacity: 1;"><g class="legendfill"/><g class="legendlines"/><g class="legendsymbols"><g class="legendpoints"><path class="scatterpts" transform="translate(20,0)" d="M3,0A3,3 0 1,1 0,-3A3,3 0 0,1 3,0Z" style="opacity: 1; stroke-width: 0px; fill: rgb(2, 21, 51); fill-opacity: 0.9;"/></g></g></g><rect class="legendtoggle" x="0" y="-9.5" width="88.6875" height="19" style="fill: rgb(0, 0, 0); fill-opacity: 0;"/></g><g class="traces" transform="translate(0,33.5)" style="opacity: 1;"><text class="legendtext" text-anchor="start" x="40" y="4.680000000000001" style="font-family: 'Open Sans', verdana, arial, sans-serif; font-size: 12px; fill: rgb(42, 63, 95); fill-opacity: 1; white-space: pre;">Class: 0</text><g class="layers" style="opacity: 1;"><g class="legendfill"/><g class="legendlines"/><g class="legendsymbols"><g class="legendpoints"><path class="scatterpts" transform="translate(20,0)" d="M3,0A3,3 0 1,1 0,-3A3,3 0 0,1 3,0Z" style="opacity: 1; stroke-width: 0px; fill: rgb(253, 188, 34); fill-opacity: 0.9;"/></g></g></g><rect class="legendtoggle" x="0" y="-9.5" width="88.6875" height="19" style="fill: rgb(0, 0, 0); fill-opacity: 0;"/></g></g></g><rect class="scrollbar" rx="20" ry="3" width="0" height="0" x="0" y="0" style="fill: rgb(128, 139, 164); fill-opacity: 1;"/></g><g class="g-gtitle"><text class="gtitle" x="60" y="50" text-anchor="start" dy="0em" style="font-family: 'Open Sans', verdana, arial, sans-serif; font-size: 17px; fill: rgb(42, 63, 95); opacity: 1; font-weight: normal; white-space: pre;">Scatter of Wine</text></g><g class="g-xtitle"><text class="xtitle" x="577" y="560.3" text-anchor="middle" style="font-family: 'Open Sans', verdana, arial, sans-serif; font-size: 14px; fill: rgb(42, 63, 95); opacity: 1; font-weight: normal; white-space: pre;">Alcalinity of Ash</text></g><g class="g-ytitle"><text class="ytitle" transform="rotate(-90,34.575,310)" x="34.575" y="310" text-anchor="middle" style="font-family: 'Open Sans', verdana, arial, sans-serif; font-size: 14px; fill: rgb(42, 63, 95); opacity: 1; font-weight: normal; white-space: pre;">Ash</text></g></g></svg>