<svg class="main-svg" xmlns="http://www.w3.org/2000/svg" xmlns:xlink="http://www.w3.org/1999/xlink" width="1200" height="600" style="" viewBox="0 0 1200 600"><rect x="0" y="0" width="1200" height="600" style="fill: rgb(255, 255, 255); fill-opacity: 1;"/><defs id="defs-d7aea0"><g class="clips"><clipPath id="clipd7aea0xyplot" class="plotclip"><rect width="994" height="420"/></clipPath><clipPath class="axesclip" id="clipd7aea0x"><rect x="80" y="0" width="994" height="600"/></clipPath><clipPath class="axesclip" id="clipd7aea0y"><rect x="0" y="100" width="1200" height="420"/></clipPath><clipPath class="axesclip" id="clipd7aea0xy"><rect x="80" y="100" width="994" height="420"/></clipPath></g><g class="gradients"/></defs><g class="bglayer"/><g class="layer-below"><g class="imagelayer"/><g class="shapelayer"/></g><g class="cartesianlayer"><g class="subplot xy"><g class="layer-subplot"><g class="shapelayer"/><g class="imagelayer"/></g><g class="gridlayer"><g class="x"><path class="xgrid crisp" transform="translate(194.64,0)" d="M0,100v420" style="stroke: rgb(235, 240, 248); stroke-opacity: 1; stroke-width: 1px;"/><path class="xgrid crisp" transform="translate(439.34,0)" d="M0,100v420" style="stroke: rgb(235, 240, 248); stroke-opacity: 1; stroke-width: 1px;"/><path class="xgrid crisp" transform="translate(561.69,0)" d="M0,100v420" style="stroke: rgb(235, 240, 248); stroke-opacity: 1; stroke-width: 1px;"/><path class="xgrid crisp" transform="translate(684.04,0)" d="M0,100v420" style="stroke: rgb(235, 240, 248); stroke-opacity: 1; stroke-width: 1px;"/><path class="xgrid crisp" transform="translate(806.38,0)" d="M0,100v420" style="stroke: rgb(235, 240, 248); stroke-opacity: 1; stroke-width: 1px;"/><path class="xgrid crisp" transform="translate(928.73,0)" d="M0,100v420" style="stroke: rgb(235, 240, 248); stroke-opacity: 1; stroke-width: 1px;"/><path class="xgrid crisp" transform="translate(1051.08,0)" d="M0,100v420" style="stroke: rgb(235, 240, 248); stroke-opacity: 1; stroke-width: 1px;"/></g><g class="y"><path class="ygrid crisp" transform="translate(0,498.24)" d="M80,0h994" style="stroke: rgb(235, 240, 248); stroke-opacity: 1; stroke-width: 1px;"/><path class="ygrid crisp" transform="translate(0,384.03)" d="M80,0h994" style="stroke: rgb(235, 240, 248); stroke-opacity: 1; stroke-width: 1px;"/><path class="ygrid crisp" transform="translate(0,326.93)" d="M80,0h994" style="stroke: rgb(235, 240, 248); stroke-opacity: 1; stroke-width: 1px;"/><path class="ygrid crisp" transform="translate(0,269.82)" d="M80,0h994" style="stroke: rgb(235, 240, 248); stroke-opacity: 1; stroke-width: 1px;"/><path class="ygrid crisp" transform="translate(0,212.72)" d="M80,0h994" style="stroke: rgb(235, 240, 248); stroke-opacity: 1; stroke-width: 1px;"/><path class="ygrid crisp" transform="translate(0,155.61)" d="M80,0h994" style="stroke: rgb(235, 240, 248); stroke-opacity: 1; stroke-width: 1px;"/></g></g><g class="zerolinelayer"><path class="xzl zl crisp" transform="translate(316.99,0)" d="M0,100v420" style="stroke: rgb(235, 240, 248); stroke-opacity: 1; stroke-width: 2px;"/><path class="yzl zl crisp" transform="translate(0,441.14)" d="M80,0h994" style="stroke: rgb(235, 240, 248); stroke-opacity: 1; stroke-width: 2px;"/></g><path class="xlines-below"/><path class="ylines-below"/><g class="overlines-below"/><g class="xaxislayer-below"/><g class="yaxislayer-below"/><g class="overaxes-below"/><g class="plot" transform="translate(80,100)" clip-path="url('#clipd7aea0xyplot')"><g class="scatterlayer mlayer"><g class="trace scatter trace4fea5c" style="stroke-miterlimit: 2; opacity: 1;"><g class="fills"/><g class="errorbars"/><g class="lines"/><g class="points"><path class="point" transform="translate(167.28,353.79)" d="M3,0A3,3 0 1,1 0,-3A3,3 0 0,1 3,0Z" style="opacity: 1; stroke-width: 0px; fill: rgb(2, 21, 51); fill-opacity: 0.9;"/><path class="point" transform="translate(379.24,395.25)" d="M3,0A3,3 0 1,1 0,-3A3,3 0 0,1 3,0Z" style="opacity: 1; stroke-width: 0px; fill: rgb(2, 21, 51); fill-opacity: 0.9;"/><path class="point" transform="translate(80.93,121.79)" d="M3,0A3,3 0 1,1 0,-3A3,3 0 0,1 3,0Z" style="opacity: 1; stroke-width: 0px; fill: rgb(2, 21, 51); fill-opacity: 0.9;"/><path class="point" transform="translate(336.07,318.5)" d="M3,0A3,3 0 1,1 0,-3A3,3 0 0,1 3,0Z" style="opacity: 1; stroke-width: 0px; fill: rgb(2, 21, 51); fill-opacity: 0.9;"/><path class="point" transform="translate(265.41,304.39)" d="M3,0A3,3 0 1,1 0,-3A3,3 0 0,1 3,0Z" style="opacity: 1; stroke-width: 0px; fill: rgb(2, 21, 51); fill-opacity: 0.9;"/><path class="point" transform="translate(175.13,373.2)" d="M3,0A3,3 0 1,1 0,-3A3,3 0 0,1 3,0Z" style="opacity: 1; stroke-width: 0px; fill: rgb(2, 21, 51); fill-opacity: 0.9;"/><path class="point" transform="translate(281.11,224.11)" d="M3,0A3,3 0 1,1 0,-3A3,3 0 0,1 3,0Z" style="opacity: 1; stroke-width: 0px; fill: rgb(2, 21, 51); fill-opacity: 0.9;"/><path class="point" transform="translate(646.16,395.25)" d="M3,0A3,3 0 1,1 0,-3A3,3 0 0,1 3,0Z" style="opacity: 1; stroke-width: 0px; fill: rgb(2, 21, 51); fill-opacity: 0.9;"/><path class="point" transform="translate(186.91,233.82)" d="M3,0A3,3 0 1,1 0,-3A3,3 0 0,1 3,0Z" style="opacity: 1; stroke-width: 0px; fill: rgb(2, 21, 51); fill-opacity: 0.9;"/><path class="point" transform="translate(477.37,313.21)" d="M3,0A3,3 0 1,1 0,-3A3,3 0 0,1 3,0Z" style="opacity: 1; stroke-width: 0px; fill: rgb(2, 21, 51); fill-opacity: 0.9;"/><path class="point" transform="translate(155.51,343.2)" d="M3,0A3,3 0 1,1 0,-3A3,3 0 0,1 3,0Z" style="opacity: 1; stroke-width: 0px; fill: rgb(2, 21, 51); fill-opacity: 0.9;"/><path class="point" transform="translate(147.66,339.68)" d="M3,0A3,3 0 1,1 0,-3A3,3 0 0,1 3,0Z" style="opacity: 1; stroke-width: 0px; fill: rgb(2, 21, 51); fill-opacity: 0.9;"/><path class="point" transform="translate(53.45,389.96)" d="M3,0A3,3 0 1,1 0,-3A3,3 0 0,1 3,0Z" style="opacity: 1; stroke-width: 0px; fill: rgb(2, 21, 51); fill-opacity: 0.9;"/><path class="point" transform="translate(288.96,210)" d="M3,0A3,3 0 1,1 0,-3A3,3 0 0,1 3,0Z" style="opacity: 1; stroke-width: 0px; fill: rgb(2, 21, 51); fill-opacity: 0.9;"/><path class="point" transform="translate(394.94,271.75)" d="M3,0A3,3 0 1,1 0,-3A3,3 0 0,1 3,0Z" style="opacity: 1; stroke-width: 0px; fill: rgb(2, 21, 51); fill-opacity: 0.9;"/><path class="point" transform="translate(124.1,263.81)" d="M3,0A3,3 0 1,1 0,-3A3,3 0 0,1 3,0Z" style="opacity: 1; stroke-width: 0px; fill: rgb(2, 21, 51); fill-opacity: 0.9;"/><path class="point" transform="translate(179.06,196.77)" d="M3,0A3,3 0 1,1 0,-3A3,3 0 0,1 3,0Z" style="opacity: 1; stroke-width: 0px; fill: rgb(2, 21, 51); fill-opacity: 0.9;"/><path class="point" transform="translate(500.93,352.91)" d="M3,0A3,3 0 1,1 0,-3A3,3 0 0,1 3,0Z" style="opacity: 1; stroke-width: 0px; fill: rgb(2, 21, 51); fill-opacity: 0.9;"/><path class="point" transform="translate(100.55,259.4)" d="M3,0A3,3 0 1,1 0,-3A3,3 0 0,1 3,0Z" style="opacity: 1; stroke-width: 0px; fill: rgb(2, 21, 51); fill-opacity: 0.9;"/><path class="point" transform="translate(544.1,344.09)" d="M3,0A3,3 0 1,1 0,-3A3,3 0 0,1 3,0Z" style="opacity: 1; stroke-width: 0px; fill: rgb(2, 21, 51); fill-opacity: 0.9;"/><path class="point" transform="translate(234.01,352.91)" d="M3,0A3,3 0 1,1 0,-3A3,3 0 0,1 3,0Z" style="opacity: 1; stroke-width: 0px; fill: rgb(2, 21, 51); fill-opacity: 0.9;"/><path class="point" transform="translate(316.44,364.38)" d="M3,0A3,3 0 1,1 0,-3A3,3 0 0,1 3,0Z" style="opacity: 1; stroke-width: 0px; fill: rgb(2, 21, 51); fill-opacity: 0.9;"/><path class="point" transform="translate(500.93,202.94)" d="M3,0A3,3 0 1,1 0,-3A3,3 0 0,1 3,0Z" style="opacity: 1; stroke-width: 0px; fill: rgb(2, 21, 51); fill-opacity: 0.9;"/><path class="point" transform="translate(477.37,216.18)" d="M3,0A3,3 0 1,1 0,-3A3,3 0 0,1 3,0Z" style="opacity: 1; stroke-width: 0px; fill: rgb(2, 21, 51); fill-opacity: 0.9;"/><path class="point" transform="translate(214.38,349.38)" d="M3,0A3,3 0 1,1 0,-3A3,3 0 0,1 3,0Z" style="opacity: 1; stroke-width: 0px; fill: rgb(2, 21, 51); fill-opacity: 0.9;"/><path class="point" transform="translate(332.14,189.71)" d="M3,0A3,3 0 1,1 0,-3A3,3 0 0,1 3,0Z" style="opacity: 1; stroke-width: 0px; fill: rgb(2, 21, 51); fill-opacity: 0.9;"/><path class="point" transform="translate(406.72,367.02)" d="M3,0A3,3 0 1,1 0,-3A3,3 0 0,1 3,0Z" style="opacity: 1; stroke-width: 0px; fill: rgb(2, 21, 51); fill-opacity: 0.9;"/><path class="point" transform="translate(391.02,362.61)" d="M3,0A3,3 0 1,1 0,-3A3,3 0 0,1 3,0Z" style="opacity: 1; stroke-width: 0px; fill: rgb(2, 21, 51); fill-opacity: 0.9;"/><path class="point" transform="translate(654.01,353.79)" d="M3,0A3,3 0 1,1 0,-3A3,3 0 0,1 3,0Z" style="opacity: 1; stroke-width: 0px; fill: rgb(2, 21, 51); fill-opacity: 0.9;"/><path class="point" transform="translate(198.68,246.17)" d="M3,0A3,3 0 1,1 0,-3A3,3 0 0,1 3,0Z" style="opacity: 1; stroke-width: 0px; fill: rgb(2, 21, 51); fill-opacity: 0.9;"/><path class="point" transform="translate(559.8,374.08)" d="M3,0A3,3 0 1,1 0,-3A3,3 0 0,1 3,0Z" style="opacity: 1; stroke-width: 0px; fill: rgb(2, 21, 51); fill-opacity: 0.9;"/><path class="point" transform="translate(281.11,343.2)" d="M3,0A3,3 0 1,1 0,-3A3,3 0 0,1 3,0Z" style="opacity: 1; stroke-width: 0px; fill: rgb(2, 21, 51); fill-opacity: 0.9;"/><path class="point" transform="translate(940.55,234.7)" d="M3,0A3,3 0 1,1 0,-3A3,3 0 0,1 3,0Z" style="opacity: 1; stroke-width: 0px; fill: rgb(2, 21, 51); fill-opacity: 0.9;"/><path class="point" transform="translate(288.96,232.05)" d="M3,0A3,3 0 1,1 0,-3A3,3 0 0,1 3,0Z" style="opacity: 1; stroke-width: 0px; fill: rgb(2, 21, 51); fill-opacity: 0.9;"/><path class="point" transform="translate(249.71,233.82)" d="M3,0A3,3 0 1,1 0,-3A3,3 0 0,1 3,0Z" style="opacity: 1; stroke-width: 0px; fill: rgb(2, 21, 51); fill-opacity: 0.9;"/><path class="point" transform="translate(194.76,268.22)" d="M3,0A3,3 0 1,1 0,-3A3,3 0 0,1 3,0Z" style="opacity: 1; stroke-width: 0px; fill: rgb(2, 21, 51); fill-opacity: 0.9;"/><path class="point" transform="translate(375.32,24.75)" d="M3,0A3,3 0 1,1 0,-3A3,3 0 0,1 3,0Z" style="opacity: 1; stroke-width: 0px; fill: rgb(2, 21, 51); fill-opacity: 0.9;"/><path class="point" transform="translate(198.68,313.21)" d="M3,0A3,3 0 1,1 0,-3A3,3 0 0,1 3,0Z" style="opacity: 1; stroke-width: 0px; fill: rgb(2, 21, 51); fill-opacity: 0.9;"/><path class="point" transform="translate(520.55,244.4)" d="M3,0A3,3 0 1,1 0,-3A3,3 0 0,1 3,0Z" style="opacity: 1; stroke-width: 0px; fill: rgb(2, 21, 51); fill-opacity: 0.9;"/><path class="point" transform="translate(355.69,268.22)" d="M3,0A3,3 0 1,1 0,-3A3,3 0 0,1 3,0Z" style="opacity: 1; stroke-width: 0px; fill: rgb(2, 21, 51); fill-opacity: 0.9;"/><path class="point" transform="translate(100.55,363.49)" d="M3,0A3,3 0 1,1 0,-3A3,3 0 0,1 3,0Z" style="opacity: 1; stroke-width: 0px; fill: rgb(2, 21, 51); fill-opacity: 0.9;"/><path class="point" transform="translate(304.66,82.97)" d="M3,0A3,3 0 1,1 0,-3A3,3 0 0,1 3,0Z" style="opacity: 1; stroke-width: 0px; fill: rgb(2, 21, 51); fill-opacity: 0.9;"/><path class="point" transform="translate(116.25,301.74)" d="M3,0A3,3 0 1,1 0,-3A3,3 0 0,1 3,0Z" style="opacity: 1; stroke-width: 0px; fill: rgb(2, 21, 51); fill-opacity: 0.9;"/></g><g class="text"/></g><g class="trace scatter tracedf1298" style="stroke-miterlimit: 2; opacity: 1;"><g class="fills"/><g class="errorbars"/><g class="lines"/><g class="points"><path class="point" transform="translate(312.51,333.5)" d="M3,0A3,3 0 1,1 0,-3A3,3 0 0,1 3,0Z" style="opacity: 1; stroke-width: 0px; fill: rgb(253, 188, 34); fill-opacity: 0.9;"/><path class="point" transform="translate(288.96,395.25)" d="M3,0A3,3 0 1,1 0,-3A3,3 0 0,1 3,0Z" style="opacity: 1; stroke-width: 0px; fill: rgb(253, 188, 34); fill-opacity: 0.9;"/><path class="point" transform="translate(261.49,384.66)" d="M3,0A3,3 0 1,1 0,-3A3,3 0 0,1 3,0Z" style="opacity: 1; stroke-width: 0px; fill: rgb(253, 188, 34); fill-opacity: 0.9;"/><path class="point" transform="translate(147.66,352.03)" d="M3,0A3,3 0 1,1 0,-3A3,3 0 0,1 3,0Z" style="opacity: 1; stroke-width: 0px; fill: rgb(253, 188, 34); fill-opacity: 0.9;"/><path class="point" transform="translate(230.08,369.67)" d="M3,0A3,3 0 1,1 0,-3A3,3 0 0,1 3,0Z" style="opacity: 1; stroke-width: 0px; fill: rgb(253, 188, 34); fill-opacity: 0.9;"/><path class="point" transform="translate(265.41,350.26)" d="M3,0A3,3 0 1,1 0,-3A3,3 0 0,1 3,0Z" style="opacity: 1; stroke-width: 0px; fill: rgb(253, 188, 34); fill-opacity: 0.9;"/><path class="point" transform="translate(324.29,341.44)" d="M3,0A3,3 0 1,1 0,-3A3,3 0 0,1 3,0Z" style="opacity: 1; stroke-width: 0px; fill: rgb(253, 188, 34); fill-opacity: 0.9;"/><path class="point" transform="translate(261.49,376.73)" d="M3,0A3,3 0 1,1 0,-3A3,3 0 0,1 3,0Z" style="opacity: 1; stroke-width: 0px; fill: rgb(253, 188, 34); fill-opacity: 0.9;"/><path class="point" transform="translate(234.01,370.55)" d="M3,0A3,3 0 1,1 0,-3A3,3 0 0,1 3,0Z" style="opacity: 1; stroke-width: 0px; fill: rgb(253, 188, 34); fill-opacity: 0.9;"/><path class="point" transform="translate(73.08,365.26)" d="M3,0A3,3 0 1,1 0,-3A3,3 0 0,1 3,0Z" style="opacity: 1; stroke-width: 0px; fill: rgb(253, 188, 34); fill-opacity: 0.9;"/><path class="point" transform="translate(273.26,341.44)" d="M3,0A3,3 0 1,1 0,-3A3,3 0 0,1 3,0Z" style="opacity: 1; stroke-width: 0px; fill: rgb(253, 188, 34); fill-opacity: 0.9;"/><path class="point" transform="translate(124.1,349.38)" d="M3,0A3,3 0 1,1 0,-3A3,3 0 0,1 3,0Z" style="opacity: 1; stroke-width: 0px; fill: rgb(253, 188, 34); fill-opacity: 0.9;"/><path class="point" transform="translate(186.91,352.91)" d="M3,0A3,3 0 1,1 0,-3A3,3 0 0,1 3,0Z" style="opacity: 1; stroke-width: 0px; fill: rgb(253, 188, 34); fill-opacity: 0.9;"/><path class="point" transform="translate(241.86,353.79)" d="M3,0A3,3 0 1,1 0,-3A3,3 0 0,1 3,0Z" style="opacity: 1; stroke-width: 0px; fill: rgb(253, 188, 34); fill-opacity: 0.9;"/><path class="point" transform="translate(100.55,340.56)" d="M3,0A3,3 0 1,1 0,-3A3,3 0 0,1 3,0Z" style="opacity: 1; stroke-width: 0px; fill: rgb(253, 188, 34); fill-opacity: 0.9;"/><path class="point" transform="translate(316.44,371.43)" d="M3,0A3,3 0 1,1 0,-3A3,3 0 0,1 3,0Z" style="opacity: 1; stroke-width: 0px; fill: rgb(253, 188, 34); fill-opacity: 0.9;"/><path class="point" transform="translate(171.21,339.68)" d="M3,0A3,3 0 1,1 0,-3A3,3 0 0,1 3,0Z" style="opacity: 1; stroke-width: 0px; fill: rgb(253, 188, 34); fill-opacity: 0.9;"/><path class="point" transform="translate(277.19,349.38)" d="M3,0A3,3 0 1,1 0,-3A3,3 0 0,1 3,0Z" style="opacity: 1; stroke-width: 0px; fill: rgb(253, 188, 34); fill-opacity: 0.9;"/><path class="point" transform="translate(175.13,350.26)" d="M3,0A3,3 0 1,1 0,-3A3,3 0 0,1 3,0Z" style="opacity: 1; stroke-width: 0px; fill: rgb(253, 188, 34); fill-opacity: 0.9;"/><path class="point" transform="translate(186.91,359.08)" d="M3,0A3,3 0 1,1 0,-3A3,3 0 0,1 3,0Z" style="opacity: 1; stroke-width: 0px; fill: rgb(253, 188, 34); fill-opacity: 0.9;"/><path class="point" transform="translate(257.56,372.31)" d="M3,0A3,3 0 1,1 0,-3A3,3 0 0,1 3,0Z" style="opacity: 1; stroke-width: 0px; fill: rgb(253, 188, 34); fill-opacity: 0.9;"/><path class="point" transform="translate(124.1,334.38)" d="M3,0A3,3 0 1,1 0,-3A3,3 0 0,1 3,0Z" style="opacity: 1; stroke-width: 0px; fill: rgb(253, 188, 34); fill-opacity: 0.9;"/><path class="point" transform="translate(88.78,346.73)" d="M3,0A3,3 0 1,1 0,-3A3,3 0 0,1 3,0Z" style="opacity: 1; stroke-width: 0px; fill: rgb(253, 188, 34); fill-opacity: 0.9;"/><path class="point" transform="translate(151.58,348.5)" d="M3,0A3,3 0 1,1 0,-3A3,3 0 0,1 3,0Z" style="opacity: 1; stroke-width: 0px; fill: rgb(253, 188, 34); fill-opacity: 0.9;"/><path class="point" transform="translate(273.26,358.2)" d="M3,0A3,3 0 1,1 0,-3A3,3 0 0,1 3,0Z" style="opacity: 1; stroke-width: 0px; fill: rgb(253, 188, 34); fill-opacity: 0.9;"/><path class="point" transform="translate(131.95,333.5)" d="M3,0A3,3 0 1,1 0,-3A3,3 0 0,1 3,0Z" style="opacity: 1; stroke-width: 0px; fill: rgb(253, 188, 34); fill-opacity: 0.9;"/><path class="point" transform="translate(261.49,342.32)" d="M3,0A3,3 0 1,1 0,-3A3,3 0 0,1 3,0Z" style="opacity: 1; stroke-width: 0px; fill: rgb(253, 188, 34); fill-opacity: 0.9;"/><path class="point" transform="translate(120.18,348.5)" d="M3,0A3,3 0 1,1 0,-3A3,3 0 0,1 3,0Z" style="opacity: 1; stroke-width: 0px; fill: rgb(253, 188, 34); fill-opacity: 0.9;"/><path class="point" transform="translate(167.28,368.79)" d="M3,0A3,3 0 1,1 0,-3A3,3 0 0,1 3,0Z" style="opacity: 1; stroke-width: 0px; fill: rgb(253, 188, 34); fill-opacity: 0.9;"/><path class="point" transform="translate(112.33,374.08)" d="M3,0A3,3 0 1,1 0,-3A3,3 0 0,1 3,0Z" style="opacity: 1; stroke-width: 0px; fill: rgb(253, 188, 34); fill-opacity: 0.9;"/><path class="point" transform="translate(288.96,385.55)" d="M3,0A3,3 0 1,1 0,-3A3,3 0 0,1 3,0Z" style="opacity: 1; stroke-width: 0px; fill: rgb(253, 188, 34); fill-opacity: 0.9;"/><path class="point" transform="translate(182.98,374.96)" d="M3,0A3,3 0 1,1 0,-3A3,3 0 0,1 3,0Z" style="opacity: 1; stroke-width: 0px; fill: rgb(253, 188, 34); fill-opacity: 0.9;"/><path class="point" transform="translate(179.06,347.61)" d="M3,0A3,3 0 1,1 0,-3A3,3 0 0,1 3,0Z" style="opacity: 1; stroke-width: 0px; fill: rgb(253, 188, 34); fill-opacity: 0.9;"/><path class="point" transform="translate(304.66,378.49)" d="M3,0A3,3 0 1,1 0,-3A3,3 0 0,1 3,0Z" style="opacity: 1; stroke-width: 0px; fill: rgb(253, 188, 34); fill-opacity: 0.9;"/><path class="point" transform="translate(151.58,346.73)" d="M3,0A3,3 0 1,1 0,-3A3,3 0 0,1 3,0Z" style="opacity: 1; stroke-width: 0px; fill: rgb(253, 188, 34); fill-opacity: 0.9;"/><path class="point" transform="translate(241.86,376.73)" d="M3,0A3,3 0 1,1 0,-3A3,3 0 0,1 3,0Z" style="opacity: 1; stroke-width: 0px; fill: rgb(253, 188, 34); fill-opacity: 0.9;"/><path class="point" transform="translate(336.07,344.97)" d="M3,0A3,3 0 1,1 0,-3A3,3 0 0,1 3,0Z" style="opacity: 1; stroke-width: 0px; fill: rgb(253, 188, 34); fill-opacity: 0.9;"/><path class="point" transform="translate(186.91,372.31)" d="M3,0A3,3 0 1,1 0,-3A3,3 0 0,1 3,0Z" style="opacity: 1; stroke-width: 0px; fill: rgb(253, 188, 34); fill-opacity: 0.9;"/><path class="point" transform="translate(147.66,344.09)" d="M3,0A3,3 0 1,1 0,-3A3,3 0 0,1 3,0Z" style="opacity: 1; stroke-width: 0px; fill: rgb(253, 188, 34); fill-opacity: 0.9;"/><path class="point" transform="translate(261.49,349.38)" d="M3,0A3,3 0 1,1 0,-3A3,3 0 0,1 3,0Z" style="opacity: 1; stroke-width: 0px; fill: rgb(253, 188, 34); fill-opacity: 0.9;"/><path class="point" transform="translate(73.08,344.09)" d="M3,0A3,3 0 1,1 0,-3A3,3 0 0,1 3,0Z" style="opacity: 1; stroke-width: 0px; fill: rgb(253, 188, 34); fill-opacity: 0.9;"/><path class="point" transform="translate(214.38,336.15)" d="M3,0A3,3 0 1,1 0,-3A3,3 0 0,1 3,0Z" style="opacity: 1; stroke-width: 0px; fill: rgb(253, 188, 34); fill-opacity: 0.9;"/><path class="point" transform="translate(175.13,385.55)" d="M3,0A3,3 0 1,1 0,-3A3,3 0 0,1 3,0Z" style="opacity: 1; stroke-width: 0px; fill: rgb(253, 188, 34); fill-opacity: 0.9;"/><path class="point" transform="translate(336.07,367.02)" d="M3,0A3,3 0 1,1 0,-3A3,3 0 0,1 3,0Z" style="opacity: 1; stroke-width: 0px; fill: rgb(253, 188, 34); fill-opacity: 0.9;"/><path class="point" transform="translate(198.68,340.56)" d="M3,0A3,3 0 1,1 0,-3A3,3 0 0,1 3,0Z" style="opacity: 1; stroke-width: 0px; fill: rgb(253, 188, 34); fill-opacity: 0.9;"/><path class="point" transform="translate(226.16,365.26)" d="M3,0A3,3 0 1,1 0,-3A3,3 0 0,1 3,0Z" style="opacity: 1; stroke-width: 0px; fill: rgb(253, 188, 34); fill-opacity: 0.9;"/><path class="point" transform="translate(273.26,341.44)" d="M3,0A3,3 0 1,1 0,-3A3,3 0 0,1 3,0Z" style="opacity: 1; stroke-width: 0px; fill: rgb(253, 188, 34); fill-opacity: 0.9;"/><path class="point" transform="translate(222.23,367.02)" d="M3,0A3,3 0 1,1 0,-3A3,3 0 0,1 3,0Z" style="opacity: 1; stroke-width: 0px; fill: rgb(253, 188, 34); fill-opacity: 0.9;"/><path class="point" transform="translate(179.06,351.14)" d="M3,0A3,3 0 1,1 0,-3A3,3 0 0,1 3,0Z" style="opacity: 1; stroke-width: 0px; fill: rgb(253, 188, 34); fill-opacity: 0.9;"/><path class="point" transform="translate(312.51,364.38)" d="M3,0A3,3 0 1,1 0,-3A3,3 0 0,1 3,0Z" style="opacity: 1; stroke-width: 0px; fill: rgb(253, 188, 34); fill-opacity: 0.9;"/><path class="point" transform="translate(281.11,360.85)" d="M3,0A3,3 0 1,1 0,-3A3,3 0 0,1 3,0Z" style="opacity: 1; stroke-width: 0px; fill: rgb(253, 188, 34); fill-opacity: 0.9;"/><path class="point" transform="translate(210.46,342.32)" d="M3,0A3,3 0 1,1 0,-3A3,3 0 0,1 3,0Z" style="opacity: 1; stroke-width: 0px; fill: rgb(253, 188, 34); fill-opacity: 0.9;"/><path class="point" transform="translate(167.28,368.79)" d="M3,0A3,3 0 1,1 0,-3A3,3 0 0,1 3,0Z" style="opacity: 1; stroke-width: 0px; fill: rgb(253, 188, 34); fill-opacity: 0.9;"/><path class="point" transform="translate(230.08,360.85)" d="M3,0A3,3 0 1,1 0,-3A3,3 0 0,1 3,0Z" style="opacity: 1; stroke-width: 0px; fill: rgb(253, 188, 34); fill-opacity: 0.9;"/><path class="point" transform="translate(324.29,351.14)" d="M3,0A3,3 0 1,1 0,-3A3,3 0 0,1 3,0Z" style="opacity: 1; stroke-width: 0px; fill: rgb(253, 188, 34); fill-opacity: 0.9;"/><path class="point" transform="translate(210.46,386.43)" d="M3,0A3,3 0 1,1 0,-3A3,3 0 0,1 3,0Z" style="opacity: 1; stroke-width: 0px; fill: rgb(253, 188, 34); fill-opacity: 0.9;"/><path class="point" transform="translate(167.28,342.32)" d="M3,0A3,3 0 1,1 0,-3A3,3 0 0,1 3,0Z" style="opacity: 1; stroke-width: 0px; fill: rgb(253, 188, 34); fill-opacity: 0.9;"/><path class="point" transform="translate(73.08,369.67)" d="M3,0A3,3 0 1,1 0,-3A3,3 0 0,1 3,0Z" style="opacity: 1; stroke-width: 0px; fill: rgb(253, 188, 34); fill-opacity: 0.9;"/><path class="point" transform="translate(324.29,338.79)" d="M3,0A3,3 0 1,1 0,-3A3,3 0 0,1 3,0Z" style="opacity: 1; stroke-width: 0px; fill: rgb(253, 188, 34); fill-opacity: 0.9;"/><path class="point" transform="translate(198.68,375.84)" d="M3,0A3,3 0 1,1 0,-3A3,3 0 0,1 3,0Z" style="opacity: 1; stroke-width: 0px; fill: rgb(253, 188, 34); fill-opacity: 0.9;"/><path class="point" transform="translate(88.78,340.56)" d="M3,0A3,3 0 1,1 0,-3A3,3 0 0,1 3,0Z" style="opacity: 1; stroke-width: 0px; fill: rgb(253, 188, 34); fill-opacity: 0.9;"/><path class="point" transform="translate(179.06,379.37)" d="M3,0A3,3 0 1,1 0,-3A3,3 0 0,1 3,0Z" style="opacity: 1; stroke-width: 0px; fill: rgb(253, 188, 34); fill-opacity: 0.9;"/><path class="point" transform="translate(167.28,368.79)" d="M3,0A3,3 0 1,1 0,-3A3,3 0 0,1 3,0Z" style="opacity: 1; stroke-width: 0px; fill: rgb(253, 188, 34); fill-opacity: 0.9;"/><path class="point" transform="translate(190.83,342.32)" d="M3,0A3,3 0 1,1 0,-3A3,3 0 0,1 3,0Z" style="opacity: 1; stroke-width: 0px; fill: rgb(253, 188, 34); fill-opacity: 0.9;"/><path class="point" transform="translate(206.53,373.2)" d="M3,0A3,3 0 1,1 0,-3A3,3 0 0,1 3,0Z" style="opacity: 1; stroke-width: 0px; fill: rgb(253, 188, 34); fill-opacity: 0.9;"/><path class="point" transform="translate(120.18,359.08)" d="M3,0A3,3 0 1,1 0,-3A3,3 0 0,1 3,0Z" style="opacity: 1; stroke-width: 0px; fill: rgb(253, 188, 34); fill-opacity: 0.9;"/><path class="point" transform="translate(222.23,363.49)" d="M3,0A3,3 0 1,1 0,-3A3,3 0 0,1 3,0Z" style="opacity: 1; stroke-width: 0px; fill: rgb(253, 188, 34); fill-opacity: 0.9;"/><path class="point" transform="translate(214.38,371.43)" d="M3,0A3,3 0 1,1 0,-3A3,3 0 0,1 3,0Z" style="opacity: 1; stroke-width: 0px; fill: rgb(253, 188, 34); fill-opacity: 0.9;"/><path class="point" transform="translate(186.91,361.73)" d="M3,0A3,3 0 1,1 0,-3A3,3 0 0,1 3,0Z" style="opacity: 1; stroke-width: 0px; fill: rgb(253, 188, 34); fill-opacity: 0.9;"/><path class="point" transform="translate(190.83,369.67)" d="M3,0A3,3 0 1,1 0,-3A3,3 0 0,1 3,0Z" style="opacity: 1; stroke-width: 0px; fill: rgb(253, 188, 34); fill-opacity: 0.9;"/><path class="point" transform="translate(292.89,383.78)" d="M3,0A3,3 0 1,1 0,-3A3,3 0 0,1 3,0Z" style="opacity: 1; stroke-width: 0px; fill: rgb(253, 188, 34); fill-opacity: 0.9;"/><path class="point" transform="translate(179.06,360.85)" d="M3,0A3,3 0 1,1 0,-3A3,3 0 0,1 3,0Z" style="opacity: 1; stroke-width: 0px; fill: rgb(253, 188, 34); fill-opacity: 0.9;"/><path class="point" transform="translate(131.95,381.14)" d="M3,0A3,3 0 1,1 0,-3A3,3 0 0,1 3,0Z" style="opacity: 1; stroke-width: 0px; fill: rgb(253, 188, 34); fill-opacity: 0.9;"/><path class="point" transform="translate(171.21,367.02)" d="M3,0A3,3 0 1,1 0,-3A3,3 0 0,1 3,0Z" style="opacity: 1; stroke-width: 0px; fill: rgb(253, 188, 34); fill-opacity: 0.9;"/><path class="point" transform="translate(151.58,373.2)" d="M3,0A3,3 0 1,1 0,-3A3,3 0 0,1 3,0Z" style="opacity: 1; stroke-width: 0px; fill: rgb(253, 188, 34); fill-opacity: 0.9;"/><path class="point" transform="translate(194.76,380.25)" d="M3,0A3,3 0 1,1 0,-3A3,3 0 0,1 3,0Z" style="opacity: 1; stroke-width: 0px; fill: rgb(253, 188, 34); fill-opacity: 0.9;"/><path class="point" transform="translate(336.07,362.61)" d="M3,0A3,3 0 1,1 0,-3A3,3 0 0,1 3,0Z" style="opacity: 1; stroke-width: 0px; fill: rgb(253, 188, 34); fill-opacity: 0.9;"/><path class="point" transform="translate(108.4,353.79)" d="M3,0A3,3 0 1,1 0,-3A3,3 0 0,1 3,0Z" style="opacity: 1; stroke-width: 0px; fill: rgb(253, 188, 34); fill-opacity: 0.9;"/><path class="point" transform="translate(139.8,379.37)" d="M3,0A3,3 0 1,1 0,-3A3,3 0 0,1 3,0Z" style="opacity: 1; stroke-width: 0px; fill: rgb(253, 188, 34); fill-opacity: 0.9;"/><path class="point" transform="translate(131.95,364.38)" d="M3,0A3,3 0 1,1 0,-3A3,3 0 0,1 3,0Z" style="opacity: 1; stroke-width: 0px; fill: rgb(253, 188, 34); fill-opacity: 0.9;"/><path class="point" transform="translate(116.25,395.25)" d="M3,0A3,3 0 1,1 0,-3A3,3 0 0,1 3,0Z" style="opacity: 1; stroke-width: 0px; fill: rgb(253, 188, 34); fill-opacity: 0.9;"/><path class="point" transform="translate(308.59,378.49)" d="M3,0A3,3 0 1,1 0,-3A3,3 0 0,1 3,0Z" style="opacity: 1; stroke-width: 0px; fill: rgb(253, 188, 34); fill-opacity: 0.9;"/><path class="point" transform="translate(269.34,352.91)" d="M3,0A3,3 0 1,1 0,-3A3,3 0 0,1 3,0Z" style="opacity: 1; stroke-width: 0px; fill: rgb(253, 188, 34); fill-opacity: 0.9;"/><path class="point" transform="translate(316.44,385.55)" d="M3,0A3,3 0 1,1 0,-3A3,3 0 0,1 3,0Z" style="opacity: 1; stroke-width: 0px; fill: rgb(253, 188, 34); fill-opacity: 0.9;"/><path class="point" transform="translate(167.28,346.73)" d="M3,0A3,3 0 1,1 0,-3A3,3 0 0,1 3,0Z" style="opacity: 1; stroke-width: 0px; fill: rgb(253, 188, 34); fill-opacity: 0.9;"/><path class="point" transform="translate(273.26,384.66)" d="M3,0A3,3 0 1,1 0,-3A3,3 0 0,1 3,0Z" style="opacity: 1; stroke-width: 0px; fill: rgb(253, 188, 34); fill-opacity: 0.9;"/><path class="point" transform="translate(308.59,362.61)" d="M3,0A3,3 0 1,1 0,-3A3,3 0 0,1 3,0Z" style="opacity: 1; stroke-width: 0px; fill: rgb(253, 188, 34); fill-opacity: 0.9;"/><path class="point" transform="translate(269.34,383.78)" d="M3,0A3,3 0 1,1 0,-3A3,3 0 0,1 3,0Z" style="opacity: 1; stroke-width: 0px; fill: rgb(253, 188, 34); fill-opacity: 0.9;"/><path class="point" transform="translate(159.43,387.31)" d="M3,0A3,3 0 1,1 0,-3A3,3 0 0,1 3,0Z" style="opacity: 1; stroke-width: 0px; fill: rgb(253, 188, 34); fill-opacity: 0.9;"/><path class="point" transform="translate(316.44,360.85)" d="M3,0A3,3 0 1,1 0,-3A3,3 0 0,1 3,0Z" style="opacity: 1; stroke-width: 0px; fill: rgb(253, 188, 34); fill-opacity: 0.9;"/><path class="point" transform="translate(265.41,339.68)" d="M3,0A3,3 0 1,1 0,-3A3,3 0 0,1 3,0Z" style="opacity: 1; stroke-width: 0px; fill: rgb(253, 188, 34); fill-opacity: 0.9;"/><path class="point" transform="translate(218.31,359.08)" d="M3,0A3,3 0 1,1 0,-3A3,3 0 0,1 3,0Z" style="opacity: 1; stroke-width: 0px; fill: rgb(253, 188, 34); fill-opacity: 0.9;"/><path class="point" transform="translate(285.04,391.72)" d="M3,0A3,3 0 1,1 0,-3A3,3 0 0,1 3,0Z" style="opacity: 1; stroke-width: 0px; fill: rgb(253, 188, 34); fill-opacity: 0.9;"/><path class="point" transform="translate(261.49,379.37)" d="M3,0A3,3 0 1,1 0,-3A3,3 0 0,1 3,0Z" style="opacity: 1; stroke-width: 0px; fill: rgb(253, 188, 34); fill-opacity: 0.9;"/><path class="point" transform="translate(155.51,371.43)" d="M3,0A3,3 0 1,1 0,-3A3,3 0 0,1 3,0Z" style="opacity: 1; stroke-width: 0px; fill: rgb(253, 188, 34); fill-opacity: 0.9;"/><path class="point" transform="translate(116.25,388.19)" d="M3,0A3,3 0 1,1 0,-3A3,3 0 0,1 3,0Z" style="opacity: 1; stroke-width: 0px; fill: rgb(253, 188, 34); fill-opacity: 0.9;"/><path class="point" transform="translate(159.43,357.32)" d="M3,0A3,3 0 1,1 0,-3A3,3 0 0,1 3,0Z" style="opacity: 1; stroke-width: 0px; fill: rgb(253, 188, 34); fill-opacity: 0.9;"/><path class="point" transform="translate(139.8,390.84)" d="M3,0A3,3 0 1,1 0,-3A3,3 0 0,1 3,0Z" style="opacity: 1; stroke-width: 0px; fill: rgb(253, 188, 34); fill-opacity: 0.9;"/><path class="point" transform="translate(104.48,352.03)" d="M3,0A3,3 0 1,1 0,-3A3,3 0 0,1 3,0Z" style="opacity: 1; stroke-width: 0px; fill: rgb(253, 188, 34); fill-opacity: 0.9;"/><path class="point" transform="translate(336.07,340.56)" d="M3,0A3,3 0 1,1 0,-3A3,3 0 0,1 3,0Z" style="opacity: 1; stroke-width: 0px; fill: rgb(253, 188, 34); fill-opacity: 0.9;"/><path class="point" transform="translate(218.31,357.32)" d="M3,0A3,3 0 1,1 0,-3A3,3 0 0,1 3,0Z" style="opacity: 1; stroke-width: 0px; fill: rgb(253, 188, 34); fill-opacity: 0.9;"/><path class="point" transform="translate(128.03,368.79)" d="M3,0A3,3 0 1,1 0,-3A3,3 0 0,1 3,0Z" style="opacity: 1; stroke-width: 0px; fill: rgb(253, 188, 34); fill-opacity: 0.9;"/><path class="point" transform="translate(147.66,374.96)" d="M3,0A3,3 0 1,1 0,-3A3,3 0 0,1 3,0Z" style="opacity: 1; stroke-width: 0px; fill: rgb(253, 188, 34); fill-opacity: 0.9;"/><path class="point" transform="translate(277.19,374.08)" d="M3,0A3,3 0 1,1 0,-3A3,3 0 0,1 3,0Z" style="opacity: 1; stroke-width: 0px; fill: rgb(253, 188, 34); fill-opacity: 0.9;"/><path class="point" transform="translate(186.91,358.2)" d="M3,0A3,3 0 1,1 0,-3A3,3 0 0,1 3,0Z" style="opacity: 1; stroke-width: 0px; fill: rgb(253, 188, 34); fill-opacity: 0.9;"/><path class="point" transform="translate(151.58,369.67)" d="M3,0A3,3 0 1,1 0,-3A3,3 0 0,1 3,0Z" style="opacity: 1; stroke-width: 0px; fill: rgb(253, 188, 34); fill-opacity: 0.9;"/><path class="point" transform="translate(131.95,382.02)" d="M3,0A3,3 0 1,1 0,-3A3,3 0 0,1 3,0Z" style="opacity: 1; stroke-width: 0px; fill: rgb(253, 188, 34); fill-opacity: 0.9;"/><path class="point" transform="translate(163.36,339.68)" d="M3,0A3,3 0 1,1 0,-3A3,3 0 0,1 3,0Z" style="opacity: 1; stroke-width: 0px; fill: rgb(253, 188, 34); fill-opacity: 0.9;"/><path class="point" transform="translate(194.76,353.79)" d="M3,0A3,3 0 1,1 0,-3A3,3 0 0,1 3,0Z" style="opacity: 1; stroke-width: 0px; fill: rgb(253, 188, 34); fill-opacity: 0.9;"/><path class="point" transform="translate(277.19,336.15)" d="M3,0A3,3 0 1,1 0,-3A3,3 0 0,1 3,0Z" style="opacity: 1; stroke-width: 0px; fill: rgb(253, 188, 34); fill-opacity: 0.9;"/><path class="point" transform="translate(167.28,333.5)" d="M3,0A3,3 0 1,1 0,-3A3,3 0 0,1 3,0Z" style="opacity: 1; stroke-width: 0px; fill: rgb(253, 188, 34); fill-opacity: 0.9;"/><path class="point" transform="translate(210.46,390.84)" d="M3,0A3,3 0 1,1 0,-3A3,3 0 0,1 3,0Z" style="opacity: 1; stroke-width: 0px; fill: rgb(253, 188, 34); fill-opacity: 0.9;"/><path class="point" transform="translate(163.36,368.79)" d="M3,0A3,3 0 1,1 0,-3A3,3 0 0,1 3,0Z" style="opacity: 1; stroke-width: 0px; fill: rgb(253, 188, 34); fill-opacity: 0.9;"/><path class="point" transform="translate(186.91,356.44)" d="M3,0A3,3 0 1,1 0,-3A3,3 0 0,1 3,0Z" style="opacity: 1; stroke-width: 0px; fill: rgb(253, 188, 34); fill-opacity: 0.9;"/><path class="point" transform="translate(171.21,341.44)" d="M3,0A3,3 0 1,1 0,-3A3,3 0 0,1 3,0Z" style="opacity: 1; stroke-width: 0px; fill: rgb(253, 188, 34); fill-opacity: 0.9;"/></g><g class="text"/></g></g></g><g class="overplot"/><path class="xlines-above crisp" d="M0,0" style="fill: none;"/><path class="ylines-above crisp" d="M0,0" style="fill: none;"/><g class="overlines-above"/><g class="xaxislayer-above"><g class="xtick"><text text-anchor="middle" x="0" y="533" transform="translate(194.64,0)" style="font-family: 'Open Sans', verdana, arial, sans-serif; font-size: 12px; fill: rgb(42, 63, 95); fill-opacity: 1; white-space: pre;">−1</text></g><g class="xtick"><text text-anchor="middle" x="0" y="533" transform="translate(316.99,0)" style="font-family: 'Open Sans', verdana, arial, sans-serif; font-size: 12px; fill: rgb(42, 63, 95); fill-opacity: 1; white-space: pre;">0</text></g><g class="xtick"><text text-anchor="middle" x="0" y="533" transform="translate(439.34,0)" style="font-family: 'Open Sans', verdana, arial, sans-serif; font-size: 12px; fill: rgb(42, 63, 95); fill-opacity: 1; white-space: pre;">1</text></g><g class="xtick"><text text-anchor="middle" x="0" y="533" transform="translate(561.69,0)" style="font-family: 'Open Sans', verdana, arial, sans-serif; font-size: 12px; fill: rgb(42, 63, 95); fill-opacity: 1; white-space: pre;">2</text></g><g class="xtick"><text text-anchor="middle" x="0" y="533" transform="translate(684.04,0)" style="font-family: 'Open Sans', verdana, arial, sans-serif; font-size: 12px; fill: rgb(42, 63, 95); fill-opacity: 1; white-space: pre;">3</text></g><g class="xtick"><text text-anchor="middle" x="0" y="533" transform="translate(806.38,0)" style="font-family: 'Open Sans', verdana, arial, sans-serif; font-size: 12px; fill: rgb(42, 63, 95); fill-opacity: 1; white-space: pre;">4</text></g><g class="xtick"><text text-anchor="middle" x="0" y="533" transform="translate(928.73,0)" style="font-family: 'Open Sans', verdana, arial, sans-serif; font-size: 12px; fill: rgb(42, 63, 95); fill-opacity: 1; white-space: pre;">5</text></g><g class="xtick"><text text-anchor="middle" x="0" y="533" transform="translate(1051.08,0)" style="font-family: 'Open Sans', verdana, arial, sans-serif; font-size: 12px; fill: rgb(42, 63, 95); fill-opacity: 1; white-space: pre;">6</text></g></g><g class="yaxislayer-above"><g class="ytick"><text text-anchor="end" x="79" y="4.199999999999999" transform="translate(0,498.24)" style="font-family: 'Open Sans', verdana, arial, sans-serif; font-size: 12px; fill: rgb(42, 63, 95); fill-opacity: 1; white-space: pre;">−1</text></g><g class="ytick"><text text-anchor="end" x="79" y="4.199999999999999" transform="translate(0,441.14)" style="font-family: 'Open Sans', verdana, arial, sans-serif; font-size: 12px; fill: rgb(42, 63, 95); fill-opacity: 1; white-space: pre;">0</text></g><g class="ytick"><text text-anchor="end" x="79" y="4.199999999999999" transform="translate(0,384.03)" style="font-family: 'Open Sans', verdana, arial, sans-serif; font-size: 12px; fill: rgb(42, 63, 95); fill-opacity: 1; white-space: pre;">1</text></g><g class="ytick"><text text-anchor="end" x="79" y="4.199999999999999" transform="translate(0,326.93)" style="font-family: 'Open Sans', verdana, arial, sans-serif; font-size: 12px; fill: rgb(42, 63, 95); fill-opacity: 1; white-space: pre;">2</text></g><g class="ytick"><text text-anchor="end" x="79" y="4.199999999999999" transform="translate(0,269.82)" style="font-family: 'Open Sans', verdana, arial, sans-serif; font-size: 12px; fill: rgb(42, 63, 95); fill-opacity: 1; white-space: pre;">3</text></g><g class="ytick"><text text-anchor="end" x="79" y="4.199999999999999" transform="translate(0,212.72)" style="font-family: 'Open Sans', verdana, arial, sans-serif; font-size: 12px; fill: rgb(42, 63, 95); fill-opacity: 1; white-space: pre;">4</text></g><g class="ytick"><text text-anchor="end" x="79" y="4.199999999999999" transform="translate(0,155.61)" style="font-family: 'Open Sans', verdana, arial, sans-serif; font-size: 12px; fill: rgb(42, 63, 95); fill-opacity: 1; white-space: pre;">5</text></g></g><g class="overaxes-above"/></g></g><g class="polarlayer"/><g class="ternarylayer"/><g class="geolayer"/><g class="funnelarealayer"/><g class="pielayer"/><g class="treemaplayer"/><g class="sunburstlayer"/><g class="glimages"/><defs id="topdefs-d7aea0"><g class="clips"/><clipPath id="legendd7aea0"><rect width="94" height="48" x="0" y="0"/></clipPath></defs><g class="layer-above"><g class="imagelayer"/><g class="shapelayer"/></g><g class="infolayer"><g class="legend" pointer-events="all" transform="translate(1093.88,100)"><rect class="bg" shape-rendering="crispEdges" width="94" height="48" x="0" y="0" style="stroke: rgb(68, 68, 68); stroke-opacity: 1; fill: rgb(255, 255, 255); fill-opacity: 1; stroke-width: 0px;"/><g class="scrollbox" transform="" clip-path="url('#legendd7aea0')"><g class="groups"><g class="traces" transform="translate(0,14.5)" style="opacity: 1;"><text class="legendtext" text-anchor="start" x="40" y="4.680000000000001" style="font-family: 'Open Sans', verdana, arial, sans-serif; font-size: 12px; fill: rgb(42, 63, 95); fill-opacity: 1; white-space: pre;">Class: 1</text><g class="layers" style="opacity: 1;"><g class="legendfill"/><g class="legendlines"/><g class="legendsymbols"><g class="legendpoints"><path class="scatterpts" transform="translate(20,0)" d="M3,0A3,3 0 1,1 0,-3A3,3 0 0,1 3,0Z" style="opacity: 1; stroke-width: 0px; fill: rgb(2, 21, 51); fill-opacity: 0.9;"/></g></g></g><rect class="legendtoggle" x="0" y="-9.5" width="88.6875" height="19" style="fill: rgb(0, 0, 0); fill-opacity: 0;"/></g><g class="traces" transform="translate(0,33.5)" style="opacity: 1;"><text class="legendtext" text-anchor="start" x="40" y="4.680000000000001" style="font-family: 'Open Sans', verdana, arial, sans-serif; font-size: 12px; fill: rgb(42, 63, 95); fill-opacity: 1; white-space: pre;">Class: 0</text><g class="layers" style="opacity: 1;"><g class="legendfill"/><g class="legendlines"/><g class="legendsymbols"><g class="legendpoints"><path class="scatterpts" transform="translate(20,0)" d="M3,0A3,3 0 1,1 0,-3A3,3 0 0,1 3,0Z" style="opacity: 1; stroke-width: 0px; fill: rgb(253, 188, 34); fill-opacity: 0.9;"/></g></g></g><rect class="legendtoggle" x="0" y="-9.5" width="88.6875" height="19" style="fill: rgb(0, 0, 0); fill-opacity: 0;"/></g></g></g><rect class="scrollbar" rx="20" ry="3" width="0" height="0" x="0" y="0" style="fill: rgb(128, 139, 164); fill-opacity: 1;"/></g><g class="g-gtitle"><text class="gtitle" x="60" y="50" text-anchor="start" dy="0em" style="font-family: 'Open Sans', verdana, arial, sans-serif; font-size: 17px; fill: rgb(42, 63, 95); opacity: 1; font-weight: normal; white-space: pre;">2D Scatter: KNN of CKD</text></g><g class="g-xtitle"><text class="xtitle" x="577" y="560.3" text-anchor="middle" style="font-family: 'Open Sans', verdana, arial, sans-serif; font-size: 14px; fill: rgb(42, 63, 95); opacity: 1; font-weight: normal; white-space: pre;">White Blood Cell Count</text></g><g class="g-ytitle"><text class="ytitle" transform="rotate(-90,36.746875,310)" x="36.746875" y="310" text-anchor="middle" style="font-family: 'Open Sans', verdana, arial, sans-serif; font-size: 14px; fill: rgb(42, 63, 95); opacity: 1; font-weight: normal; white-space: pre;">Glucose</text></g></g></svg>