<svg class="main-svg" xmlns="http://www.w3.org/2000/svg" xmlns:xlink="http://www.w3.org/1999/xlink" width="800" height="800" style="" viewBox="0 0 800 800"><rect x="0" y="0" width="800" height="800" style="fill: rgb(255, 255, 255); fill-opacity: 1;"/><defs id="defs-1eb7da"><g class="clips"><clipPath id="clip1eb7daxyplot" class="plotclip"><rect width="591" height="620"/></clipPath><clipPath class="axesclip" id="clip1eb7dax"><rect x="80" y="0" width="591" height="800"/></clipPath><clipPath class="axesclip" id="clip1eb7day"><rect x="0" y="100" width="800" height="620"/></clipPath><clipPath class="axesclip" id="clip1eb7daxy"><rect x="80" y="100" width="591" height="620"/></clipPath></g><g class="gradients"/></defs><g class="bglayer"/><g class="layer-below"><g class="imagelayer"/><g class="shapelayer"/></g><g class="cartesianlayer"><g class="subplot xy"><g class="layer-subplot"><g class="shapelayer"/><g class="imagelayer"/></g><g class="gridlayer"><g class="x"><path class="xgrid crisp" transform="translate(102.53,0)" d="M0,100v620" style="stroke: rgb(235, 240, 248); stroke-opacity: 1; stroke-width: 1px;"/><path class="xgrid crisp" transform="translate(176.81,0)" d="M0,100v620" style="stroke: rgb(235, 240, 248); stroke-opacity: 1; stroke-width: 1px;"/><path class="xgrid crisp" transform="translate(251.08,0)" d="M0,100v620" style="stroke: rgb(235, 240, 248); stroke-opacity: 1; stroke-width: 1px;"/><path class="xgrid crisp" transform="translate(325.36,0)" d="M0,100v620" style="stroke: rgb(235, 240, 248); stroke-opacity: 1; stroke-width: 1px;"/><path class="xgrid crisp" transform="translate(399.64,0)" d="M0,100v620" style="stroke: rgb(235, 240, 248); stroke-opacity: 1; stroke-width: 1px;"/><path class="xgrid crisp" transform="translate(473.92,0)" d="M0,100v620" style="stroke: rgb(235, 240, 248); stroke-opacity: 1; stroke-width: 1px;"/><path class="xgrid crisp" transform="translate(548.2,0)" d="M0,100v620" style="stroke: rgb(235, 240, 248); stroke-opacity: 1; stroke-width: 1px;"/><path class="xgrid crisp" transform="translate(622.47,0)" d="M0,100v620" style="stroke: rgb(235, 240, 248); stroke-opacity: 1; stroke-width: 1px;"/></g><g class="y"><path class="ygrid crisp" transform="translate(0,655.72)" d="M80,0h591" style="stroke: rgb(235, 240, 248); stroke-opacity: 1; stroke-width: 1px;"/><path class="ygrid crisp" transform="translate(0,557.27)" d="M80,0h591" style="stroke: rgb(235, 240, 248); stroke-opacity: 1; stroke-width: 1px;"/><path class="ygrid crisp" transform="translate(0,458.83)" d="M80,0h591" style="stroke: rgb(235, 240, 248); stroke-opacity: 1; stroke-width: 1px;"/><path class="ygrid crisp" transform="translate(0,360.38)" d="M80,0h591" style="stroke: rgb(235, 240, 248); stroke-opacity: 1; stroke-width: 1px;"/><path class="ygrid crisp" transform="translate(0,261.94)" d="M80,0h591" style="stroke: rgb(235, 240, 248); stroke-opacity: 1; stroke-width: 1px;"/><path class="ygrid crisp" transform="translate(0,163.5)" d="M80,0h591" style="stroke: rgb(235, 240, 248); stroke-opacity: 1; stroke-width: 1px;"/></g></g><g class="zerolinelayer"/><path class="xlines-below"/><path class="ylines-below"/><g class="overlines-below"/><g class="xaxislayer-below"/><g class="yaxislayer-below"/><g class="overaxes-below"/><g class="plot" transform="translate(80,100)" clip-path="url('#clip1eb7daxyplot')"><g class="scatterlayer mlayer"><g class="trace scatter trace89330b" style="stroke-miterlimit: 2; opacity: 1;"><g class="fills"/><g class="errorbars"/><g class="lines"/><g class="points"><path class="point" transform="translate(76.75,346.42)" d="M3,0A3,3 0 1,1 0,-3A3,3 0 0,1 3,0Z" style="opacity: 1; stroke-width: 0px; fill: rgb(55, 73, 99); fill-opacity: 0.8;"/><path class="point" transform="translate(104.24,220.02)" d="M3,0A3,3 0 1,1 0,-3A3,3 0 0,1 3,0Z" style="opacity: 1; stroke-width: 0px; fill: rgb(55, 73, 99); fill-opacity: 0.8;"/><path class="point" transform="translate(95.69,307.34)" d="M3,0A3,3 0 1,1 0,-3A3,3 0 0,1 3,0Z" style="opacity: 1; stroke-width: 0px; fill: rgb(55, 73, 99); fill-opacity: 0.8;"/><path class="point" transform="translate(153.26,230.85)" d="M3,0A3,3 0 1,1 0,-3A3,3 0 0,1 3,0Z" style="opacity: 1; stroke-width: 0px; fill: rgb(55, 73, 99); fill-opacity: 0.8;"/><path class="point" transform="translate(61.15,289.52)" d="M3,0A3,3 0 1,1 0,-3A3,3 0 0,1 3,0Z" style="opacity: 1; stroke-width: 0px; fill: rgb(55, 73, 99); fill-opacity: 0.8;"/><path class="point" transform="translate(153.26,230.85)" d="M3,0A3,3 0 1,1 0,-3A3,3 0 0,1 3,0Z" style="opacity: 1; stroke-width: 0px; fill: rgb(55, 73, 99); fill-opacity: 0.8;"/><path class="point" transform="translate(160.31,230.85)" d="M3,0A3,3 0 1,1 0,-3A3,3 0 0,1 3,0Z" style="opacity: 1; stroke-width: 0px; fill: rgb(55, 73, 99); fill-opacity: 0.8;"/><path class="point" transform="translate(109.06,354.3)" d="M3,0A3,3 0 1,1 0,-3A3,3 0 0,1 3,0Z" style="opacity: 1; stroke-width: 0px; fill: rgb(55, 73, 99); fill-opacity: 0.8;"/><path class="point" transform="translate(153.26,230.85)" d="M3,0A3,3 0 1,1 0,-3A3,3 0 0,1 3,0Z" style="opacity: 1; stroke-width: 0px; fill: rgb(55, 73, 99); fill-opacity: 0.8;"/><path class="point" transform="translate(119.83,348.98)" d="M3,0A3,3 0 1,1 0,-3A3,3 0 0,1 3,0Z" style="opacity: 1; stroke-width: 0px; fill: rgb(55, 73, 99); fill-opacity: 0.8;"/><path class="point" transform="translate(182.97,437.68)" d="M3,0A3,3 0 1,1 0,-3A3,3 0 0,1 3,0Z" style="opacity: 1; stroke-width: 0px; fill: rgb(55, 73, 99); fill-opacity: 0.8;"/><path class="point" transform="translate(146.94,240.7)" d="M3,0A3,3 0 1,1 0,-3A3,3 0 0,1 3,0Z" style="opacity: 1; stroke-width: 0px; fill: rgb(55, 73, 99); fill-opacity: 0.8;"/><path class="point" transform="translate(167.37,299.76)" d="M3,0A3,3 0 1,1 0,-3A3,3 0 0,1 3,0Z" style="opacity: 1; stroke-width: 0px; fill: rgb(55, 73, 99); fill-opacity: 0.8;"/><path class="point" transform="translate(137.29,585.25)" d="M3,0A3,3 0 1,1 0,-3A3,3 0 0,1 3,0Z" style="opacity: 1; stroke-width: 0px; fill: rgb(55, 73, 99); fill-opacity: 0.8;"/><path class="point" transform="translate(273.59,474.7)" d="M3,0A3,3 0 1,1 0,-3A3,3 0 0,1 3,0Z" style="opacity: 1; stroke-width: 0px; fill: rgb(55, 73, 99); fill-opacity: 0.8;"/><path class="point" transform="translate(83.07,358.93)" d="M3,0A3,3 0 1,1 0,-3A3,3 0 0,1 3,0Z" style="opacity: 1; stroke-width: 0px; fill: rgb(55, 73, 99); fill-opacity: 0.8;"/><path class="point" transform="translate(273.59,463.18)" d="M3,0A3,3 0 1,1 0,-3A3,3 0 0,1 3,0Z" style="opacity: 1; stroke-width: 0px; fill: rgb(55, 73, 99); fill-opacity: 0.8;"/><path class="point" transform="translate(160.31,240.7)" d="M3,0A3,3 0 1,1 0,-3A3,3 0 0,1 3,0Z" style="opacity: 1; stroke-width: 0px; fill: rgb(55, 73, 99); fill-opacity: 0.8;"/><path class="point" transform="translate(106.46,348.98)" d="M3,0A3,3 0 1,1 0,-3A3,3 0 0,1 3,0Z" style="opacity: 1; stroke-width: 0px; fill: rgb(55, 73, 99); fill-opacity: 0.8;"/><path class="point" transform="translate(153.26,467.12)" d="M3,0A3,3 0 1,1 0,-3A3,3 0 0,1 3,0Z" style="opacity: 1; stroke-width: 0px; fill: rgb(55, 73, 99); fill-opacity: 0.8;"/><path class="point" transform="translate(354.18,476.96)" d="M3,0A3,3 0 1,1 0,-3A3,3 0 0,1 3,0Z" style="opacity: 1; stroke-width: 0px; fill: rgb(55, 73, 99); fill-opacity: 0.8;"/><path class="point" transform="translate(212.31,585.25)" d="M3,0A3,3 0 1,1 0,-3A3,3 0 0,1 3,0Z" style="opacity: 1; stroke-width: 0px; fill: rgb(55, 73, 99); fill-opacity: 0.8;"/><path class="point" transform="translate(133.2,428.43)" d="M3,0A3,3 0 1,1 0,-3A3,3 0 0,1 3,0Z" style="opacity: 1; stroke-width: 0px; fill: rgb(55, 73, 99); fill-opacity: 0.8;"/><path class="point" transform="translate(218.62,421.44)" d="M3,0A3,3 0 1,1 0,-3A3,3 0 0,1 3,0Z" style="opacity: 1; stroke-width: 0px; fill: rgb(55, 73, 99); fill-opacity: 0.8;"/><path class="point" transform="translate(492.34,423.8)" d="M3,0A3,3 0 1,1 0,-3A3,3 0 0,1 3,0Z" style="opacity: 1; stroke-width: 0px; fill: rgb(55, 73, 99); fill-opacity: 0.8;"/><path class="point" transform="translate(143.6,289.52)" d="M3,0A3,3 0 1,1 0,-3A3,3 0 0,1 3,0Z" style="opacity: 1; stroke-width: 0px; fill: rgb(55, 73, 99); fill-opacity: 0.8;"/><path class="point" transform="translate(293.27,428.43)" d="M3,0A3,3 0 1,1 0,-3A3,3 0 0,1 3,0Z" style="opacity: 1; stroke-width: 0px; fill: rgb(55, 73, 99); fill-opacity: 0.8;"/><path class="point" transform="translate(204.88,532.58)" d="M3,0A3,3 0 1,1 0,-3A3,3 0 0,1 3,0Z" style="opacity: 1; stroke-width: 0px; fill: rgb(55, 73, 99); fill-opacity: 0.8;"/><path class="point" transform="translate(273.59,497.93)" d="M3,0A3,3 0 1,1 0,-3A3,3 0 0,1 3,0Z" style="opacity: 1; stroke-width: 0px; fill: rgb(55, 73, 99); fill-opacity: 0.8;"/><path class="point" transform="translate(451.11,545.87)" d="M3,0A3,3 0 1,1 0,-3A3,3 0 0,1 3,0Z" style="opacity: 1; stroke-width: 0px; fill: rgb(55, 73, 99); fill-opacity: 0.8;"/><path class="point" transform="translate(218.62,440.04)" d="M3,0A3,3 0 1,1 0,-3A3,3 0 0,1 3,0Z" style="opacity: 1; stroke-width: 0px; fill: rgb(55, 73, 99); fill-opacity: 0.8;"/><path class="point" transform="translate(255.76,538.19)" d="M3,0A3,3 0 1,1 0,-3A3,3 0 0,1 3,0Z" style="opacity: 1; stroke-width: 0px; fill: rgb(55, 73, 99); fill-opacity: 0.8;"/><path class="point" transform="translate(203.4,486.81)" d="M3,0A3,3 0 1,1 0,-3A3,3 0 0,1 3,0Z" style="opacity: 1; stroke-width: 0px; fill: rgb(55, 73, 99); fill-opacity: 0.8;"/><path class="point" transform="translate(198.94,496.65)" d="M3,0A3,3 0 1,1 0,-3A3,3 0 0,1 3,0Z" style="opacity: 1; stroke-width: 0px; fill: rgb(55, 73, 99); fill-opacity: 0.8;"/><path class="point" transform="translate(226.42,585.25)" d="M3,0A3,3 0 1,1 0,-3A3,3 0 0,1 3,0Z" style="opacity: 1; stroke-width: 0px; fill: rgb(55, 73, 99); fill-opacity: 0.8;"/><path class="point" transform="translate(122.8,386.79)" d="M3,0A3,3 0 1,1 0,-3A3,3 0 0,1 3,0Z" style="opacity: 1; stroke-width: 0px; fill: rgb(55, 73, 99); fill-opacity: 0.8;"/><path class="point" transform="translate(137.29,532.58)" d="M3,0A3,3 0 1,1 0,-3A3,3 0 0,1 3,0Z" style="opacity: 1; stroke-width: 0px; fill: rgb(55, 73, 99); fill-opacity: 0.8;"/><path class="point" transform="translate(153.26,456.19)" d="M3,0A3,3 0 1,1 0,-3A3,3 0 0,1 3,0Z" style="opacity: 1; stroke-width: 0px; fill: rgb(55, 73, 99); fill-opacity: 0.8;"/><path class="point" transform="translate(308.5,417.89)" d="M3,0A3,3 0 1,1 0,-3A3,3 0 0,1 3,0Z" style="opacity: 1; stroke-width: 0px; fill: rgb(55, 73, 99); fill-opacity: 0.8;"/><path class="point" transform="translate(91.98,405.29)" d="M3,0A3,3 0 1,1 0,-3A3,3 0 0,1 3,0Z" style="opacity: 1; stroke-width: 0px; fill: rgb(55, 73, 99); fill-opacity: 0.8;"/><path class="point" transform="translate(299.96,437.68)" d="M3,0A3,3 0 1,1 0,-3A3,3 0 0,1 3,0Z" style="opacity: 1; stroke-width: 0px; fill: rgb(55, 73, 99); fill-opacity: 0.8;"/><path class="point" transform="translate(267.65,516.44)" d="M3,0A3,3 0 1,1 0,-3A3,3 0 0,1 3,0Z" style="opacity: 1; stroke-width: 0px; fill: rgb(55, 73, 99); fill-opacity: 0.8;"/><path class="point" transform="translate(156.23,280.27)" d="M3,0A3,3 0 1,1 0,-3A3,3 0 0,1 3,0Z" style="opacity: 1; stroke-width: 0px; fill: rgb(55, 73, 99); fill-opacity: 0.8;"/><path class="point" transform="translate(315.55,493.3)" d="M3,0A3,3 0 1,1 0,-3A3,3 0 0,1 3,0Z" style="opacity: 1; stroke-width: 0px; fill: rgb(55, 73, 99); fill-opacity: 0.8;"/><path class="point" transform="translate(228.65,352.04)" d="M3,0A3,3 0 1,1 0,-3A3,3 0 0,1 3,0Z" style="opacity: 1; stroke-width: 0px; fill: rgb(55, 73, 99); fill-opacity: 0.8;"/><path class="point" transform="translate(228.65,220.02)" d="M3,0A3,3 0 1,1 0,-3A3,3 0 0,1 3,0Z" style="opacity: 1; stroke-width: 0px; fill: rgb(55, 73, 99); fill-opacity: 0.8;"/><path class="point" transform="translate(178.88,340.42)" d="M3,0A3,3 0 1,1 0,-3A3,3 0 0,1 3,0Z" style="opacity: 1; stroke-width: 0px; fill: rgb(55, 73, 99); fill-opacity: 0.8;"/><path class="point" transform="translate(466.71,567.33)" d="M3,0A3,3 0 1,1 0,-3A3,3 0 0,1 3,0Z" style="opacity: 1; stroke-width: 0px; fill: rgb(55, 73, 99); fill-opacity: 0.8;"/><path class="point" transform="translate(228.65,220.02)" d="M3,0A3,3 0 1,1 0,-3A3,3 0 0,1 3,0Z" style="opacity: 1; stroke-width: 0px; fill: rgb(55, 73, 99); fill-opacity: 0.8;"/><path class="point" transform="translate(137.29,467.12)" d="M3,0A3,3 0 1,1 0,-3A3,3 0 0,1 3,0Z" style="opacity: 1; stroke-width: 0px; fill: rgb(55, 73, 99); fill-opacity: 0.8;"/><path class="point" transform="translate(308.5,476.96)" d="M3,0A3,3 0 1,1 0,-3A3,3 0 0,1 3,0Z" style="opacity: 1; stroke-width: 0px; fill: rgb(55, 73, 99); fill-opacity: 0.8;"/><path class="point" transform="translate(301.44,545.87)" d="M3,0A3,3 0 1,1 0,-3A3,3 0 0,1 3,0Z" style="opacity: 1; stroke-width: 0px; fill: rgb(55, 73, 99); fill-opacity: 0.8;"/><path class="point" transform="translate(109.06,545.87)" d="M3,0A3,3 0 1,1 0,-3A3,3 0 0,1 3,0Z" style="opacity: 1; stroke-width: 0px; fill: rgb(55, 73, 99); fill-opacity: 0.8;"/><path class="point" transform="translate(128.38,81.12)" d="M3,0A3,3 0 1,1 0,-3A3,3 0 0,1 3,0Z" style="opacity: 1; stroke-width: 0px; fill: rgb(55, 73, 99); fill-opacity: 0.8;"/><path class="point" transform="translate(142.86,388.36)" d="M3,0A3,3 0 1,1 0,-3A3,3 0 0,1 3,0Z" style="opacity: 1; stroke-width: 0px; fill: rgb(55, 73, 99); fill-opacity: 0.8;"/><path class="point" transform="translate(142.86,455.8)" d="M3,0A3,3 0 1,1 0,-3A3,3 0 0,1 3,0Z" style="opacity: 1; stroke-width: 0px; fill: rgb(55, 73, 99); fill-opacity: 0.8;"/><path class="point" transform="translate(370.89,470.07)" d="M3,0A3,3 0 1,1 0,-3A3,3 0 0,1 3,0Z" style="opacity: 1; stroke-width: 0px; fill: rgb(55, 73, 99); fill-opacity: 0.8;"/><path class="point" transform="translate(322.61,421.44)" d="M3,0A3,3 0 1,1 0,-3A3,3 0 0,1 3,0Z" style="opacity: 1; stroke-width: 0px; fill: rgb(55, 73, 99); fill-opacity: 0.8;"/><path class="point" transform="translate(247.22,463.18)" d="M3,0A3,3 0 1,1 0,-3A3,3 0 0,1 3,0Z" style="opacity: 1; stroke-width: 0px; fill: rgb(55, 73, 99); fill-opacity: 0.8;"/><path class="point" transform="translate(64.87,444.67)" d="M3,0A3,3 0 1,1 0,-3A3,3 0 0,1 3,0Z" style="opacity: 1; stroke-width: 0px; fill: rgb(55, 73, 99); fill-opacity: 0.8;"/><path class="point" transform="translate(557.7,534.95)" d="M3,0A3,3 0 1,1 0,-3A3,3 0 0,1 3,0Z" style="opacity: 1; stroke-width: 0px; fill: rgb(55, 73, 99); fill-opacity: 0.8;"/><path class="point" transform="translate(213.79,382.16)" d="M3,0A3,3 0 1,1 0,-3A3,3 0 0,1 3,0Z" style="opacity: 1; stroke-width: 0px; fill: rgb(55, 73, 99); fill-opacity: 0.8;"/><path class="point" transform="translate(106.46,457.27)" d="M3,0A3,3 0 1,1 0,-3A3,3 0 0,1 3,0Z" style="opacity: 1; stroke-width: 0px; fill: rgb(55, 73, 99); fill-opacity: 0.8;"/><path class="point" transform="translate(345.64,388.36)" d="M3,0A3,3 0 1,1 0,-3A3,3 0 0,1 3,0Z" style="opacity: 1; stroke-width: 0px; fill: rgb(55, 73, 99); fill-opacity: 0.8;"/><path class="point" transform="translate(346.01,495.57)" d="M3,0A3,3 0 1,1 0,-3A3,3 0 0,1 3,0Z" style="opacity: 1; stroke-width: 0px; fill: rgb(55, 73, 99); fill-opacity: 0.8;"/><path class="point" transform="translate(140.26,348.98)" d="M3,0A3,3 0 1,1 0,-3A3,3 0 0,1 3,0Z" style="opacity: 1; stroke-width: 0px; fill: rgb(55, 73, 99); fill-opacity: 0.8;"/><path class="point" transform="translate(492.34,421.44)" d="M3,0A3,3 0 1,1 0,-3A3,3 0 0,1 3,0Z" style="opacity: 1; stroke-width: 0px; fill: rgb(55, 73, 99); fill-opacity: 0.8;"/><path class="point" transform="translate(200.05,408.05)" d="M3,0A3,3 0 1,1 0,-3A3,3 0 0,1 3,0Z" style="opacity: 1; stroke-width: 0px; fill: rgb(55, 73, 99); fill-opacity: 0.8;"/><path class="point" transform="translate(258.36,467.12)" d="M3,0A3,3 0 1,1 0,-3A3,3 0 0,1 3,0Z" style="opacity: 1; stroke-width: 0px; fill: rgb(55, 73, 99); fill-opacity: 0.8;"/><path class="point" transform="translate(226.42,368.67)" d="M3,0A3,3 0 1,1 0,-3A3,3 0 0,1 3,0Z" style="opacity: 1; stroke-width: 0px; fill: rgb(55, 73, 99); fill-opacity: 0.8;"/><path class="point" transform="translate(236.45,408.05)" d="M3,0A3,3 0 1,1 0,-3A3,3 0 0,1 3,0Z" style="opacity: 1; stroke-width: 0px; fill: rgb(55, 73, 99); fill-opacity: 0.8;"/><path class="point" transform="translate(231.62,437.58)" d="M3,0A3,3 0 1,1 0,-3A3,3 0 0,1 3,0Z" style="opacity: 1; stroke-width: 0px; fill: rgb(55, 73, 99); fill-opacity: 0.8;"/><path class="point" transform="translate(315.55,457.27)" d="M3,0A3,3 0 1,1 0,-3A3,3 0 0,1 3,0Z" style="opacity: 1; stroke-width: 0px; fill: rgb(55, 73, 99); fill-opacity: 0.8;"/><path class="point" transform="translate(282.13,536.03)" d="M3,0A3,3 0 1,1 0,-3A3,3 0 0,1 3,0Z" style="opacity: 1; stroke-width: 0px; fill: rgb(55, 73, 99); fill-opacity: 0.8;"/><path class="point" transform="translate(236.45,536.03)" d="M3,0A3,3 0 1,1 0,-3A3,3 0 0,1 3,0Z" style="opacity: 1; stroke-width: 0px; fill: rgb(55, 73, 99); fill-opacity: 0.8;"/><path class="point" transform="translate(282.13,545.87)" d="M3,0A3,3 0 1,1 0,-3A3,3 0 0,1 3,0Z" style="opacity: 1; stroke-width: 0px; fill: rgb(55, 73, 99); fill-opacity: 0.8;"/><path class="point" transform="translate(146.94,260.38)" d="M3,0A3,3 0 1,1 0,-3A3,3 0 0,1 3,0Z" style="opacity: 1; stroke-width: 0px; fill: rgb(55, 73, 99); fill-opacity: 0.8;"/><path class="point" transform="translate(160.31,339.14)" d="M3,0A3,3 0 1,1 0,-3A3,3 0 0,1 3,0Z" style="opacity: 1; stroke-width: 0px; fill: rgb(55, 73, 99); fill-opacity: 0.8;"/><path class="point" transform="translate(156.23,315.91)" d="M3,0A3,3 0 1,1 0,-3A3,3 0 0,1 3,0Z" style="opacity: 1; stroke-width: 0px; fill: rgb(55, 73, 99); fill-opacity: 0.8;"/><path class="point" transform="translate(171.08,34.75)" d="M3,0A3,3 0 1,1 0,-3A3,3 0 0,1 3,0Z" style="opacity: 1; stroke-width: 0px; fill: rgb(55, 73, 99); fill-opacity: 0.8;"/><path class="point" transform="translate(221.59,150.52)" d="M3,0A3,3 0 1,1 0,-3A3,3 0 0,1 3,0Z" style="opacity: 1; stroke-width: 0px; fill: rgb(55, 73, 99); fill-opacity: 0.8;"/><path class="point" transform="translate(78.98,173.75)" d="M3,0A3,3 0 1,1 0,-3A3,3 0 0,1 3,0Z" style="opacity: 1; stroke-width: 0px; fill: rgb(55, 73, 99); fill-opacity: 0.8;"/><path class="point" transform="translate(247.22,496.75)" d="M3,0A3,3 0 1,1 0,-3A3,3 0 0,1 3,0Z" style="opacity: 1; stroke-width: 0px; fill: rgb(55, 73, 99); fill-opacity: 0.8;"/><path class="point" transform="translate(152.89,428.43)" d="M3,0A3,3 0 1,1 0,-3A3,3 0 0,1 3,0Z" style="opacity: 1; stroke-width: 0px; fill: rgb(55, 73, 99); fill-opacity: 0.8;"/><path class="point" transform="translate(33.3,252.41)" d="M3,0A3,3 0 1,1 0,-3A3,3 0 0,1 3,0Z" style="opacity: 1; stroke-width: 0px; fill: rgb(55, 73, 99); fill-opacity: 0.8;"/><path class="point" transform="translate(191.14,398.21)" d="M3,0A3,3 0 1,1 0,-3A3,3 0 0,1 3,0Z" style="opacity: 1; stroke-width: 0px; fill: rgb(55, 73, 99); fill-opacity: 0.8;"/><path class="point" transform="translate(258.36,437.58)" d="M3,0A3,3 0 1,1 0,-3A3,3 0 0,1 3,0Z" style="opacity: 1; stroke-width: 0px; fill: rgb(55, 73, 99); fill-opacity: 0.8;"/><path class="point" transform="translate(153.26,348.98)" d="M3,0A3,3 0 1,1 0,-3A3,3 0 0,1 3,0Z" style="opacity: 1; stroke-width: 0px; fill: rgb(55, 73, 99); fill-opacity: 0.8;"/><path class="point" transform="translate(226.42,368.67)" d="M3,0A3,3 0 1,1 0,-3A3,3 0 0,1 3,0Z" style="opacity: 1; stroke-width: 0px; fill: rgb(55, 73, 99); fill-opacity: 0.8;"/><path class="point" transform="translate(252.79,388.36)" d="M3,0A3,3 0 1,1 0,-3A3,3 0 0,1 3,0Z" style="opacity: 1; stroke-width: 0px; fill: rgb(55, 73, 99); fill-opacity: 0.8;"/><path class="point" transform="translate(241.65,398.21)" d="M3,0A3,3 0 1,1 0,-3A3,3 0 0,1 3,0Z" style="opacity: 1; stroke-width: 0px; fill: rgb(55, 73, 99); fill-opacity: 0.8;"/><path class="point" transform="translate(315.55,427.74)" d="M3,0A3,3 0 1,1 0,-3A3,3 0 0,1 3,0Z" style="opacity: 1; stroke-width: 0px; fill: rgb(55, 73, 99); fill-opacity: 0.8;"/><path class="point" transform="translate(263.93,437.58)" d="M3,0A3,3 0 1,1 0,-3A3,3 0 0,1 3,0Z" style="opacity: 1; stroke-width: 0px; fill: rgb(55, 73, 99); fill-opacity: 0.8;"/><path class="point" transform="translate(487.51,545.87)" d="M3,0A3,3 0 1,1 0,-3A3,3 0 0,1 3,0Z" style="opacity: 1; stroke-width: 0px; fill: rgb(55, 73, 99); fill-opacity: 0.8;"/><path class="point" transform="translate(398.75,545.87)" d="M3,0A3,3 0 1,1 0,-3A3,3 0 0,1 3,0Z" style="opacity: 1; stroke-width: 0px; fill: rgb(55, 73, 99); fill-opacity: 0.8;"/><path class="point" transform="translate(474.88,555.72)" d="M3,0A3,3 0 1,1 0,-3A3,3 0 0,1 3,0Z" style="opacity: 1; stroke-width: 0px; fill: rgb(55, 73, 99); fill-opacity: 0.8;"/><path class="point" transform="translate(146.94,260.38)" d="M3,0A3,3 0 1,1 0,-3A3,3 0 0,1 3,0Z" style="opacity: 1; stroke-width: 0px; fill: rgb(55, 73, 99); fill-opacity: 0.8;"/><path class="point" transform="translate(127.26,260.38)" d="M3,0A3,3 0 1,1 0,-3A3,3 0 0,1 3,0Z" style="opacity: 1; stroke-width: 0px; fill: rgb(55, 73, 99); fill-opacity: 0.8;"/><path class="point" transform="translate(212.31,388.36)" d="M3,0A3,3 0 1,1 0,-3A3,3 0 0,1 3,0Z" style="opacity: 1; stroke-width: 0px; fill: rgb(55, 73, 99); fill-opacity: 0.8;"/><path class="point" transform="translate(418.8,496.65)" d="M3,0A3,3 0 1,1 0,-3A3,3 0 0,1 3,0Z" style="opacity: 1; stroke-width: 0px; fill: rgb(55, 73, 99); fill-opacity: 0.8;"/><path class="point" transform="translate(429.2,447.43)" d="M3,0A3,3 0 1,1 0,-3A3,3 0 0,1 3,0Z" style="opacity: 1; stroke-width: 0px; fill: rgb(55, 73, 99); fill-opacity: 0.8;"/><path class="point" transform="translate(149.54,339.14)" d="M3,0A3,3 0 1,1 0,-3A3,3 0 0,1 3,0Z" style="opacity: 1; stroke-width: 0px; fill: rgb(55, 73, 99); fill-opacity: 0.8;"/><path class="point" transform="translate(212.31,388.36)" d="M3,0A3,3 0 1,1 0,-3A3,3 0 0,1 3,0Z" style="opacity: 1; stroke-width: 0px; fill: rgb(55, 73, 99); fill-opacity: 0.8;"/><path class="point" transform="translate(288.44,348.98)" d="M3,0A3,3 0 1,1 0,-3A3,3 0 0,1 3,0Z" style="opacity: 1; stroke-width: 0px; fill: rgb(55, 73, 99); fill-opacity: 0.8;"/><path class="point" transform="translate(226.42,368.67)" d="M3,0A3,3 0 1,1 0,-3A3,3 0 0,1 3,0Z" style="opacity: 1; stroke-width: 0px; fill: rgb(55, 73, 99); fill-opacity: 0.8;"/><path class="point" transform="translate(513.88,467.12)" d="M3,0A3,3 0 1,1 0,-3A3,3 0 0,1 3,0Z" style="opacity: 1; stroke-width: 0px; fill: rgb(55, 73, 99); fill-opacity: 0.8;"/><path class="point" transform="translate(221.59,467.12)" d="M3,0A3,3 0 1,1 0,-3A3,3 0 0,1 3,0Z" style="opacity: 1; stroke-width: 0px; fill: rgb(55, 73, 99); fill-opacity: 0.8;"/><path class="point" transform="translate(451.11,496.65)" d="M3,0A3,3 0 1,1 0,-3A3,3 0 0,1 3,0Z" style="opacity: 1; stroke-width: 0px; fill: rgb(55, 73, 99); fill-opacity: 0.8;"/><path class="point" transform="translate(451.11,506.49)" d="M3,0A3,3 0 1,1 0,-3A3,3 0 0,1 3,0Z" style="opacity: 1; stroke-width: 0px; fill: rgb(55, 73, 99); fill-opacity: 0.8;"/><path class="point" transform="translate(301.07,545.87)" d="M3,0A3,3 0 1,1 0,-3A3,3 0 0,1 3,0Z" style="opacity: 1; stroke-width: 0px; fill: rgb(55, 73, 99); fill-opacity: 0.8;"/><path class="point" transform="translate(122.8,260.38)" d="M3,0A3,3 0 1,1 0,-3A3,3 0 0,1 3,0Z" style="opacity: 1; stroke-width: 0px; fill: rgb(55, 73, 99); fill-opacity: 0.8;"/><path class="point" transform="translate(269.87,309.61)" d="M3,0A3,3 0 1,1 0,-3A3,3 0 0,1 3,0Z" style="opacity: 1; stroke-width: 0px; fill: rgb(55, 73, 99); fill-opacity: 0.8;"/><path class="point" transform="translate(178.51,319.45)" d="M3,0A3,3 0 1,1 0,-3A3,3 0 0,1 3,0Z" style="opacity: 1; stroke-width: 0px; fill: rgb(55, 73, 99); fill-opacity: 0.8;"/><path class="point" transform="translate(178.51,260.38)" d="M3,0A3,3 0 1,1 0,-3A3,3 0 0,1 3,0Z" style="opacity: 1; stroke-width: 0px; fill: rgb(55, 73, 99); fill-opacity: 0.8;"/><path class="point" transform="translate(234.96,289.92)" d="M3,0A3,3 0 1,1 0,-3A3,3 0 0,1 3,0Z" style="opacity: 1; stroke-width: 0px; fill: rgb(55, 73, 99); fill-opacity: 0.8;"/><path class="point" transform="translate(258.36,329.3)" d="M3,0A3,3 0 1,1 0,-3A3,3 0 0,1 3,0Z" style="opacity: 1; stroke-width: 0px; fill: rgb(55, 73, 99); fill-opacity: 0.8;"/><path class="point" transform="translate(236.45,339.14)" d="M3,0A3,3 0 1,1 0,-3A3,3 0 0,1 3,0Z" style="opacity: 1; stroke-width: 0px; fill: rgb(55, 73, 99); fill-opacity: 0.8;"/><path class="point" transform="translate(301.44,348.98)" d="M3,0A3,3 0 1,1 0,-3A3,3 0 0,1 3,0Z" style="opacity: 1; stroke-width: 0px; fill: rgb(55, 73, 99); fill-opacity: 0.8;"/><path class="point" transform="translate(294.76,358.83)" d="M3,0A3,3 0 1,1 0,-3A3,3 0 0,1 3,0Z" style="opacity: 1; stroke-width: 0px; fill: rgb(55, 73, 99); fill-opacity: 0.8;"/><path class="point" transform="translate(236.45,378.52)" d="M3,0A3,3 0 1,1 0,-3A3,3 0 0,1 3,0Z" style="opacity: 1; stroke-width: 0px; fill: rgb(55, 73, 99); fill-opacity: 0.8;"/><path class="point" transform="translate(231.62,378.52)" d="M3,0A3,3 0 1,1 0,-3A3,3 0 0,1 3,0Z" style="opacity: 1; stroke-width: 0px; fill: rgb(55, 73, 99); fill-opacity: 0.8;"/><path class="point" transform="translate(236.45,388.36)" d="M3,0A3,3 0 1,1 0,-3A3,3 0 0,1 3,0Z" style="opacity: 1; stroke-width: 0px; fill: rgb(55, 73, 99); fill-opacity: 0.8;"/><path class="point" transform="translate(221.59,388.36)" d="M3,0A3,3 0 1,1 0,-3A3,3 0 0,1 3,0Z" style="opacity: 1; stroke-width: 0px; fill: rgb(55, 73, 99); fill-opacity: 0.8;"/><path class="point" transform="translate(226.42,467.12)" d="M3,0A3,3 0 1,1 0,-3A3,3 0 0,1 3,0Z" style="opacity: 1; stroke-width: 0px; fill: rgb(55, 73, 99); fill-opacity: 0.8;"/><path class="point" transform="translate(221.59,467.12)" d="M3,0A3,3 0 1,1 0,-3A3,3 0 0,1 3,0Z" style="opacity: 1; stroke-width: 0px; fill: rgb(55, 73, 99); fill-opacity: 0.8;"/><path class="point" transform="translate(252.79,467.12)" d="M3,0A3,3 0 1,1 0,-3A3,3 0 0,1 3,0Z" style="opacity: 1; stroke-width: 0px; fill: rgb(55, 73, 99); fill-opacity: 0.8;"/><path class="point" transform="translate(282.13,457.27)" d="M3,0A3,3 0 1,1 0,-3A3,3 0 0,1 3,0Z" style="opacity: 1; stroke-width: 0px; fill: rgb(55, 73, 99); fill-opacity: 0.8;"/><path class="point" transform="translate(315.55,476.96)" d="M3,0A3,3 0 1,1 0,-3A3,3 0 0,1 3,0Z" style="opacity: 1; stroke-width: 0px; fill: rgb(55, 73, 99); fill-opacity: 0.8;"/><path class="point" transform="translate(346.01,496.65)" d="M3,0A3,3 0 1,1 0,-3A3,3 0 0,1 3,0Z" style="opacity: 1; stroke-width: 0px; fill: rgb(55, 73, 99); fill-opacity: 0.8;"/><path class="point" transform="translate(408.4,545.87)" d="M3,0A3,3 0 1,1 0,-3A3,3 0 0,1 3,0Z" style="opacity: 1; stroke-width: 0px; fill: rgb(55, 73, 99); fill-opacity: 0.8;"/><path class="point" transform="translate(398.75,545.87)" d="M3,0A3,3 0 1,1 0,-3A3,3 0 0,1 3,0Z" style="opacity: 1; stroke-width: 0px; fill: rgb(55, 73, 99); fill-opacity: 0.8;"/><path class="point" transform="translate(231.62,545.87)" d="M3,0A3,3 0 1,1 0,-3A3,3 0 0,1 3,0Z" style="opacity: 1; stroke-width: 0px; fill: rgb(55, 73, 99); fill-opacity: 0.8;"/><path class="point" transform="translate(241.65,545.87)" d="M3,0A3,3 0 1,1 0,-3A3,3 0 0,1 3,0Z" style="opacity: 1; stroke-width: 0px; fill: rgb(55, 73, 99); fill-opacity: 0.8;"/><path class="point" transform="translate(240.91,545.87)" d="M3,0A3,3 0 1,1 0,-3A3,3 0 0,1 3,0Z" style="opacity: 1; stroke-width: 0px; fill: rgb(55, 73, 99); fill-opacity: 0.8;"/><path class="point" transform="translate(294.76,545.87)" d="M3,0A3,3 0 1,1 0,-3A3,3 0 0,1 3,0Z" style="opacity: 1; stroke-width: 0px; fill: rgb(55, 73, 99); fill-opacity: 0.8;"/><path class="point" transform="translate(320.75,309.61)" d="M3,0A3,3 0 1,1 0,-3A3,3 0 0,1 3,0Z" style="opacity: 1; stroke-width: 0px; fill: rgb(55, 73, 99); fill-opacity: 0.8;"/><path class="point" transform="translate(182.6,339.14)" d="M3,0A3,3 0 1,1 0,-3A3,3 0 0,1 3,0Z" style="opacity: 1; stroke-width: 0px; fill: rgb(55, 73, 99); fill-opacity: 0.8;"/><path class="point" transform="translate(258.36,358.83)" d="M3,0A3,3 0 1,1 0,-3A3,3 0 0,1 3,0Z" style="opacity: 1; stroke-width: 0px; fill: rgb(55, 73, 99); fill-opacity: 0.8;"/><path class="point" transform="translate(143.6,378.52)" d="M3,0A3,3 0 1,1 0,-3A3,3 0 0,1 3,0Z" style="opacity: 1; stroke-width: 0px; fill: rgb(55, 73, 99); fill-opacity: 0.8;"/><path class="point" transform="translate(354.18,476.96)" d="M3,0A3,3 0 1,1 0,-3A3,3 0 0,1 3,0Z" style="opacity: 1; stroke-width: 0px; fill: rgb(55, 73, 99); fill-opacity: 0.8;"/><path class="point" transform="translate(258.36,545.87)" d="M3,0A3,3 0 1,1 0,-3A3,3 0 0,1 3,0Z" style="opacity: 1; stroke-width: 0px; fill: rgb(55, 73, 99); fill-opacity: 0.8;"/><path class="point" transform="translate(171.08,545.87)" d="M3,0A3,3 0 1,1 0,-3A3,3 0 0,1 3,0Z" style="opacity: 1; stroke-width: 0px; fill: rgb(55, 73, 99); fill-opacity: 0.8;"/><path class="point" transform="translate(418.8,447.43)" d="M3,0A3,3 0 1,1 0,-3A3,3 0 0,1 3,0Z" style="opacity: 1; stroke-width: 0px; fill: rgb(55, 73, 99); fill-opacity: 0.8;"/><path class="point" transform="translate(527.99,467.12)" d="M3,0A3,3 0 1,1 0,-3A3,3 0 0,1 3,0Z" style="opacity: 1; stroke-width: 0px; fill: rgb(55, 73, 99); fill-opacity: 0.8;"/><path class="point" transform="translate(354.18,496.65)" d="M3,0A3,3 0 1,1 0,-3A3,3 0 0,1 3,0Z" style="opacity: 1; stroke-width: 0px; fill: rgb(55, 73, 99); fill-opacity: 0.8;"/><path class="point" transform="translate(282.13,496.65)" d="M3,0A3,3 0 1,1 0,-3A3,3 0 0,1 3,0Z" style="opacity: 1; stroke-width: 0px; fill: rgb(55, 73, 99); fill-opacity: 0.8;"/><path class="point" transform="translate(474.88,506.49)" d="M3,0A3,3 0 1,1 0,-3A3,3 0 0,1 3,0Z" style="opacity: 1; stroke-width: 0px; fill: rgb(55, 73, 99); fill-opacity: 0.8;"/><path class="point" transform="translate(487.51,506.49)" d="M3,0A3,3 0 1,1 0,-3A3,3 0 0,1 3,0Z" style="opacity: 1; stroke-width: 0px; fill: rgb(55, 73, 99); fill-opacity: 0.8;"/><path class="point" transform="translate(315.55,545.87)" d="M3,0A3,3 0 1,1 0,-3A3,3 0 0,1 3,0Z" style="opacity: 1; stroke-width: 0px; fill: rgb(55, 73, 99); fill-opacity: 0.8;"/><path class="point" transform="translate(140.26,260.38)" d="M3,0A3,3 0 1,1 0,-3A3,3 0 0,1 3,0Z" style="opacity: 1; stroke-width: 0px; fill: rgb(55, 73, 99); fill-opacity: 0.8;"/><path class="point" transform="translate(236.45,329.3)" d="M3,0A3,3 0 1,1 0,-3A3,3 0 0,1 3,0Z" style="opacity: 1; stroke-width: 0px; fill: rgb(55, 73, 99); fill-opacity: 0.8;"/><path class="point" transform="translate(236.45,329.3)" d="M3,0A3,3 0 1,1 0,-3A3,3 0 0,1 3,0Z" style="opacity: 1; stroke-width: 0px; fill: rgb(55, 73, 99); fill-opacity: 0.8;"/><path class="point" transform="translate(212.31,388.36)" d="M3,0A3,3 0 1,1 0,-3A3,3 0 0,1 3,0Z" style="opacity: 1; stroke-width: 0px; fill: rgb(55, 73, 99); fill-opacity: 0.8;"/></g><g class="text"/></g><g class="trace scatter trace319b7d" style="stroke-miterlimit: 2; opacity: 1;"><g class="fills"/><g class="errorbars"/><g class="lines"><path class="js-line" d="M76.75,326.41L557.7,567.18L33.3,304.66L212.31,394.27" style="vector-effect: non-scaling-stroke; fill: none; stroke: rgb(248, 202, 84); stroke-opacity: 0.8; stroke-width: 2px; opacity: 1;"/></g><g class="points"/><g class="text"/></g></g></g><g class="overplot"/><path class="xlines-above crisp" d="M0,0" style="fill: none;"/><path class="ylines-above crisp" d="M0,0" style="fill: none;"/><g class="overlines-above"/><g class="xaxislayer-above"><g class="xtick"><text text-anchor="middle" x="0" y="733" transform="translate(102.53,0)" style="font-family: 'Open Sans', verdana, arial, sans-serif; font-size: 12px; fill: rgb(42, 63, 95); fill-opacity: 1; white-space: pre;">6</text></g><g class="xtick"><text text-anchor="middle" x="0" y="733" transform="translate(176.81,0)" style="font-family: 'Open Sans', verdana, arial, sans-serif; font-size: 12px; fill: rgb(42, 63, 95); fill-opacity: 1; white-space: pre;">8</text></g><g class="xtick"><text text-anchor="middle" x="0" y="733" transform="translate(251.08,0)" style="font-family: 'Open Sans', verdana, arial, sans-serif; font-size: 12px; fill: rgb(42, 63, 95); fill-opacity: 1; white-space: pre;">10</text></g><g class="xtick"><text text-anchor="middle" x="0" y="733" transform="translate(325.36,0)" style="font-family: 'Open Sans', verdana, arial, sans-serif; font-size: 12px; fill: rgb(42, 63, 95); fill-opacity: 1; white-space: pre;">12</text></g><g class="xtick"><text text-anchor="middle" x="0" y="733" transform="translate(399.64,0)" style="font-family: 'Open Sans', verdana, arial, sans-serif; font-size: 12px; fill: rgb(42, 63, 95); fill-opacity: 1; white-space: pre;">14</text></g><g class="xtick"><text text-anchor="middle" x="0" y="733" transform="translate(473.92,0)" style="font-family: 'Open Sans', verdana, arial, sans-serif; font-size: 12px; fill: rgb(42, 63, 95); fill-opacity: 1; white-space: pre;">16</text></g><g class="xtick"><text text-anchor="middle" x="0" y="733" transform="translate(548.2,0)" style="font-family: 'Open Sans', verdana, arial, sans-serif; font-size: 12px; fill: rgb(42, 63, 95); fill-opacity: 1; white-space: pre;">18</text></g><g class="xtick"><text text-anchor="middle" x="0" y="733" transform="translate(622.47,0)" style="font-family: 'Open Sans', verdana, arial, sans-serif; font-size: 12px; fill: rgb(42, 63, 95); fill-opacity: 1; white-space: pre;">20</text></g></g><g class="yaxislayer-above"><g class="ytick"><text text-anchor="end" x="79" y="4.199999999999999" transform="translate(0,655.72)" style="font-family: 'Open Sans', verdana, arial, sans-serif; font-size: 12px; fill: rgb(42, 63, 95); fill-opacity: 1; white-space: pre;">20</text></g><g class="ytick"><text text-anchor="end" x="79" y="4.199999999999999" transform="translate(0,557.27)" style="font-family: 'Open Sans', verdana, arial, sans-serif; font-size: 12px; fill: rgb(42, 63, 95); fill-opacity: 1; white-space: pre;">30</text></g><g class="ytick"><text text-anchor="end" x="79" y="4.199999999999999" transform="translate(0,458.83)" style="font-family: 'Open Sans', verdana, arial, sans-serif; font-size: 12px; fill: rgb(42, 63, 95); fill-opacity: 1; white-space: pre;">40</text></g><g class="ytick"><text text-anchor="end" x="79" y="4.199999999999999" transform="translate(0,360.38)" style="font-family: 'Open Sans', verdana, arial, sans-serif; font-size: 12px; fill: rgb(42, 63, 95); fill-opacity: 1; white-space: pre;">50</text></g><g class="ytick"><text text-anchor="end" x="79" y="4.199999999999999" transform="translate(0,261.94)" style="font-family: 'Open Sans', verdana, arial, sans-serif; font-size: 12px; fill: rgb(42, 63, 95); fill-opacity: 1; white-space: pre;">60</text></g><g class="ytick"><text text-anchor="end" x="79" y="4.199999999999999" transform="translate(0,163.5)" style="font-family: 'Open Sans', verdana, arial, sans-serif; font-size: 12px; fill: rgb(42, 63, 95); fill-opacity: 1; white-space: pre;">70</text></g></g><g class="overaxes-above"/></g></g><g class="polarlayer"/><g class="ternarylayer"/><g class="geolayer"/><g class="funnelarealayer"/><g class="pielayer"/><g class="treemaplayer"/><g class="sunburstlayer"/><g class="glimages"/><defs id="topdefs-1eb7da"><g class="clips"/><clipPath id="legend1eb7da"><rect width="105" height="48" x="0" y="0"/></clipPath></defs><g class="layer-above"><g class="imagelayer"/><g class="shapelayer"/></g><g class="infolayer"><g class="legend" pointer-events="all" transform="translate(682.82,100)"><rect class="bg" shape-rendering="crispEdges" width="105" height="48" x="0" y="0" style="stroke: rgb(68, 68, 68); stroke-opacity: 1; fill: rgb(255, 255, 255); fill-opacity: 1; stroke-width: 0px;"/><g class="scrollbox" transform="" clip-path="url('#legend1eb7da')"><g class="groups"><g class="traces" transform="translate(0,14.5)" style="opacity: 1;"><text class="legendtext" text-anchor="start" x="40" y="4.680000000000001" style="font-family: 'Open Sans', verdana, arial, sans-serif; font-size: 12px; fill: rgb(42, 63, 95); fill-opacity: 1; white-space: pre;">mpg</text><g class="layers" style="opacity: 1;"><g class="legendfill"/><g class="legendlines"/><g class="legendsymbols"><g class="legendpoints"><path class="scatterpts" transform="translate(20,0)" d="M3,0A3,3 0 1,1 0,-3A3,3 0 0,1 3,0Z" style="opacity: 1; stroke-width: 0px; fill: rgb(55, 73, 99); fill-opacity: 0.8;"/></g></g></g><rect class="legendtoggle" x="0" y="-9.5" width="99.4375" height="19" style="fill: rgb(0, 0, 0); fill-opacity: 0;"/></g><g class="traces" transform="translate(0,33.5)" style="opacity: 1;"><text class="legendtext" text-anchor="start" x="40" y="4.680000000000001" style="font-family: 'Open Sans', verdana, arial, sans-serif; font-size: 12px; fill: rgb(42, 63, 95); fill-opacity: 1; white-space: pre;">Prediction</text><g class="layers" style="opacity: 1;"><g class="legendfill"/><g class="legendlines"><path class="js-line" d="M5,0h30" style="fill: none; stroke: rgb(248, 202, 84); stroke-opacity: 0.8; stroke-width: 2px;"/></g><g class="legendsymbols"><g class="legendpoints"/></g></g><rect class="legendtoggle" x="0" y="-9.5" width="99.4375" height="19" style="fill: rgb(0, 0, 0); fill-opacity: 0;"/></g></g></g><rect class="scrollbar" rx="20" ry="3" width="0" height="0" x="0" y="0" style="fill: rgb(128, 139, 164); fill-opacity: 1;"/></g><g class="g-gtitle"><text class="gtitle" x="40" y="50" text-anchor="start" dy="0em" style="font-family: 'Open Sans', verdana, arial, sans-serif; font-size: 17px; fill: rgb(42, 63, 95); opacity: 1; font-weight: normal; white-space: pre;">Prediction of mpg vs. acceleration</text></g><g class="g-xtitle"><text class="xtitle" x="375.5" y="760.3" text-anchor="middle" style="font-family: 'Open Sans', verdana, arial, sans-serif; font-size: 14px; fill: rgb(42, 63, 95); opacity: 1; font-weight: normal; white-space: pre;">acceleration</text></g><g class="g-ytitle"><text class="ytitle" transform="rotate(-90,38.934375,410)" x="38.934375" y="410" text-anchor="middle" style="font-family: 'Open Sans', verdana, arial, sans-serif; font-size: 14px; fill: rgb(42, 63, 95); opacity: 1; font-weight: normal; white-space: pre;">mpg</text></g></g></svg>